<svg width="326" height="105" viewBox="0 0 326 105" fill="none" xmlns="http://www.w3.org/2000/svg">
<g filter="url(#filter0_d_37_34)">
<path d="M270.224 77.1981L299.383 46.5726L270.224 15.9467L279.114 6.6123L317.162 46.5726L279.114 86.5325L270.224 77.1981Z" fill="white"/>
<path d="M270.595 77.587L270.446 77.4315L270.486 77.3935L270.3 77.1981L270.492 76.9969L270.452 76.9589L270.604 76.7994L270.644 76.8374L271.099 76.3588L271.059 76.3208L271.211 76.1613L271.251 76.1993L271.707 75.7208L271.667 75.6828L271.819 75.5233L271.859 75.5613L272.314 75.0828L272.274 75.0448L272.426 74.8853L272.466 74.9233L272.922 74.4447L272.882 74.4067L273.034 74.2472L273.074 74.2852L273.529 73.8067L273.489 73.7687L273.641 73.6092L273.681 73.6472L274.137 73.1687L274.097 73.1307L274.249 72.9712L274.288 73.0092L274.744 72.5306L274.704 72.4926L274.856 72.3331L274.896 72.3711L275.352 71.8926L275.312 71.8546L275.464 71.6951L275.503 71.7331L275.959 71.2546L275.919 71.2166L276.071 71.0571L276.111 71.0951L276.566 70.6166L276.527 70.5786L276.678 70.419L276.718 70.457L277.174 69.9785L277.134 69.9405L277.286 69.781L277.326 69.819L277.781 69.3405L277.742 69.3025L277.893 69.143L277.933 69.181L278.389 68.7025L278.349 68.6645L278.501 68.505L278.541 68.5429L278.996 68.0644L278.956 68.0264L279.108 67.8669L279.148 67.9049L279.604 67.4264L279.564 67.3884L279.716 67.2289L279.756 67.2669L280.211 66.7884L280.171 66.7504L280.323 66.5909L280.363 66.6289L280.819 66.1503L280.779 66.1123L280.931 65.9528L280.971 65.9908L281.426 65.5123L281.386 65.4743L281.538 65.3148L281.578 65.3528L282.034 64.8743L281.994 64.8363L282.146 64.6768L282.186 64.7148L282.641 64.2362L282.601 64.1982L282.753 64.0387L282.793 64.0767L283.249 63.5982L283.209 63.5602L283.361 63.4007L283.401 63.4387L283.856 62.9602L283.816 62.9222L283.968 62.7627L284.008 62.8007L284.464 62.3221L284.424 62.2841L284.576 62.1246L284.615 62.1626L285.071 61.6841L285.031 61.6461L285.183 61.4866L285.223 61.5246L285.679 61.0461L285.639 61.0081L285.79 60.8486L285.83 60.8866L286.286 60.4081L286.246 60.3701L286.398 60.2105L286.438 60.2485L286.893 59.77L286.854 59.732L287.005 59.5725L287.045 59.6105L287.501 59.132L287.461 59.094L287.613 58.9345L287.653 58.9725L288.108 58.494L288.068 58.456L288.22 58.2965L288.26 58.3344L288.716 57.8559L288.676 57.8179L288.828 57.6584L288.868 57.6964L289.323 57.2179L289.283 57.1799L289.435 57.0204L289.475 57.0584L289.931 56.5799L289.891 56.5419L290.043 56.3824L290.083 56.4204L290.538 55.9418L290.498 55.9038L290.65 55.7443L290.69 55.7823L291.146 55.3038L291.106 55.2658L291.258 55.1063L291.298 55.1443L291.753 54.6658L291.713 54.6278L291.865 54.4683L291.905 54.5063L292.361 54.0277L292.321 53.9897L292.473 53.8302L292.513 53.8682L292.968 53.3897L292.928 53.3517L293.08 53.1922L293.12 53.2302L293.576 52.7517L293.536 52.7137L293.688 52.5542L293.727 52.5922L294.183 52.1136L294.143 52.0756L294.295 51.9161L294.335 51.9541L294.791 51.4756L294.751 51.4376L294.902 51.2781L294.942 51.3161L295.398 50.8376L295.358 50.7996L295.51 50.6401L295.55 50.6781L296.005 50.1996L295.966 50.1616L296.117 50.002L296.157 50.04L296.613 49.5615L296.573 49.5235L296.725 49.364L296.765 49.402L297.22 48.9235L297.181 48.8855L297.332 48.726L297.372 48.764L297.828 48.2855L297.788 48.2475L297.94 48.088L297.98 48.126L298.435 47.6474L298.395 47.6094L298.547 47.4499L298.587 47.4879L299.043 47.0094L299.003 46.9714L299.155 46.8119L299.195 46.8499L299.422 46.6106L299.459 46.5726L299.422 46.5346L299.195 46.2954L299.155 46.3334L299.003 46.1738L299.043 46.1358L298.587 45.6573L298.547 45.6953L298.395 45.5358L298.435 45.4978L297.98 45.0193L297.94 45.0573L297.788 44.8978L297.828 44.8598L297.372 44.3812L297.332 44.4192L297.18 44.2597L297.22 44.2217L296.765 43.7432L296.725 43.7812L296.573 43.6217L296.613 43.5837L296.157 43.1052L296.117 43.1432L295.966 42.9837L296.005 42.9457L295.55 42.4671L295.51 42.5051L295.358 42.3456L295.398 42.3076L294.942 41.8291L294.903 41.8671L294.751 41.7076L294.791 41.6696L294.335 41.191L294.295 41.229L294.143 41.0695L294.183 41.0315L293.727 40.553L293.688 40.591L293.536 40.4315L293.576 40.3935L293.12 39.915L293.08 39.953L292.928 39.7935L292.968 39.7555L292.513 39.2769L292.473 39.3149L292.321 39.1554L292.361 39.1174L291.905 38.6389L291.865 38.6769L291.713 38.5174L291.753 38.4794L291.298 38.0008L291.258 38.0388L291.106 37.8793L291.146 37.8413L290.69 37.3628L290.65 37.4008L290.498 37.2413L290.538 37.2033L290.083 36.7248L290.043 36.7628L289.891 36.6033L289.931 36.5653L289.475 36.0867L289.435 36.1247L289.283 35.9652L289.323 35.9272L288.868 35.4487L288.828 35.4867L288.676 35.3272L288.716 35.2892L288.26 34.8106L288.22 34.8486L288.068 34.6891L288.108 34.6511L287.653 34.1726L287.613 34.2106L287.461 34.0511L287.501 34.0131L287.045 33.5346L287.005 33.5726L286.854 33.413L286.893 33.375L286.438 32.8965L286.398 32.9345L286.246 32.775L286.286 32.737L285.83 32.2585L285.79 32.2965L285.639 32.137L285.679 32.099L285.223 31.6204L285.183 31.6584L285.031 31.4989L285.071 31.4609L284.615 30.9824L284.576 31.0204L284.424 30.8609L284.464 30.8229L284.008 30.3444L283.968 30.3823L283.816 30.2228L283.856 30.1848L283.401 29.7063L283.361 29.7443L283.209 29.5848L283.249 29.5468L282.793 29.0683L282.753 29.1063L282.601 28.9468L282.641 28.9088L282.186 28.4302L282.146 28.4682L281.994 28.3087L282.034 28.2707L281.578 27.7922L281.538 27.8302L281.386 27.6707L281.426 27.6327L280.971 27.1541L280.931 27.1921L280.779 27.0326L280.819 26.9946L280.363 26.5161L280.323 26.5541L280.171 26.3946L280.211 26.3566L279.756 25.8781L279.716 25.9161L279.564 25.7565L279.604 25.7185L279.148 25.24L279.108 25.278L278.956 25.1185L278.996 25.0805L278.541 24.602L278.501 24.64L278.349 24.4805L278.389 24.4425L277.933 23.9639L277.893 24.0019L277.742 23.8424L277.781 23.8044L277.326 23.3259L277.286 23.3639L277.134 23.2044L277.174 23.1664L276.718 22.6879L276.678 22.7259L276.527 22.5663L276.567 22.5283L276.111 22.0498L276.071 22.0878L275.919 21.9283L275.959 21.8903L275.503 21.4118L275.464 21.4498L275.312 21.2903L275.352 21.2523L274.896 20.7737L274.856 20.8117L274.704 20.6522L274.744 20.6142L274.289 20.1357L274.249 20.1737L274.097 20.0142L274.137 19.9762L273.681 19.4976L273.641 19.5356L273.489 19.3761L273.529 19.3381L273.074 18.8596L273.034 18.8976L272.882 18.7381L272.922 18.7001L272.466 18.2216L272.426 18.2596L272.274 18.1001L272.314 18.0621L271.859 17.5835L271.819 17.6215L271.667 17.462L271.707 17.424L271.251 16.9455L271.211 16.9835L271.059 16.824L271.099 16.786L270.644 16.3074L270.604 16.3454L270.452 16.1859L270.492 16.1479L270.3 15.9467L270.486 15.7513L270.446 15.7133L270.595 15.5577L270.634 15.5957L271.079 15.129L271.039 15.091L271.187 14.9354L271.227 14.9734L271.672 14.5067L271.632 14.4687L271.78 14.3132L271.82 14.3512L272.264 13.8844L272.224 13.8464L272.372 13.6909L272.412 13.7289L272.857 13.2621L272.817 13.2241L272.965 13.0686L273.005 13.1066L273.45 12.6399L273.41 12.6019L273.558 12.4463L273.598 12.4843L274.042 12.0176L274.002 11.9796L274.15 11.824L274.19 11.862L274.635 11.3953L274.595 11.3573L274.743 11.2017L274.783 11.2397L275.227 10.773L275.188 10.735L275.336 10.5794L275.376 10.6174L275.82 10.1507L275.78 10.1127L275.928 9.95712L275.968 9.99512L276.413 9.5284L276.373 9.4904L276.521 9.33483L276.561 9.37283L277.005 8.90611L276.966 8.86811L277.114 8.71254L277.154 8.75054L277.598 8.28382L277.558 8.24582L277.706 8.09025L277.746 8.12825L278.191 7.66153L278.151 7.62353L278.299 7.46795L278.339 7.50596L278.783 7.03924L278.743 7.00124L278.892 6.84566L278.932 6.88367L279.114 6.69221L279.3 6.88817L279.34 6.85017L279.491 7.00874L279.451 7.04674L279.904 7.52246L279.944 7.48446L280.095 7.64303L280.055 7.68103L280.508 8.15675L280.548 8.11875L280.699 8.27732L280.659 8.31532L281.112 8.79104L281.152 8.75304L281.303 8.91161L281.263 8.94961L281.716 9.42533L281.756 9.38733L281.907 9.5459L281.867 9.5839L282.32 10.0596L282.36 10.0216L282.511 10.1802L282.471 10.2182L282.924 10.6939L282.964 10.6559L283.115 10.8145L283.075 10.8525L283.528 11.3282L283.568 11.2902L283.719 11.4488L283.679 11.4868L284.132 11.9625L284.172 11.9245L284.323 12.0831L284.283 12.1211L284.736 12.5968L284.776 12.5588L284.927 12.7174L284.887 12.7554L285.34 13.2311L285.38 13.1931L285.531 13.3516L285.491 13.3896L285.944 13.8654L285.984 13.8274L286.135 13.9859L286.095 14.0239L286.548 14.4997L286.588 14.4617L286.739 14.6202L286.699 14.6582L287.152 15.1339L287.192 15.0959L287.343 15.2545L287.303 15.2925L287.756 15.7682L287.796 15.7302L287.947 15.8888L287.907 15.9268L288.36 16.4025L288.399 16.3645L288.55 16.5231L288.511 16.5611L288.963 17.0368L289.003 16.9988L289.154 17.1574L289.114 17.1954L289.567 17.6711L289.607 17.6331L289.758 17.7917L289.718 17.8297L290.171 18.3054L290.211 18.2674L290.362 18.426L290.322 18.464L290.775 18.9397L290.815 18.9017L290.966 19.0603L290.926 19.0983L291.379 19.574L291.419 19.536L291.57 19.6946L291.53 19.7326L291.983 20.2083L292.023 20.1703L292.174 20.3288L292.134 20.3668L292.587 20.8426L292.627 20.8046L292.778 20.9631L292.738 21.0011L293.191 21.4769L293.231 21.4389L293.382 21.5974L293.342 21.6354L293.795 22.1111L293.835 22.0731L293.986 22.2317L293.946 22.2697L294.399 22.7454L294.439 22.7074L294.59 22.866L294.55 22.904L295.003 23.3797L295.043 23.3417L295.194 23.5003L295.154 23.5383L295.607 24.014L295.647 23.976L295.798 24.1346L295.758 24.1726L296.211 24.6483L296.251 24.6103L296.402 24.7689L296.362 24.8069L296.815 25.2826L296.855 25.2446L297.006 25.4032L296.966 25.4412L297.419 25.9169L297.459 25.8789L297.61 26.0375L297.57 26.0755L298.023 26.5512L298.062 26.5132L298.213 26.6718L298.174 26.7098L298.627 27.1855L298.666 27.1475L298.817 27.306L298.778 27.344L299.23 27.8198L299.27 27.7818L299.421 27.9403L299.381 27.9783L299.834 28.4541L299.874 28.4161L300.025 28.5746L299.985 28.6126L300.438 29.0883L300.478 29.0503L300.629 29.2089L300.589 29.2469L301.042 29.7226L301.082 29.6846L301.233 29.8432L301.193 29.8812L301.646 30.3569L301.686 30.3189L301.837 30.4775L301.797 30.5155L302.25 30.9912L302.29 30.9532L302.441 31.1118L302.401 31.1498L302.854 31.6255L302.894 31.5875L303.045 31.7461L303.005 31.7841L303.458 32.2598L303.498 32.2218L303.649 32.3804L303.609 32.4184L304.062 32.8941L304.102 32.8561L304.253 33.0147L304.213 33.0527L304.666 33.5284L304.706 33.4904L304.857 33.649L304.817 33.687L305.27 34.1627L305.31 34.1247L305.461 34.2832L305.421 34.3212L305.874 34.797L305.914 34.759L306.065 34.9175L306.025 34.9555L306.478 35.4313L306.518 35.3933L306.669 35.5518L306.629 35.5898L307.082 36.0655L307.122 36.0275L307.273 36.1861L307.233 36.2241L307.686 36.6998L307.726 36.6618L307.877 36.8204L307.837 36.8584L308.29 37.3341L308.329 37.2961L308.48 37.4547L308.441 37.4927L308.893 37.9684L308.933 37.9304L309.084 38.089L309.044 38.127L309.497 38.6027L309.537 38.5647L309.688 38.7233L309.648 38.7613L310.101 39.237L310.141 39.199L310.292 39.3576L310.252 39.3956L310.705 39.8713L310.745 39.8333L310.896 39.9919L310.856 40.0299L311.309 40.5056L311.349 40.4676L311.5 40.6262L311.46 40.6642L311.913 41.1399L311.953 41.1019L312.104 41.2604L312.064 41.2984L312.517 41.7742L312.557 41.7362L312.708 41.8947L312.668 41.9327L313.121 42.4085L313.161 42.3705L313.312 42.529L313.272 42.567L313.725 43.0427L313.765 43.0047L313.916 43.1633L313.876 43.2013L314.329 43.677L314.369 43.639L314.52 43.7976L314.48 43.8356L314.933 44.3113L314.973 44.2733L315.124 44.4319L315.084 44.4699L315.537 44.9456L315.577 44.9076L315.728 45.0662L315.688 45.1042L316.141 45.5799L316.181 45.5419L316.332 45.7005L316.292 45.7385L316.745 46.2142L316.785 46.1762L316.936 46.3348L316.896 46.3728L317.086 46.5726L316.896 46.7725L316.936 46.8105L316.785 46.969L316.745 46.931L316.292 47.4067L316.332 47.4447L316.181 47.6033L316.141 47.5653L315.688 48.041L315.728 48.079L315.577 48.2376L315.537 48.1996L315.084 48.6753L315.124 48.7133L314.973 48.8719L314.933 48.8339L314.48 49.3096L314.52 49.3476L314.369 49.5062L314.329 49.4682L313.876 49.9439L313.916 49.9819L313.765 50.1405L313.725 50.1025L313.272 50.5782L313.312 50.6162L313.161 50.7747L313.121 50.7367L312.668 51.2125L312.708 51.2505L312.557 51.409L312.517 51.371L312.064 51.8467L312.104 51.8847L311.953 52.0433L311.913 52.0053L311.46 52.481L311.5 52.519L311.349 52.6776L311.309 52.6396L310.856 53.1153L310.896 53.1533L310.745 53.3119L310.705 53.2739L310.252 53.7496L310.292 53.7876L310.141 53.9462L310.101 53.9082L309.648 54.3839L309.688 54.4219L309.537 54.5804L309.497 54.5424L309.044 55.0182L309.084 55.0562L308.933 55.2147L308.894 55.1767L308.441 55.6524L308.48 55.6904L308.329 55.849L308.29 55.811L307.837 56.2867L307.877 56.3247L307.726 56.4833L307.686 56.4453L307.233 56.921L307.273 56.959L307.122 57.1176L307.082 57.0796L306.629 57.5553L306.669 57.5933L306.518 57.7519L306.478 57.7139L306.025 58.1896L306.065 58.2276L305.914 58.3862L305.874 58.3482L305.421 58.8239L305.461 58.8619L305.31 59.0204L305.27 58.9824L304.817 59.4581L304.857 59.4961L304.706 59.6547L304.666 59.6167L304.213 60.0924L304.253 60.1304L304.102 60.289L304.062 60.251L303.609 60.7267L303.649 60.7647L303.498 60.9233L303.458 60.8853L303.005 61.361L303.045 61.399L302.894 61.5576L302.854 61.5196L302.401 61.9953L302.441 62.0333L302.29 62.1919L302.25 62.1539L301.797 62.6296L301.837 62.6676L301.686 62.8261L301.646 62.7881L301.193 63.2639L301.233 63.3019L301.082 63.4604L301.042 63.4224L300.589 63.8981L300.629 63.9361L300.478 64.0947L300.438 64.0567L299.985 64.5324L300.025 64.5704L299.874 64.729L299.834 64.691L299.381 65.1667L299.421 65.2047L299.27 65.3633L299.23 65.3253L298.778 65.801L298.817 65.839L298.666 65.9976L298.627 65.9596L298.174 66.4353L298.213 66.4733L298.062 66.6318L298.023 66.5938L297.57 67.0696L297.61 67.1076L297.459 67.2661L297.419 67.2281L296.966 67.7038L297.006 67.7418L296.855 67.9004L296.815 67.8624L296.362 68.3381L296.402 68.3761L296.251 68.5347L296.211 68.4967L295.758 68.9724L295.798 69.0104L295.647 69.169L295.607 69.131L295.154 69.6067L295.194 69.6447L295.043 69.8033L295.003 69.7653L294.55 70.241L294.59 70.279L294.439 70.4375L294.399 70.3995L293.946 70.8753L293.986 70.9133L293.835 71.0718L293.795 71.0338L293.342 71.5095L293.382 71.5475L293.231 71.7061L293.191 71.6681L292.738 72.1438L292.778 72.1818L292.627 72.3404L292.587 72.3024L292.134 72.7781L292.174 72.8161L292.023 72.9747L291.983 72.9367L291.53 73.4124L291.57 73.4504L291.419 73.609L291.379 73.571L290.926 74.0467L290.966 74.0847L290.815 74.2432L290.775 74.2052L290.322 74.681L290.362 74.7189L290.211 74.8775L290.171 74.8395L289.718 75.3152L289.758 75.3532L289.607 75.5118L289.567 75.4738L289.114 75.9495L289.154 75.9875L289.003 76.1461L288.963 76.1081L288.511 76.5838L288.55 76.6218L288.399 76.7804L288.36 76.7424L287.907 77.2181L287.947 77.2561L287.796 77.4147L287.756 77.3767L287.303 77.8524L287.343 77.8904L287.192 78.0489L287.152 78.0109L286.699 78.4867L286.739 78.5247L286.588 78.6832L286.548 78.6452L286.095 79.1209L286.135 79.1589L285.984 79.3175L285.944 79.2795L285.491 79.7552L285.531 79.7932L285.38 79.9518L285.34 79.9138L284.887 80.3895L284.927 80.4275L284.776 80.5861L284.736 80.5481L284.283 81.0238L284.323 81.0618L284.172 81.2204L284.132 81.1824L283.679 81.6581L283.719 81.6961L283.568 81.8546L283.528 81.8166L283.075 82.2924L283.115 82.3304L282.964 82.4889L282.924 82.4509L282.471 82.9266L282.511 82.9646L282.36 83.1232L282.32 83.0852L281.867 83.5609L281.907 83.5989L281.756 83.7575L281.716 83.7195L281.263 84.1952L281.303 84.2332L281.152 84.3918L281.112 84.3538L280.659 84.8295L280.699 84.8675L280.548 85.0261L280.508 84.9881L280.055 85.4638L280.095 85.5018L279.944 85.6603L279.904 85.6223L279.451 86.0981L279.491 86.136L279.34 86.2946L279.3 86.2566L279.114 86.4526L278.932 86.2611L278.892 86.2991L278.743 86.1435L278.783 86.1055L278.339 85.6388L278.299 85.6768L278.151 85.5213L278.191 85.4833L277.746 85.0165L277.706 85.0545L277.558 84.899L277.598 84.861L277.154 84.3942L277.114 84.4322L276.966 84.2767L277.005 84.2387L276.561 83.7719L276.521 83.81L276.373 83.6544L276.413 83.6164L275.968 83.1497L275.928 83.1877L275.78 83.0321L275.82 82.9941L275.376 82.5274L275.336 82.5654L275.188 82.4098L275.227 82.3718L274.783 81.9051L274.743 81.9431L274.595 81.7875L274.635 81.7495L274.19 81.2828L274.15 81.3208L274.002 81.1652L274.042 81.1272L273.598 80.6605L273.558 80.6985L273.41 80.5429L273.45 80.5049L273.005 80.0382L272.965 80.0762L272.817 79.9206L272.857 79.8826L272.412 79.4159L272.372 79.4539L272.224 79.2983L272.264 79.2603L271.82 78.7936L271.78 78.8316L271.632 78.6761L271.672 78.6381L271.227 78.1713L271.187 78.2093L271.039 78.0538L271.079 78.0158L270.634 77.549L270.595 77.587Z" stroke="#3D3B3B" stroke-opacity="0.9" stroke-width="0.110209" stroke-dasharray="0.66 0.22"/>
</g>
<g filter="url(#filter1_d_37_34)">
<path d="M55.9379 77.1976L26.7499 46.5721L55.9083 15.9467L47.0185 6.6123L9 46.5721L47.0482 86.532L55.9379 77.1976Z" fill="white"/>
<path d="M55.6758 77.393L55.7157 77.431L55.5675 77.5865L55.5276 77.5485L55.0831 78.0153L55.123 78.0533L54.9749 78.2088L54.935 78.1708L54.4905 78.6376L54.5304 78.6756L54.3822 78.8311L54.3423 78.7931L53.8978 79.2598L53.9377 79.2979L53.7896 79.4534L53.7497 79.4154L53.3052 79.8821L53.3451 79.9201L53.1969 80.0757L53.157 80.0377L52.7125 80.5044L52.7524 80.5424L52.6043 80.698L52.5644 80.66L52.1199 81.1267L52.1598 81.1647L52.0116 81.3203L51.9717 81.2823L51.5272 81.749L51.5671 81.787L51.419 81.9426L51.3791 81.9046L50.9346 82.3713L50.9745 82.4093L50.8263 82.5649L50.7864 82.5269L50.3419 82.9936L50.3818 83.0316L50.2337 83.1872L50.1938 83.1492L49.7493 83.6159L49.7892 83.6539L49.641 83.8095L49.6011 83.7715L49.1566 84.2382L49.1965 84.2762L49.0484 84.4317L49.0085 84.3937L48.564 84.8605L48.6039 84.8985L48.4557 85.054L48.4158 85.016L47.9713 85.4828L48.0112 85.5208L47.8631 85.6763L47.8232 85.6383L47.3787 86.105L47.4186 86.1431L47.2704 86.2986L47.2305 86.2606L47.0482 86.4521L46.8616 86.2562L46.8217 86.2942L46.6707 86.1356L46.7107 86.0976L46.2577 85.6219L46.2178 85.6599L46.0668 85.5013L46.1067 85.4633L45.6538 84.9876L45.6139 85.0256L45.4629 84.867L45.5028 84.829L45.0498 84.3533L45.0099 84.3913L44.8589 84.2327L44.8988 84.1947L44.4459 83.719L44.406 83.757L44.255 83.5984L44.2949 83.5605L43.8419 83.0847L43.802 83.1227L43.6511 82.9642L43.691 82.9262L43.238 82.4505L43.1981 82.4885L43.0471 82.3299L43.087 82.2919L42.6341 81.8162L42.5942 81.8542L42.4432 81.6956L42.4831 81.6576L42.0301 81.1819L41.9902 81.2199L41.8392 81.0613L41.8791 81.0233L41.4262 80.5476L41.3863 80.5856L41.2353 80.427L41.2752 80.389L40.8222 79.9133L40.7823 79.9513L40.6313 79.7927L40.6713 79.7547L40.2183 79.279L40.1784 79.317L40.0274 79.1585L40.0673 79.1205L39.6144 78.6448L39.5745 78.6827L39.4235 78.5242L39.4634 78.4862L39.0104 78.0105L38.9705 78.0485L38.8195 77.8899L38.8594 77.8519L38.4065 77.3762L38.3666 77.4142L38.2156 77.2556L38.2555 77.2176L37.8025 76.7419L37.7626 76.7799L37.6116 76.6213L37.6516 76.5833L37.1986 76.1076L37.1587 76.1456L37.0077 75.987L37.0476 75.949L36.5947 75.4733L36.5547 75.5113L36.4038 75.3528L36.4437 75.3148L35.9907 74.839L35.9508 74.877L35.7998 74.7185L35.8397 74.6805L35.3868 74.2048L35.3469 74.2428L35.1959 74.0842L35.2358 74.0462L34.7828 73.5705L34.7429 73.6085L34.5919 73.4499L34.6318 73.4119L34.1789 72.9362L34.139 72.9742L33.988 72.8156L34.0279 72.7776L33.575 72.3019L33.535 72.3399L33.3841 72.1813L33.424 72.1433L32.971 71.6676L32.9311 71.7056L32.7801 71.5471L32.82 71.509L32.3671 71.0333L32.3272 71.0713L32.1762 70.9128L32.2161 70.8748L31.7631 70.3991L31.7232 70.437L31.5722 70.2785L31.6121 70.2405L31.1592 69.7648L31.1193 69.8028L30.9683 69.6442L31.0082 69.6062L30.5553 69.1305L30.5153 69.1685L30.3644 69.0099L30.4043 68.9719L29.9513 68.4962L29.9114 68.5342L29.7604 68.3756L29.8003 68.3376L29.3474 67.8619L29.3075 67.8999L29.1565 67.7413L29.1964 67.7034L28.7434 67.2276L28.7035 67.2656L28.5525 67.1071L28.5924 67.0691L28.1395 66.5934L28.0996 66.6314L27.9486 66.4728L27.9885 66.4348L27.5356 65.9591L27.4956 65.9971L27.3447 65.8385L27.3846 65.8005L26.9316 65.3248L26.8917 65.3628L26.7407 65.2042L26.7806 65.1662L26.3277 64.6905L26.2878 64.7285L26.1368 64.5699L26.1767 64.5319L25.7237 64.0562L25.6838 64.0942L25.5328 63.9356L25.5728 63.8977L25.1198 63.4219L25.0799 63.4599L24.9289 63.3014L24.9688 63.2634L24.5159 62.7877L24.4759 62.8257L24.325 62.6671L24.3649 62.6291L23.9119 62.1534L23.872 62.1914L23.721 62.0328L23.7609 61.9948L23.308 61.5191L23.2681 61.5571L23.1171 61.3985L23.157 61.3605L22.704 60.8848L22.6641 60.9228L22.5131 60.7642L22.5531 60.7262L22.1001 60.2505L22.0602 60.2885L21.9092 60.13L21.9491 60.092L21.4962 59.6162L21.4563 59.6542L21.3053 59.4957L21.3452 59.4577L20.8922 58.982L20.8523 59.02L20.7013 58.8614L20.7412 58.8234L20.2883 58.3477L20.2484 58.3857L20.0974 58.2271L20.1373 58.1891L19.6843 57.7134L19.6444 57.7514L19.4935 57.5928L19.5334 57.5548L19.0804 57.0791L19.0405 57.1171L18.8895 56.9585L18.9294 56.9205L18.4765 56.4448L18.4366 56.4828L18.2856 56.3243L18.3255 56.2863L17.8725 55.8105L17.8326 55.8485L17.6816 55.69L17.7215 55.652L17.2686 55.1763L17.2287 55.2143L17.0777 55.0557L17.1176 55.0177L16.6646 54.542L16.6247 54.58L16.4738 54.4214L16.5137 54.3834L16.0607 53.9077L16.0208 53.9457L15.8698 53.7871L15.9097 53.7491L15.4568 53.2734L15.4169 53.3114L15.2659 53.1528L15.3058 53.1148L14.8528 52.6391L14.8129 52.6771L14.6619 52.5186L14.7018 52.4806L14.2489 52.0048L14.209 52.0428L14.058 51.8843L14.0979 51.8463L13.6449 51.3706L13.605 51.4086L13.4541 51.25L13.494 51.212L13.041 50.7363L13.0011 50.7743L12.8501 50.6157L12.89 50.5777L12.4371 50.102L12.3972 50.14L12.2462 49.9814L12.2861 49.9434L11.8331 49.4677L11.7932 49.5057L11.6422 49.3471L11.6821 49.3091L11.2292 48.8334L11.1893 48.8714L11.0383 48.7129L11.0782 48.6749L10.6252 48.1991L10.5853 48.2371L10.4344 48.0786L10.4743 48.0406L10.0213 47.5649L9.9814 47.6029L9.83042 47.4443L9.87032 47.4063L9.41737 46.9306L9.37746 46.9686L9.22648 46.81L9.26638 46.772L9.07607 46.5721L9.26626 46.3722L9.22633 46.3343L9.3772 46.1757L9.41712 46.2137L9.86972 45.738L9.8298 45.7L9.98067 45.5414L10.0206 45.5794L10.4732 45.1037L10.4333 45.0657L10.5841 44.9071L10.6241 44.9451L11.0767 44.4694L11.0367 44.4314L11.1876 44.2728L11.2275 44.3108L11.6801 43.8351L11.6402 43.7971L11.7911 43.6386L11.831 43.6765L12.2836 43.2008L12.2437 43.1628L12.3945 43.0043L12.4345 43.0423L12.8871 42.5665L12.8471 42.5286L12.998 42.37L13.0379 42.408L13.4905 41.9323L13.4506 41.8943L13.6015 41.7357L13.6414 41.7737L14.094 41.298L14.0541 41.26L14.2049 41.1014L14.2449 41.1394L14.6975 40.6637L14.6575 40.6257L14.8084 40.4671L14.8483 40.5051L15.3009 40.0294L15.261 39.9914L15.4119 39.8329L15.4518 39.8708L15.9044 39.3951L15.8645 39.3572L16.0153 39.1986L16.0553 39.2366L16.5079 38.7609L16.4679 38.7229L16.6188 38.5643L16.6587 38.6023L17.1113 38.1266L17.0714 38.0886L17.2223 37.93L17.2622 37.968L17.7148 37.4923L17.6749 37.4543L17.8257 37.2957L17.8657 37.3337L18.3183 36.858L18.2783 36.82L18.4292 36.6615L18.4691 36.6994L18.9217 36.2237L18.8818 36.1857L19.0327 36.0272L19.0726 36.0652L19.5252 35.5894L19.4853 35.5515L19.6361 35.3929L19.6761 35.4309L20.1287 34.9552L20.0887 34.9172L20.2396 34.7586L20.2795 34.7966L20.7321 34.3209L20.6922 34.2829L20.8431 34.1243L20.883 34.1623L21.3356 33.6866L21.2957 33.6486L21.4465 33.49L21.4865 33.528L21.9391 33.0523L21.8991 33.0143L22.05 32.8558L22.0899 32.8937L22.5425 32.418L22.5026 32.3801L22.6535 32.2215L22.6934 32.2595L23.146 31.7838L23.1061 31.7458L23.2569 31.5872L23.2969 31.6252L23.7495 31.1495L23.7095 31.1115L23.8604 30.9529L23.9003 30.9909L24.3529 30.5152L24.313 30.4772L24.4639 30.3186L24.5038 30.3566L24.9564 29.8809L24.9165 29.8429L25.0674 29.6844L25.1073 29.7223L25.5599 29.2466L25.52 29.2086L25.6708 29.0501L25.7107 29.0881L26.1633 28.6123L26.1234 28.5744L26.2743 28.4158L26.3142 28.4538L26.7668 27.9781L26.7269 27.9401L26.8778 27.7815L26.9177 27.8195L27.3703 27.3438L27.3304 27.3058L27.4812 27.1472L27.5211 27.1852L27.9737 26.7095L27.9338 26.6715L28.0847 26.5129L28.1246 26.5509L28.5772 26.0752L28.5373 26.0372L28.6882 25.8787L28.7281 25.9166L29.1807 25.4409L29.1408 25.4029L29.2916 25.2444L29.3316 25.2824L29.7842 24.8066L29.7442 24.7687L29.8951 24.6101L29.935 24.6481L30.3876 24.1724L30.3477 24.1344L30.4986 23.9758L30.5385 24.0138L30.9911 23.5381L30.9512 23.5001L31.102 23.3415L31.142 23.3795L31.5946 22.9038L31.5546 22.8658L31.7055 22.7072L31.7454 22.7452L32.198 22.2695L32.1581 22.2315L32.309 22.073L32.3489 22.1109L32.8015 21.6352L32.7616 21.5972L32.9124 21.4387L32.9524 21.4767L33.405 21.0009L33.365 20.963L33.5159 20.8044L33.5558 20.8424L34.0084 20.3667L33.9685 20.3287L34.1194 20.1701L34.1593 20.2081L34.6119 19.7324L34.572 19.6944L34.7228 19.5358L34.7628 19.5738L35.2154 19.0981L35.1755 19.0601L35.3263 18.9015L35.3662 18.9395L35.8188 18.4638L35.7789 18.4258L35.9298 18.2673L35.9697 18.3052L36.4223 17.8295L36.3824 17.7915L36.5333 17.633L36.5732 17.671L37.0258 17.1952L36.9859 17.1573L37.1367 16.9987L37.1766 17.0367L37.6292 16.561L37.5893 16.523L37.7402 16.3644L37.7801 16.4024L38.2327 15.9267L38.1928 15.8887L38.3437 15.7301L38.3836 15.7681L38.8362 15.2924L38.7963 15.2544L38.9471 15.0958L38.987 15.1338L39.4396 14.6581L39.3997 14.6201L39.5506 14.4616L39.5905 14.4995L40.0431 14.0238L40.0032 13.9858L40.1541 13.8273L40.194 13.8653L40.6466 13.3895L40.6067 13.3516L40.7575 13.193L40.7975 13.231L41.2501 12.7553L41.2101 12.7173L41.361 12.5587L41.4009 12.5967L41.8535 12.121L41.8136 12.083L41.9645 11.9244L42.0044 11.9624L42.457 11.4867L42.4171 11.4487L42.5679 11.2901L42.6079 11.3281L43.0605 10.8524L43.0205 10.8144L43.1714 10.6559L43.2113 10.6938L43.6639 10.2181L43.624 10.1801L43.7749 10.0216L43.8148 10.0596L44.2674 9.58385L44.2275 9.54587L44.3783 9.38729L44.4183 9.42528L44.8709 8.94956L44.8309 8.91158L44.9818 8.75301L45.0217 8.79099L45.4743 8.31528L45.4344 8.2773L45.5853 8.11873L45.6252 8.15671L46.0778 7.681L46.0379 7.64302L46.1887 7.48444L46.2287 7.52243L46.6813 7.04671L46.6413 7.00873L46.7922 6.85016L46.8321 6.88814L47.0185 6.69223L47.2009 6.88367L47.2408 6.84566L47.3889 7.00124L47.349 7.03924L47.7935 7.50596L47.8334 7.46795L47.9816 7.62353L47.9417 7.66153L48.3862 8.12825L48.4261 8.09024L48.5742 8.24582L48.5343 8.28382L48.9788 8.75054L49.0187 8.71254L49.1669 8.86811L49.127 8.90611L49.5715 9.37283L49.6114 9.33483L49.7595 9.4904L49.7196 9.5284L50.1641 9.99512L50.204 9.95712L50.3522 10.1127L50.3123 10.1507L50.7568 10.6174L50.7967 10.5794L50.9448 10.735L50.9049 10.773L51.3494 11.2397L51.3893 11.2017L51.5375 11.3573L51.4976 11.3953L51.9421 11.862L51.982 11.824L52.1301 11.9796L52.0902 12.0176L52.5347 12.4843L52.5746 12.4463L52.7228 12.6019L52.6829 12.6399L53.1274 13.1066L53.1673 13.0686L53.3154 13.2241L53.2755 13.2621L53.72 13.7289L53.7599 13.6909L53.9081 13.8464L53.8682 13.8844L54.3127 14.3512L54.3526 14.3132L54.5007 14.4687L54.4608 14.5067L54.9053 14.9734L54.9452 14.9354L55.0934 15.091L55.0535 15.129L55.498 15.5957L55.5379 15.5577L55.686 15.7133L55.6461 15.7513L55.8322 15.9467L55.6406 16.1479L55.6805 16.1859L55.5286 16.3454L55.4887 16.3074L55.0331 16.7859L55.073 16.8239L54.9212 16.9834L54.8813 16.9455L54.4257 17.424L54.4656 17.462L54.3137 17.6215L54.2738 17.5835L53.8182 18.062L53.8581 18.1L53.7062 18.2595L53.6663 18.2215L53.2107 18.7L53.2506 18.738L53.0988 18.8975L53.0588 18.8595L52.6032 19.3381L52.6432 19.3761L52.4913 19.5356L52.4514 19.4976L51.9958 19.9761L52.0357 20.0141L51.8838 20.1736L51.8439 20.1356L51.3883 20.6141L51.4282 20.6521L51.2764 20.8116L51.2364 20.7736L50.7808 21.2522L50.8208 21.2902L50.6689 21.4497L50.629 21.4117L50.1734 21.8902L50.2133 21.9282L50.0614 22.0877L50.0215 22.0497L49.5659 22.5282L49.6058 22.5662L49.4539 22.7257L49.414 22.6877L48.9584 23.1663L48.9983 23.2043L48.8465 23.3638L48.8066 23.3258L48.351 23.8043L48.3909 23.8423L48.239 24.0018L48.1991 23.9638L47.7435 24.4423L47.7834 24.4803L47.6315 24.6398L47.5916 24.6018L47.136 25.0804L47.1759 25.1183L47.0241 25.2779L46.9842 25.2399L46.5286 25.7184L46.5685 25.7564L46.4166 25.9159L46.3767 25.8779L45.9211 26.3564L45.961 26.3944L45.8091 26.5539L45.7692 26.5159L45.3136 26.9944L45.3535 27.0324L45.2017 27.192L45.1618 27.154L44.7062 27.6325L44.7461 27.6705L44.5942 27.83L44.5543 27.792L44.0987 28.2705L44.1386 28.3085L43.9867 28.468L43.9468 28.43L43.4912 28.9085L43.5311 28.9465L43.3793 29.106L43.3394 29.0681L42.8838 29.5466L42.9237 29.5846L42.7718 29.7441L42.7319 29.7061L42.2763 30.1846L42.3162 30.2226L42.1643 30.3821L42.1244 30.3441L41.6688 30.8226L41.7087 30.8606L41.5569 31.0201L41.517 30.9821L41.0614 31.4607L41.1013 31.4987L40.9494 31.6582L40.9095 31.6202L40.4539 32.0987L40.4938 32.1367L40.3419 32.2962L40.302 32.2582L39.8464 32.7367L39.8863 32.7747L39.7345 32.9342L39.6946 32.8962L39.239 33.3748L39.2789 33.4128L39.127 33.5723L39.0871 33.5343L38.6315 34.0128L38.6714 34.0508L38.5195 34.2103L38.4796 34.1723L38.024 34.6508L38.0639 34.6888L37.9121 34.8483L37.8722 34.8103L37.4166 35.2889L37.4565 35.3269L37.3046 35.4864L37.2647 35.4484L36.8091 35.9269L36.849 35.9649L36.6971 36.1244L36.6572 36.0864L36.2016 36.5649L36.2415 36.6029L36.0897 36.7624L36.0498 36.7244L35.5942 37.2029L35.6341 37.2409L35.4822 37.4005L35.4423 37.3625L34.9867 37.841L35.0266 37.879L34.8747 38.0385L34.8348 38.0005L34.3792 38.479L34.4191 38.517L34.2673 38.6765L34.2274 38.6385L33.7718 39.117L33.8117 39.155L33.6598 39.3145L33.6199 39.2765L33.1643 39.7551L33.2042 39.7931L33.0523 39.9526L33.0124 39.9146L32.5568 40.3931L32.5967 40.4311L32.4449 40.5906L32.4049 40.5526L31.9493 41.0311L31.9893 41.0691L31.8374 41.2286L31.7975 41.1906L31.3419 41.6692L31.3818 41.7072L31.2299 41.8667L31.19 41.8287L30.7344 42.3072L30.7743 42.3452L30.6225 42.5047L30.5825 42.4667L30.1269 42.9452L30.1669 42.9832L30.015 43.1427L29.9751 43.1047L29.5195 43.5833L29.5594 43.6213L29.4075 43.7808L29.3676 43.7428L28.912 44.2213L28.9519 44.2593L28.8001 44.4188L28.7601 44.3808L28.3045 44.8593L28.3445 44.8973L28.1926 45.0568L28.1527 45.0188L27.6971 45.4973L27.737 45.5353L27.5851 45.6949L27.5452 45.6569L27.0896 46.1354L27.1295 46.1734L26.9777 46.3329L26.9377 46.2949L26.7099 46.5341L26.6737 46.5722L26.71 46.6102L26.938 46.8494L26.9779 46.8114L27.1299 46.9709L27.09 47.0089L27.5461 47.4874L27.586 47.4494L27.738 47.6089L27.6981 47.6469L28.1541 48.1255L28.194 48.0875L28.3461 48.247L28.3062 48.285L28.7622 48.7635L28.8021 48.7255L28.9541 48.885L28.9143 48.923L29.3703 49.4015L29.4102 49.3635L29.5622 49.523L29.5223 49.561L29.9784 50.0396L30.0183 50.0015L30.1703 50.1611L30.1304 50.1991L30.5865 50.6776L30.6264 50.6396L30.7784 50.7991L30.7385 50.8371L31.1946 51.3156L31.2345 51.2776L31.3865 51.4371L31.3466 51.4751L31.8027 51.9537L31.8426 51.9156L31.9946 52.0752L31.9547 52.1132L32.4108 52.5917L32.4506 52.5537L32.6027 52.7132L32.5628 52.7512L33.0188 53.2297L33.0587 53.1917L33.2108 53.3512L33.1709 53.3892L33.6269 53.8678L33.6668 53.8297L33.8188 53.9893L33.7789 54.0273L34.235 54.5058L34.2749 54.4678L34.4269 54.6273L34.387 54.6653L34.8431 55.1438L34.883 55.1058L35.035 55.2653L34.9951 55.3033L35.4512 55.7819L35.4911 55.7438L35.6431 55.9033L35.6032 55.9414L36.0593 56.4199L36.0992 56.3819L36.2512 56.5414L36.2113 56.5794L36.6674 57.0579L36.7072 57.0199L36.8593 57.1794L36.8194 57.2174L37.2754 57.6959L37.3153 57.6579L37.4674 57.8174L37.4275 57.8555L37.8835 58.334L37.9234 58.296L38.0754 58.4555L38.0355 58.4935L38.4916 58.972L38.5315 58.934L38.6835 59.0935L38.6436 59.1315L39.0997 59.61L39.1396 59.572L39.2916 59.7315L39.2517 59.7695L39.7078 60.2481L39.7477 60.2101L39.8997 60.3696L39.8598 60.4076L40.3159 60.8861L40.3558 60.8481L40.5078 61.0076L40.4679 61.0456L40.924 61.5241L40.9638 61.4861L41.1159 61.6456L41.076 61.6836L41.532 62.1622L41.5719 62.1241L41.7239 62.2837L41.6841 62.3217L42.1401 62.8002L42.18 62.7622L42.332 62.9217L42.2921 62.9597L42.7482 63.4382L42.7881 63.4002L42.9401 63.5597L42.9002 63.5977L43.3563 64.0763L43.3962 64.0382L43.5482 64.1977L43.5083 64.2358L43.9644 64.7143L44.0043 64.6763L44.1563 64.8358L44.1164 64.8738L44.5725 65.3523L44.6124 65.3143L44.7644 65.4738L44.7245 65.5118L45.1805 65.9903L45.2204 65.9523L45.3725 66.1118L45.3326 66.1499L45.7886 66.6284L45.8285 66.5904L45.9805 66.7499L45.9407 66.7879L46.3967 67.2664L46.4366 67.2284L46.5886 67.3879L46.5487 67.4259L47.0048 67.9044L47.0447 67.8664L47.1967 68.0259L47.1568 68.0639L47.6129 68.5425L47.6528 68.5045L47.8048 68.664L47.7649 68.702L48.221 69.1805L48.2609 69.1425L48.4129 69.302L48.373 69.34L48.8291 69.8185L48.8689 69.7805L49.021 69.94L48.9811 69.978L49.4371 70.4566L49.477 70.4185L49.6291 70.578L49.5892 70.6161L50.0452 71.0946L50.0851 71.0566L50.2371 71.2161L50.1972 71.2541L50.6533 71.7326L50.6932 71.6946L50.8452 71.8541L50.8053 71.8921L51.2614 72.3707L51.3013 72.3326L51.4533 72.4921L51.4134 72.5302L51.8695 73.0087L51.9094 72.9707L52.0614 73.1302L52.0215 73.1682L52.4776 73.6467L52.5175 73.6087L52.6695 73.7682L52.6296 73.8062L53.0857 74.2847L53.1255 74.2467L53.2776 74.4062L53.2377 74.4443L53.6937 74.9228L53.7336 74.8848L53.8856 75.0443L53.8458 75.0823L54.3018 75.5608L54.3417 75.5228L54.4937 75.6823L54.4538 75.7203L54.9099 76.1988L54.9498 76.1608L55.1018 76.3203L55.0619 76.3583L55.518 76.8369L55.5579 76.7989L55.7099 76.9584L55.67 76.9964L55.8618 77.1976L55.6758 77.393Z" stroke="#3D3B3B" stroke-opacity="0.9" stroke-width="0.110209" stroke-dasharray="0.66 0.22"/>
</g>
<g filter="url(#filter2_d_37_34)">
<path d="M96.3924 57V56.3387L98.6407 55.8362V37.9956L96.3924 37.493V36.8582H102.992C104.402 36.8582 105.615 36.92 106.629 37.0434C107.651 37.1668 108.542 37.3696 109.3 37.6517C110.067 37.9251 110.759 38.2954 111.376 38.7626C112.576 39.6531 113.501 40.8125 114.154 42.2408C114.806 43.6603 115.132 45.2341 115.132 46.9622C115.132 48.7432 114.784 50.3831 114.088 51.8819C113.391 53.3719 112.43 54.5622 111.205 55.4527C110.429 56.0081 109.582 56.4049 108.665 56.6429C107.748 56.881 106.629 57 105.306 57H96.3924ZM104.327 55.9552C105.579 55.9552 106.607 55.7965 107.409 55.4791C108.211 55.1529 108.921 54.6195 109.538 53.8789C110.217 53.0325 110.733 51.9965 111.085 50.771C111.447 49.5367 111.628 48.1745 111.628 46.6845C111.628 45.1944 111.447 43.8763 111.085 42.7302C110.724 41.584 110.191 40.623 109.485 39.8471C108.842 39.1682 108.075 38.6833 107.184 38.3923C106.294 38.0926 105.139 37.9427 103.719 37.9427H101.616V54.3814C101.616 54.9722 101.815 55.3821 102.211 55.6114C102.608 55.8406 103.314 55.9552 104.327 55.9552ZM117.547 57V56.3652L119.796 55.8362V37.9956L117.547 37.493V36.8582H132.307L132.769 42.6111H132.068C131.857 41.8705 131.597 41.0947 131.288 40.2835C130.988 39.4636 130.618 38.6833 130.177 37.9427H122.771V55.9023H130.045C130.565 55.0559 130.988 54.2183 131.315 53.3896C131.65 52.5608 131.967 51.7232 132.267 50.8768H133.193L132.201 57H117.547ZM128.26 50.0436C128.171 49.5146 128.048 48.99 127.889 48.4698C127.731 47.9497 127.523 47.4339 127.268 46.9225H122.401V45.8248H127.268C127.523 45.3046 127.726 44.7845 127.876 44.2643C128.035 43.7353 128.163 43.2151 128.26 42.7037H128.947V50.0436H128.26ZM143.89 57.2777L136.974 39.0933C136.833 38.6965 136.67 38.3923 136.484 38.1807C136.308 37.9603 136.052 37.8016 135.717 37.7046C135.382 37.6077 134.911 37.5371 134.302 37.493V36.8582H143.097V37.493C142.162 37.5459 141.488 37.6165 141.073 37.7046C140.668 37.784 140.443 37.9339 140.399 38.1543C140.364 38.3659 140.425 38.7053 140.584 39.1726L145.028 51.9613L145.186 51.948L149.247 40.3497C149.476 39.7149 149.56 39.2123 149.498 38.842C149.436 38.4717 149.189 38.1852 148.757 37.9824C148.334 37.7796 147.686 37.6165 146.813 37.493V36.8582H154.272V37.493C153.364 37.6253 152.676 37.7972 152.209 38.0088C151.751 38.2204 151.407 38.5158 151.177 38.8949C150.948 39.2652 150.723 39.7678 150.503 40.4026L144.433 57.2777H143.89ZM170.664 57.2777C168.768 57.2777 167.097 56.8457 165.651 55.9817C164.214 55.1176 163.09 53.9186 162.279 52.3845C161.477 50.8415 161.076 49.065 161.076 47.0548C161.076 45.5207 161.309 44.1144 161.776 42.836C162.253 41.5575 162.923 40.451 163.787 39.5165C164.651 38.5819 165.673 37.8589 166.855 37.3476C168.036 36.8362 169.332 36.5805 170.743 36.5805C171.783 36.5805 172.793 36.7216 173.772 37.0037C174.759 37.277 175.65 37.6738 176.443 38.194H176.549L177.818 36.8582H178.334V42.9285H177.475C177.325 42.4436 177.157 42.0072 176.972 41.6193C176.796 41.2313 176.606 40.8743 176.403 40.548C175.786 39.5606 175.059 38.8552 174.221 38.432C173.384 38.0088 172.387 37.7972 171.232 37.7972C169.099 37.7972 167.454 38.5775 166.299 40.1381C165.153 41.6986 164.58 43.9381 164.58 46.8564C164.58 49.7747 165.158 52.0318 166.313 53.6276C167.476 55.2234 169.116 56.0213 171.232 56.0213C172.282 56.0213 173.229 55.8142 174.076 55.3998C174.922 54.9766 175.628 54.3594 176.192 53.5483C176.518 53.0898 176.796 52.5696 177.025 51.9877C177.263 51.4058 177.444 50.771 177.567 50.0833H178.334V57H177.66L176.47 55.2807C175.535 55.9773 174.6 56.4842 173.666 56.8016C172.74 57.119 171.739 57.2777 170.664 57.2777ZM191.017 57.2777C189.624 57.2777 188.341 57.0176 187.169 56.4974C186.005 55.9684 184.991 55.2367 184.127 54.3021C183.272 53.3587 182.606 52.261 182.13 51.0091C181.663 49.7483 181.429 48.3861 181.429 46.9225C181.429 45.4501 181.663 44.0879 182.13 42.836C182.606 41.584 183.272 40.4907 184.127 39.5562C184.991 38.6128 186.005 37.881 187.169 37.3608C188.341 36.8406 189.624 36.5805 191.017 36.5805C192.41 36.5805 193.693 36.8406 194.866 37.3608C196.038 37.881 197.052 38.6128 197.908 39.5562C198.772 40.4907 199.442 41.584 199.918 42.836C200.394 44.0879 200.632 45.4501 200.632 46.9225C200.632 48.3861 200.394 49.7483 199.918 51.0091C199.442 52.261 198.772 53.3587 197.908 54.3021C197.052 55.2367 196.038 55.9684 194.866 56.4974C193.693 57.0176 192.41 57.2777 191.017 57.2777ZM191.017 56.0346C191.802 56.0346 192.512 55.8935 193.147 55.6114C193.79 55.3292 194.354 54.9237 194.839 54.3947C195.333 53.8568 195.747 53.2132 196.082 52.4638C196.418 51.7144 196.669 50.868 196.836 49.9246C197.004 48.9812 197.088 47.9585 197.088 46.8564C197.088 45.7719 197.004 44.7668 196.836 43.8411C196.669 42.9065 196.422 42.0689 196.096 41.3283C195.77 40.5877 195.36 39.9573 194.866 39.4371C194.381 38.9081 193.817 38.507 193.173 38.2336C192.538 37.9515 191.828 37.8104 191.044 37.8104C190.259 37.8104 189.545 37.9515 188.901 38.2336C188.258 38.507 187.689 38.9081 187.195 39.4371C186.71 39.9661 186.3 40.6053 185.965 41.3548C185.639 42.0954 185.392 42.933 185.225 43.8675C185.057 44.8021 184.973 45.816 184.973 46.9093C184.973 48.0026 185.057 49.0165 185.225 49.951C185.392 50.8856 185.639 51.7276 185.965 52.477C186.3 53.2265 186.71 53.8657 187.195 54.3947C187.68 54.9237 188.24 55.3292 188.875 55.6114C189.518 55.8935 190.233 56.0346 191.017 56.0346ZM202.968 57V56.3387L205.216 55.8362V37.9956L202.968 37.493V36.8582H209.567C210.978 36.8582 212.19 36.92 213.204 37.0434C214.227 37.1668 215.117 37.3696 215.875 37.6517C216.642 37.9251 217.335 38.2954 217.952 38.7626C219.151 39.6531 220.077 40.8125 220.729 42.2408C221.381 43.6603 221.708 45.2341 221.708 46.9622C221.708 48.7432 221.359 50.3831 220.663 51.8819C219.966 53.3719 219.005 54.5622 217.78 55.4527C217.004 56.0081 216.158 56.4049 215.241 56.6429C214.324 56.881 213.204 57 211.881 57H202.968ZM210.903 55.9552C212.155 55.9552 213.182 55.7965 213.984 55.4791C214.787 55.1529 215.496 54.6195 216.113 53.8789C216.792 53.0325 217.308 51.9965 217.661 50.771C218.022 49.5367 218.203 48.1745 218.203 46.6845C218.203 45.1944 218.022 43.8763 217.661 42.7302C217.299 41.584 216.766 40.623 216.061 39.8471C215.417 39.1682 214.65 38.6833 213.759 38.3923C212.869 38.0926 211.714 37.9427 210.294 37.9427H208.192V54.3814C208.192 54.9722 208.39 55.3821 208.787 55.6114C209.184 55.8406 209.889 55.9552 210.903 55.9552ZM224.123 57V56.3652L226.371 55.8362V37.9956L224.123 37.493V36.8582H238.882L239.345 42.6111H238.644C238.432 41.8705 238.172 41.0947 237.864 40.2835C237.564 39.4636 237.193 38.6833 236.753 37.9427H229.347V55.9023H236.62C237.141 55.0559 237.564 54.2183 237.89 53.3896C238.225 52.5608 238.542 51.7232 238.842 50.8768H239.768L238.776 57H224.123ZM234.835 50.0436C234.747 49.5146 234.623 48.99 234.465 48.4698C234.306 47.9497 234.099 47.4339 233.843 46.9225H228.976V45.8248H233.843C234.099 45.3046 234.302 44.7845 234.451 44.2643C234.61 43.7353 234.738 43.2151 234.835 42.7037H235.523V50.0436H234.835Z" fill="white"/>
<path d="M96.3924 57H96.3814V57.011H96.3924V57ZM96.3924 56.3387L96.3814 56.2894V56.3387H96.3924ZM98.6407 55.8362L98.6517 55.8855V55.8362H98.6407ZM98.6407 37.9956H98.6912L98.6431 37.9848L98.6407 37.9956ZM96.3924 37.493H96.3419L96.39 37.5038L96.3924 37.493ZM96.3924 36.8582V36.8472H96.3814V36.8582H96.3924ZM106.629 37.0434L106.627 37.0543H106.627L106.629 37.0434ZM109.3 37.6517L109.296 37.6621L109.296 37.6621L109.3 37.6517ZM111.376 38.7626L111.37 38.7714L111.37 38.7715L111.376 38.7626ZM114.154 42.2408L114.144 42.2454L114.144 42.2454L114.154 42.2408ZM114.088 51.8819L114.098 51.8866L114.098 51.8865L114.088 51.8819ZM111.205 55.4527L111.211 55.4616L111.211 55.4616L111.205 55.4527ZM108.665 56.6429L108.668 56.6536L108.665 56.6429ZM107.409 55.4791L107.413 55.4894L107.413 55.4893L107.409 55.4791ZM109.538 53.8789L109.547 53.8859L109.547 53.8858L109.538 53.8789ZM111.085 50.771L111.075 50.7679L111.075 50.768L111.085 50.771ZM111.085 42.7302L111.075 42.7335L111.085 42.7302ZM109.485 39.8471L109.493 39.8397L109.493 39.8395L109.485 39.8471ZM107.184 38.3923L107.181 38.4028L107.181 38.4028L107.184 38.3923ZM101.616 37.9427V37.9317H101.605V37.9427H101.616ZM102.211 55.6114L102.206 55.6209L102.211 55.6114ZM96.4035 57V56.3387H96.3814V57H96.4035ZM96.3949 56.3495L98.6431 55.847L98.6383 55.8254L96.39 56.328L96.3949 56.3495ZM98.6517 55.8362V37.9956H98.6297V55.8362H98.6517ZM98.6431 37.9848L96.3949 37.4823L96.39 37.5038L98.6383 38.0064L98.6431 37.9848ZM96.4035 37.493V36.8582H96.3814V37.493H96.4035ZM96.3924 36.8693H102.992V36.8472H96.3924V36.8693ZM102.992 36.8693C104.402 36.8693 105.614 36.931 106.627 37.0543L106.63 37.0325C105.615 36.9089 104.403 36.8472 102.992 36.8472V36.8693ZM106.627 37.0543C107.649 37.1777 108.539 37.3803 109.296 37.6621L109.304 37.6414C108.545 37.3589 107.653 37.156 106.63 37.0325L106.627 37.0543ZM109.296 37.6621C110.062 37.9351 110.754 38.3049 111.37 38.7714L111.383 38.7539C110.765 38.2859 110.072 37.915 109.304 37.6414L109.296 37.6621ZM111.37 38.7715C112.567 39.6608 113.492 40.8187 114.144 42.2454L114.164 42.2363C113.511 40.8064 112.584 39.6455 111.383 38.7538L111.37 38.7715ZM114.144 42.2454C114.795 43.6633 115.121 45.2355 115.121 46.9622H115.143C115.143 45.2327 114.817 43.6573 114.164 42.2362L114.144 42.2454ZM115.121 46.9622C115.121 48.7417 114.773 50.38 114.078 51.8773L114.098 51.8865C114.795 50.3861 115.143 48.7446 115.143 46.9622H115.121ZM114.078 51.8772C113.382 53.3657 112.422 54.5545 111.198 55.4438L111.211 55.4616C112.438 54.5699 113.4 53.3781 114.098 51.8866L114.078 51.8772ZM111.198 55.4437C110.423 55.9984 109.578 56.3945 108.663 56.6323L108.668 56.6536C109.586 56.4152 110.434 56.0179 111.211 55.4616L111.198 55.4437ZM108.663 56.6323C107.747 56.87 106.628 56.989 105.306 56.989V57.011C106.629 57.011 107.75 56.8919 108.668 56.6536L108.663 56.6323ZM105.306 56.989H96.3924V57.011H105.306V56.989ZM104.327 55.9662C105.58 55.9662 106.609 55.8075 107.413 55.4894L107.405 55.4689C106.604 55.7856 105.579 55.9442 104.327 55.9442V55.9662ZM107.413 55.4893C108.217 55.1624 108.928 54.6278 109.547 53.8859L109.53 53.8718C108.914 54.6112 108.205 55.1434 107.405 55.4689L107.413 55.4893ZM109.547 53.8858C110.227 53.0381 110.743 52.0007 111.096 50.774L111.075 50.768C110.723 51.9923 110.207 53.0269 109.53 53.872L109.547 53.8858ZM111.096 50.7741C111.458 49.5386 111.639 48.1754 111.639 46.6845H111.617C111.617 48.1736 111.436 49.5347 111.075 50.7679L111.096 50.7741ZM111.639 46.6845C111.639 45.1936 111.458 43.8743 111.096 42.7269L111.075 42.7335C111.436 43.8784 111.617 45.1953 111.617 46.6845H111.639ZM111.096 42.7269C110.734 41.5794 110.2 40.6169 109.493 39.8397L109.477 39.8545C110.181 40.629 110.714 41.5886 111.075 42.7335L111.096 42.7269ZM109.493 39.8395C108.848 39.1593 108.08 38.6734 107.188 38.3819L107.181 38.4028C108.069 38.6932 108.835 39.1771 109.477 39.8547L109.493 39.8395ZM107.188 38.3819C106.296 38.0816 105.139 37.9317 103.719 37.9317V37.9537C105.138 37.9537 106.292 38.1035 107.181 38.4028L107.188 38.3819ZM103.719 37.9317H101.616V37.9537H103.719V37.9317ZM101.605 37.9427V54.3814H101.627V37.9427H101.605ZM101.605 54.3814C101.605 54.9748 101.805 55.3891 102.206 55.6209L102.217 55.6018C101.825 55.3751 101.627 54.9695 101.627 54.3814H101.605ZM102.206 55.6209C102.605 55.8517 103.313 55.9662 104.327 55.9662V55.9442C103.314 55.9442 102.611 55.8295 102.217 55.6018L102.206 55.6209ZM117.547 57H117.536V57.011H117.547V57ZM117.547 56.3652L117.536 56.3184V56.3652H117.547ZM119.796 55.8362L119.807 55.883V55.8362H119.796ZM119.796 37.9956H119.846L119.798 37.9848L119.796 37.9956ZM117.547 37.493H117.497L117.545 37.5038L117.547 37.493ZM117.547 36.8582V36.8472H117.536V36.8582H117.547ZM132.307 36.8582L132.318 36.8574L132.317 36.8472H132.307V36.8582ZM132.769 42.6111V42.6222H132.781L132.78 42.6103L132.769 42.6111ZM132.068 42.6111L132.03 42.6222H132.068V42.6111ZM131.288 40.2835L131.278 40.2873L131.278 40.2874L131.288 40.2835ZM130.177 37.9427L130.196 37.9317H130.177V37.9427ZM122.771 37.9427V37.9317H122.76V37.9427H122.771ZM122.771 55.9023H122.76V55.9133H122.771V55.9023ZM130.045 55.9023V55.9234L130.054 55.9081L130.045 55.9023ZM131.315 53.3896L131.304 53.3854L131.304 53.3855L131.315 53.3896ZM132.267 50.8768V50.8438L132.256 50.8731L132.267 50.8768ZM133.193 50.8768L133.203 50.8786L133.206 50.8658H133.193V50.8768ZM132.201 57V57.011H132.21L132.212 57.0018L132.201 57ZM128.26 50.0436L128.249 50.0454L128.25 50.0546H128.26V50.0436ZM127.268 46.9225L127.29 46.9115H127.268V46.9225ZM122.401 46.9225H122.39V46.9335H122.401V46.9225ZM122.401 45.8248V45.8138H122.39V45.8248H122.401ZM127.268 45.8248V45.8498L127.278 45.8297L127.268 45.8248ZM127.876 44.2643L127.866 44.2611L127.866 44.2612L127.876 44.2643ZM128.26 42.7037V42.6446L128.249 42.7017L128.26 42.7037ZM128.947 42.7037H128.958V42.6927H128.947V42.7037ZM128.947 50.0436V50.0546H128.958V50.0436H128.947ZM117.558 57V56.3652H117.536V57H117.558ZM117.55 56.3759L119.798 55.8469L119.793 55.8255L117.545 56.3545L117.55 56.3759ZM119.807 55.8362V37.9956H119.785V55.8362H119.807ZM119.798 37.9848L117.55 37.4823L117.545 37.5038L119.793 38.0064L119.798 37.9848ZM117.558 37.493V36.8582H117.536V37.493H117.558ZM117.547 36.8693H132.307V36.8472H117.547V36.8693ZM132.296 36.8591L132.758 42.612L132.78 42.6103L132.318 36.8574L132.296 36.8591ZM132.769 42.6001H132.068V42.6222H132.769V42.6001ZM132.079 42.6081C131.867 41.8672 131.607 41.091 131.299 40.2796L131.278 40.2874C131.586 41.0983 131.846 41.8739 132.058 42.6142L132.079 42.6081ZM131.299 40.2797C130.999 39.4592 130.628 38.6783 130.187 37.9371L130.168 37.9483C130.608 38.6883 130.978 39.468 131.278 40.2873L131.299 40.2797ZM130.177 37.9317H122.771V37.9537H130.177V37.9317ZM122.76 37.9427V55.9023H122.782V37.9427H122.76ZM122.771 55.9133H130.045V55.8913H122.771V55.9133ZM130.054 55.9081C130.575 55.0612 130.998 54.223 131.325 53.3936L131.304 53.3855C130.978 54.2136 130.556 55.0506 130.036 55.8965L130.054 55.9081ZM131.325 53.3937C131.66 52.5648 131.977 51.727 132.277 50.8805L132.256 50.8731C131.957 51.7194 131.639 52.5568 131.304 53.3854L131.325 53.3937ZM132.267 50.8878H133.193V50.8658H132.267V50.8878ZM133.182 50.875L132.19 56.9982L132.212 57.0018L133.203 50.8786L133.182 50.875ZM132.201 56.989H117.547V57.011H132.201V56.989ZM128.271 50.0418C128.182 49.5123 128.059 48.9873 127.9 48.4666L127.879 48.4731C128.037 48.9928 128.161 49.5169 128.249 50.0454L128.271 50.0418ZM127.9 48.4666C127.741 47.9458 127.534 47.4295 127.278 46.9176L127.258 46.9274C127.513 47.4383 127.72 47.9535 127.879 48.4731L127.9 48.4666ZM127.268 46.9115H122.401V46.9335H127.268V46.9115ZM122.412 46.9225V45.8248H122.39V46.9225H122.412ZM122.401 45.8358H127.268V45.8138H122.401V45.8358ZM127.278 45.8297C127.534 45.309 127.737 44.7882 127.887 44.2673L127.866 44.2612C127.716 44.7807 127.513 45.3003 127.258 45.82L127.278 45.8297ZM127.887 44.2674C128.045 43.7381 128.173 43.2175 128.27 42.7058L128.249 42.7017C128.152 43.2126 128.024 43.7324 127.866 44.2611L127.887 44.2674ZM128.26 42.7147H128.947V42.6927H128.26V42.7147ZM128.936 42.7037V50.0436H128.958V42.7037H128.936ZM128.947 50.0326H128.26V50.0546H128.947V50.0326ZM143.89 57.2777L143.861 57.2887H143.89V57.2777ZM136.974 39.0933L136.963 39.097L136.963 39.0972L136.974 39.0933ZM136.484 38.1807L136.476 38.1876L136.476 38.188L136.484 38.1807ZM135.717 37.7046L135.72 37.6941L135.717 37.7046ZM134.302 37.493H134.291V37.5033L134.301 37.504L134.302 37.493ZM134.302 36.8582V36.8472H134.291V36.8582H134.302ZM143.097 36.8582H143.108V36.8472H143.097V36.8582ZM143.097 37.493L143.098 37.504L143.108 37.5035V37.493H143.097ZM141.074 37.7046L141.076 37.7155L141.076 37.7154L141.074 37.7046ZM140.399 38.1543L140.388 38.1521L140.388 38.1525L140.399 38.1543ZM140.584 39.1726L140.574 39.1762L140.574 39.1762L140.584 39.1726ZM145.028 51.9613L144.986 51.9758L145.029 51.9722L145.028 51.9613ZM145.186 51.948L145.189 51.975L145.197 51.9517L145.186 51.948ZM149.247 40.3497L149.236 40.3459L149.236 40.346L149.247 40.3497ZM149.498 38.842L149.487 38.8438L149.498 38.842ZM148.757 37.9824L148.752 37.9923L148.753 37.9923L148.757 37.9824ZM146.813 37.493H146.802V37.5026L146.812 37.504L146.813 37.493ZM146.813 36.8582V36.8472H146.802V36.8582H146.813ZM154.272 36.8582H154.283V36.8472H154.272V36.8582ZM154.272 37.493L154.274 37.504L154.283 37.5026V37.493H154.272ZM152.209 38.0088L152.204 37.9988L152.204 37.9988L152.209 38.0088ZM151.177 38.8949L151.187 38.9007L151.187 38.9006L151.177 38.8949ZM150.503 40.4026L150.513 40.4063L150.513 40.4062L150.503 40.4026ZM144.433 57.2777V57.3103L144.443 57.2815L144.433 57.2777ZM143.901 57.2738L136.984 39.0894L136.963 39.0972L143.88 57.2816L143.901 57.2738ZM136.984 39.0896C136.843 38.6921 136.679 38.3865 136.493 38.1735L136.476 38.188C136.66 38.3982 136.823 38.7009 136.963 39.097L136.984 39.0896ZM136.493 38.1739C136.315 37.9513 136.057 37.7915 135.72 37.6941L135.714 37.7152C136.048 37.8117 136.301 37.9694 136.476 38.1876L136.493 38.1739ZM135.72 37.6941C135.384 37.5968 134.912 37.5262 134.303 37.4821L134.301 37.504C134.91 37.5481 135.38 37.6186 135.714 37.7152L135.72 37.6941ZM134.313 37.493V36.8582H134.291V37.493H134.313ZM134.302 36.8693H143.097V36.8472H134.302V36.8693ZM143.086 36.8582V37.493H143.108V36.8582H143.086ZM143.096 37.482C142.162 37.5349 141.486 37.6055 141.071 37.6939L141.076 37.7154C141.489 37.6274 142.163 37.5569 143.098 37.504L143.096 37.482ZM141.071 37.6938C140.665 37.7733 140.434 37.9245 140.388 38.1521L140.41 38.1565C140.452 37.9433 140.671 37.7947 141.076 37.7155L141.071 37.6938ZM140.388 38.1525C140.352 38.3671 140.415 38.7089 140.574 39.1762L140.595 39.1691C140.436 38.7018 140.375 38.3647 140.41 38.1561L140.388 38.1525ZM140.574 39.1762L145.017 51.9649L145.038 51.9576L140.595 39.169L140.574 39.1762ZM145.029 51.9722L145.187 51.959L145.186 51.937L145.027 51.9503L145.029 51.9722ZM145.197 51.9517L149.257 40.3533L149.236 40.346L145.176 51.9444L145.197 51.9517ZM149.257 40.3534C149.486 39.718 149.571 39.2133 149.509 38.8402L149.487 38.8438C149.548 39.2113 149.465 39.7117 149.236 40.3459L149.257 40.3534ZM149.509 38.8402C149.446 38.4654 149.196 38.1763 148.762 37.9724L148.753 37.9923C149.182 38.1941 149.426 38.478 149.487 38.8438L149.509 38.8402ZM148.762 37.9724C148.337 37.7689 147.688 37.6056 146.815 37.4821L146.812 37.504C147.684 37.6273 148.331 37.7903 148.752 37.9923L148.762 37.9724ZM146.824 37.493V36.8582H146.802V37.493H146.824ZM146.813 36.8693H154.272V36.8472H146.813V36.8693ZM154.261 36.8582V37.493H154.283V36.8582H154.261ZM154.271 37.4821C153.362 37.6144 152.673 37.7865 152.204 37.9988L152.214 38.0189C152.679 37.8079 153.366 37.6362 154.274 37.504L154.271 37.4821ZM152.204 37.9988C151.744 38.2112 151.399 38.5079 151.168 38.8892L151.187 38.9006C151.415 38.5236 151.757 38.2296 152.214 38.0188L152.204 37.9988ZM151.168 38.8891C150.938 39.2604 150.713 39.7637 150.493 40.3989L150.513 40.4062C150.734 39.7718 150.958 39.2701 151.187 38.9007L151.168 38.8891ZM150.493 40.3988L144.422 57.274L144.443 57.2815L150.513 40.4063L150.493 40.3988ZM144.433 57.2667H143.89V57.2887H144.433V57.2667ZM165.651 55.9817L165.646 55.9911L165.646 55.9911L165.651 55.9817ZM162.279 52.3845L162.269 52.3895L162.269 52.3896L162.279 52.3845ZM161.776 42.836L161.766 42.8321L161.766 42.8322L161.776 42.836ZM163.787 39.5165L163.795 39.524L163.787 39.5165ZM173.772 37.0037L173.769 37.0143L173.769 37.0143L173.772 37.0037ZM176.443 38.194L176.436 38.205H176.443V38.194ZM176.549 38.194V38.21L176.557 38.2016L176.549 38.194ZM177.818 36.8582V36.8422L177.811 36.8506L177.818 36.8582ZM178.334 36.8582H178.345V36.8472H178.334V36.8582ZM178.334 42.9285V42.9396H178.345V42.9285H178.334ZM177.475 42.9285L177.439 42.9396H177.475V42.9285ZM176.972 41.6193L176.962 41.6238L176.962 41.624L176.972 41.6193ZM176.403 40.548L176.413 40.5422L176.413 40.5422L176.403 40.548ZM174.221 38.432L174.216 38.4419L174.221 38.432ZM166.299 40.1381L166.291 40.1315L166.291 40.1315L166.299 40.1381ZM166.313 53.6276L166.304 53.6341L166.304 53.6341L166.313 53.6276ZM174.076 55.3998L174.081 55.4097L174.081 55.4096L174.076 55.3998ZM176.192 53.5483L176.183 53.5419L176.183 53.542L176.192 53.5483ZM177.025 51.9877L177.015 51.9835L177.015 51.9837L177.025 51.9877ZM177.567 50.0833V50.0723H177.558L177.556 50.0813L177.567 50.0833ZM178.334 50.0833H178.345V50.0723H178.334V50.0833ZM178.334 57V57.011H178.345V57H178.334ZM177.66 57L177.644 57.011H177.66V57ZM176.47 55.2807L176.479 55.2745L176.472 55.2651L176.463 55.2719L176.47 55.2807ZM173.666 56.8016L173.662 56.7912L173.662 56.7912L173.666 56.8016ZM170.664 57.2667C168.77 57.2667 167.101 56.8351 165.657 55.9722L165.646 55.9911C167.094 56.8563 168.766 57.2887 170.664 57.2887V57.2667ZM165.657 55.9722C164.222 55.1093 163.099 53.9117 162.289 52.3793L162.269 52.3896C163.081 53.9254 164.207 55.126 165.646 55.9911L165.657 55.9722ZM162.289 52.3794C161.487 50.8382 161.087 49.0635 161.087 47.0548H161.065C161.065 49.0665 161.466 50.8448 162.269 52.3895L162.289 52.3794ZM161.087 47.0548C161.087 45.5218 161.32 44.1168 161.787 42.8397L161.766 42.8322C161.298 44.112 161.065 45.5195 161.065 47.0548H161.087ZM161.787 42.8398C162.262 41.5626 162.932 40.4574 163.795 39.524L163.779 39.509C162.914 40.4447 162.243 41.5524 161.766 42.8321L161.787 42.8398ZM163.795 39.524C164.658 38.5905 165.679 37.8685 166.859 37.3577L166.851 37.3375C165.668 37.8494 164.644 38.5733 163.779 39.509L163.795 39.524ZM166.859 37.3577C168.039 36.847 169.334 36.5915 170.743 36.5915V36.5695C169.331 36.5695 168.033 36.8254 166.851 37.3375L166.859 37.3577ZM170.743 36.5915C171.782 36.5915 172.791 36.7325 173.769 37.0143L173.775 36.9931C172.795 36.7107 171.784 36.5695 170.743 36.5695V36.5915ZM173.769 37.0143C174.755 37.2874 175.645 37.6837 176.437 38.2032L176.449 38.1848C175.655 37.6639 174.763 37.2667 173.775 36.9931L173.769 37.0143ZM176.443 38.205H176.549V38.183H176.443V38.205ZM176.557 38.2016L177.826 36.8658L177.811 36.8506L176.541 38.1864L176.557 38.2016ZM177.818 36.8693H178.334V36.8472H177.818V36.8693ZM178.323 36.8582V42.9285H178.345V36.8582H178.323ZM178.334 42.9175H177.475V42.9396H178.334V42.9175ZM177.485 42.9253C177.335 42.4399 177.167 42.003 176.982 41.6145L176.962 41.624C177.147 42.0114 177.314 42.4473 177.464 42.9318L177.485 42.9253ZM176.982 41.6147C176.806 41.2264 176.616 40.8689 176.413 40.5422L176.394 40.5539C176.597 40.8796 176.786 41.2363 176.962 41.6238L176.982 41.6147ZM176.413 40.5422C175.795 39.5534 175.066 38.8465 174.226 38.4222L174.216 38.4419C175.052 38.864 175.778 39.5677 176.394 40.5539L176.413 40.5422ZM174.226 38.4222C173.387 37.998 172.389 37.7862 171.232 37.7862V37.8082C172.386 37.8082 173.381 38.0196 174.216 38.4419L174.226 38.4222ZM171.232 37.7862C169.096 37.7862 167.448 38.5678 166.291 40.1315L166.308 40.1446C167.461 38.5872 169.102 37.8082 171.232 37.8082V37.7862ZM166.291 40.1315C165.142 41.6947 164.569 43.9368 164.569 46.8564H164.591C164.591 43.9393 165.164 41.7025 166.308 40.1446L166.291 40.1315ZM164.569 46.8564C164.569 49.776 165.147 52.0357 166.304 53.6341L166.322 53.6212C165.169 52.0279 164.591 49.7735 164.591 46.8564H164.569ZM166.304 53.6341C167.47 55.233 169.113 56.0324 171.232 56.0324V56.0103C169.12 56.0103 167.483 55.2139 166.322 53.6211L166.304 53.6341ZM171.232 56.0324C172.283 56.0324 173.233 55.8249 174.081 55.4097L174.071 55.3899C173.226 55.8034 172.28 56.0103 171.232 56.0103V56.0324ZM174.081 55.4096C174.929 54.9856 175.636 54.3671 176.201 53.5546L176.183 53.542C175.619 54.3517 174.916 54.9676 174.071 55.3899L174.081 55.4096ZM176.201 53.5546C176.528 53.0954 176.806 52.5744 177.035 51.9917L177.015 51.9837C176.786 52.5648 176.508 53.0842 176.183 53.5419L176.201 53.5546ZM177.035 51.9919C177.274 51.4092 177.454 50.7736 177.578 50.0852L177.556 50.0813C177.433 50.7684 177.253 51.4024 177.015 51.9835L177.035 51.9919ZM177.567 50.0943H178.334V50.0723H177.567V50.0943ZM178.323 50.0833V57H178.345V50.0833H178.323ZM178.334 56.989H177.66V57.011H178.334V56.989ZM177.669 56.9937L176.479 55.2745L176.46 55.287L177.651 57.0063L177.669 56.9937ZM176.463 55.2719C175.529 55.9679 174.596 56.4742 173.662 56.7912L173.669 56.8121C174.605 56.4942 175.541 55.9867 176.476 55.2896L176.463 55.2719ZM173.662 56.7912C172.738 57.1082 171.738 57.2667 170.664 57.2667V57.2887C171.74 57.2887 172.742 57.1299 173.669 56.812L173.662 56.7912ZM187.169 56.4974L187.164 56.5075L187.164 56.5075L187.169 56.4974ZM184.127 54.3021L184.119 54.3095L184.119 54.3096L184.127 54.3021ZM182.13 51.0091L182.12 51.0129L182.12 51.013L182.13 51.0091ZM182.13 42.836L182.12 42.8321L182.12 42.8321L182.13 42.836ZM184.127 39.5562L184.119 39.5487L184.119 39.5487L184.127 39.5562ZM187.169 37.3608L187.164 37.3507L187.164 37.3507L187.169 37.3608ZM194.866 37.3608L194.861 37.3709L194.866 37.3608ZM197.908 39.5562L197.899 39.5636L197.899 39.5636L197.908 39.5562ZM199.918 42.836L199.928 42.8321L199.918 42.836ZM199.918 51.0091L199.928 51.013V51.0129L199.918 51.0091ZM197.908 54.3021L197.899 54.2946V54.2946L197.908 54.3021ZM194.866 56.4974L194.87 56.5075L194.87 56.5075L194.866 56.4974ZM193.147 55.6114L193.142 55.6013L193.142 55.6013L193.147 55.6114ZM194.839 54.3947L194.831 54.3872V54.3872L194.839 54.3947ZM196.083 52.4638L196.093 52.4683L196.083 52.4638ZM196.836 49.9246L196.825 49.9227L196.836 49.9246ZM196.836 43.8411L196.825 43.843V43.843L196.836 43.8411ZM196.096 41.3283L196.086 41.3328L196.096 41.3283ZM194.866 39.4371L194.858 39.4446L194.858 39.4447L194.866 39.4371ZM193.173 38.2336L193.169 38.2437L193.169 38.2438L193.173 38.2336ZM188.901 38.2336L188.906 38.2438L188.906 38.2437L188.901 38.2336ZM187.195 39.4371L187.187 39.4296L187.187 39.4297L187.195 39.4371ZM185.965 41.3548L185.955 41.3503L185.955 41.3503L185.965 41.3548ZM185.225 43.8675L185.214 43.8656L185.225 43.8675ZM185.225 49.951L185.214 49.953L185.225 49.951ZM185.965 52.477L185.955 52.4814L185.955 52.4815L185.965 52.477ZM187.195 54.3947L187.203 54.3872L187.195 54.3947ZM188.875 55.6114L188.87 55.6214L188.87 55.6215L188.875 55.6114ZM191.017 57.2667C189.626 57.2667 188.344 57.0069 187.173 56.4874L187.164 56.5075C188.338 57.0284 189.623 57.2887 191.017 57.2887V57.2667ZM187.173 56.4874C186.011 55.959 184.998 55.2281 184.135 54.2946L184.119 54.3096C184.984 55.2452 185.999 55.9779 187.164 56.5075L187.173 56.4874ZM184.135 54.2947C183.281 53.3524 182.616 52.2559 182.14 51.0051L182.12 51.013C182.596 52.2662 183.263 53.365 184.119 54.3095L184.135 54.2947ZM182.14 51.0052C181.674 49.7458 181.44 48.3849 181.44 46.9225H181.418C181.418 48.3873 181.652 49.7508 182.12 51.0129L182.14 51.0052ZM181.44 46.9225C181.44 45.4513 181.674 44.0904 182.14 42.8398L182.12 42.8321C181.652 44.0854 181.418 45.4489 181.418 46.9225H181.44ZM182.14 42.8399C182.616 41.5891 183.281 40.4971 184.135 39.5636L184.119 39.5487C183.263 40.4844 182.596 41.5789 182.12 42.8321L182.14 42.8399ZM184.135 39.5636C184.998 38.6213 186.011 37.8904 187.173 37.3709L187.164 37.3507C185.999 37.8715 184.984 38.6042 184.119 39.5487L184.135 39.5636ZM187.173 37.3709C188.344 36.8514 189.626 36.5915 191.017 36.5915V36.5695C189.623 36.5695 188.338 36.8299 187.164 37.3507L187.173 37.3709ZM191.017 36.5915C192.409 36.5915 193.69 36.8514 194.861 37.3709L194.87 37.3507C193.696 36.8299 192.412 36.5695 191.017 36.5695V36.5915ZM194.861 37.3709C196.033 37.8904 197.045 38.6213 197.899 39.5636L197.916 39.5488C197.059 38.6042 196.044 37.8715 194.87 37.3507L194.861 37.3709ZM197.899 39.5636C198.762 40.4971 199.432 41.5892 199.907 42.8399L199.928 42.8321C199.451 41.5788 198.781 40.4843 197.916 39.5487L197.899 39.5636ZM199.907 42.8399C200.383 44.0905 200.621 45.4513 200.621 46.9225H200.643C200.643 45.4489 200.405 44.0854 199.928 42.8321L199.907 42.8399ZM200.621 46.9225C200.621 48.3849 200.383 49.7457 199.907 51.0052L199.928 51.0129C200.405 49.7508 200.643 48.3873 200.643 46.9225H200.621ZM199.907 51.0051C199.432 52.2559 198.762 53.3523 197.899 54.2946L197.916 54.3095C198.781 53.3651 199.451 52.2662 199.928 51.013L199.907 51.0051ZM197.899 54.2946C197.045 55.2281 196.033 55.959 194.861 56.4874L194.87 56.5075C196.044 55.9779 197.059 55.2452 197.916 54.3095L197.899 54.2946ZM194.861 56.4874C193.69 57.0069 192.409 57.2667 191.017 57.2667V57.2887C192.412 57.2887 193.696 57.0284 194.87 56.5075L194.861 56.4874ZM191.017 56.0456C191.803 56.0456 192.515 55.9043 193.151 55.6214L193.142 55.6013C192.509 55.8827 191.801 56.0236 191.017 56.0236V56.0456ZM193.151 55.6215C193.796 55.3387 194.362 54.9322 194.847 54.4021L194.831 54.3872C194.347 54.9151 193.784 55.3198 193.142 55.6013L193.151 55.6215ZM194.847 54.4021C195.342 53.8633 195.757 53.2187 196.093 52.4683L196.072 52.4593C195.738 53.2078 195.324 53.8504 194.831 54.3872L194.847 54.4021ZM196.093 52.4683C196.428 51.7179 196.68 50.8707 196.847 49.9265L196.825 49.9227C196.658 50.8653 196.407 51.7108 196.072 52.4593L196.093 52.4683ZM196.847 49.9265C197.015 48.9824 197.099 47.959 197.099 46.8564H197.077C197.077 47.9579 196.993 48.98 196.825 49.9227L196.847 49.9265ZM197.099 46.8564C197.099 45.7714 197.015 44.7656 196.847 43.8391L196.825 43.843C196.993 44.7681 197.077 45.7725 197.077 46.8564H197.099ZM196.847 43.8391C196.68 42.9038 196.432 42.0654 196.106 41.3239L196.086 41.3328C196.411 42.0724 196.658 42.9092 196.825 43.843L196.847 43.8391ZM196.106 41.3239C195.779 40.5823 195.368 39.9508 194.874 39.4295L194.858 39.4447C195.351 39.9639 195.76 40.5932 196.086 41.3328L196.106 41.3239ZM194.874 39.4297C194.388 38.8995 193.822 38.4975 193.177 38.2235L193.169 38.2438C193.811 38.5165 194.374 38.9167 194.858 39.4446L194.874 39.4297ZM193.177 38.2236C192.541 37.9407 191.83 37.7994 191.044 37.7994V37.8215C191.827 37.8215 192.535 37.9623 193.169 38.2437L193.177 38.2236ZM191.044 37.7994C190.258 37.7994 189.542 37.9407 188.897 38.2236L188.906 38.2437C189.548 37.9623 190.26 37.8215 191.044 37.8215V37.7994ZM188.897 38.2235C188.252 38.4974 187.682 38.8995 187.187 39.4296L187.203 39.4446C187.696 38.9167 188.263 38.5165 188.906 38.2438L188.897 38.2235ZM187.187 39.4297C186.701 39.9597 186.291 40.5999 185.955 41.3503L185.975 41.3593C186.31 40.6108 186.719 39.9726 187.203 39.4446L187.187 39.4297ZM185.955 41.3503C185.629 42.0918 185.382 42.9303 185.214 43.8656L185.236 43.8695C185.403 42.9356 185.65 42.0989 185.975 41.3592L185.955 41.3503ZM185.214 43.8656C185.046 44.8009 184.962 45.8155 184.962 46.9093H184.984C184.984 45.8166 185.068 44.8033 185.236 43.8695L185.214 43.8656ZM184.962 46.9093C184.962 48.0031 185.046 49.0177 185.214 49.953L185.236 49.9491C185.068 49.0153 184.984 48.002 184.984 46.9093H184.962ZM185.214 49.953C185.382 50.8883 185.629 51.7311 185.955 52.4814L185.975 52.4726C185.65 51.7241 185.403 50.883 185.236 49.9491L185.214 49.953ZM185.955 52.4815C186.291 53.2319 186.701 53.8721 187.187 54.4021L187.203 54.3872C186.719 53.8592 186.31 53.221 185.975 52.4725L185.955 52.4815ZM187.187 54.4021C187.673 54.9322 188.234 55.3387 188.87 55.6214L188.879 55.6013C188.246 55.3198 187.687 54.9151 187.203 54.3872L187.187 54.4021ZM188.87 55.6215C189.516 55.9043 190.231 56.0456 191.017 56.0456V56.0236C190.234 56.0236 189.521 55.8827 188.879 55.6013L188.87 55.6215ZM202.968 57H202.957V57.011H202.968V57ZM202.968 56.3387L202.957 56.2894V56.3387H202.968ZM205.216 55.8362L205.227 55.8855V55.8362H205.216ZM205.216 37.9956H205.267L205.218 37.9848L205.216 37.9956ZM202.968 37.493H202.917L202.965 37.5038L202.968 37.493ZM202.968 36.8582V36.8472H202.957V36.8582H202.968ZM213.204 37.0434L213.203 37.0543H213.203L213.204 37.0434ZM215.875 37.6517L215.872 37.6621L215.872 37.6621L215.875 37.6517ZM217.952 38.7626L217.945 38.7714L217.945 38.7715L217.952 38.7626ZM220.729 42.2408L220.719 42.2454V42.2454L220.729 42.2408ZM220.663 51.8819L220.673 51.8866L220.673 51.8865L220.663 51.8819ZM217.78 55.4527L217.786 55.4616L217.786 55.4616L217.78 55.4527ZM215.241 56.6429L215.243 56.6536L215.241 56.6429ZM213.984 55.4791L213.988 55.4894L213.988 55.4893L213.984 55.4791ZM216.113 53.8789L216.122 53.8859L216.122 53.8858L216.113 53.8789ZM217.661 50.771L217.65 50.7679L217.65 50.768L217.661 50.771ZM217.661 42.7302L217.65 42.7335L217.661 42.7302ZM216.061 39.8471L216.069 39.8397L216.069 39.8395L216.061 39.8471ZM213.759 38.3923L213.756 38.4028L213.756 38.4028L213.759 38.3923ZM208.192 37.9427V37.9317H208.181V37.9427H208.192ZM208.787 55.6114L208.781 55.6209L208.787 55.6114ZM202.979 57V56.3387H202.957V57H202.979ZM202.97 56.3495L205.218 55.847L205.214 55.8254L202.965 56.328L202.97 56.3495ZM205.227 55.8362V37.9956H205.205V55.8362H205.227ZM205.218 37.9848L202.97 37.4823L202.965 37.5038L205.214 38.0064L205.218 37.9848ZM202.979 37.493V36.8582H202.957V37.493H202.979ZM202.968 36.8693H209.567V36.8472H202.968V36.8693ZM209.567 36.8693C210.977 36.8693 212.189 36.931 213.203 37.0543L213.205 37.0325C212.191 36.9089 210.978 36.8472 209.567 36.8472V36.8693ZM213.203 37.0543C214.225 37.1777 215.114 37.3803 215.872 37.6621L215.879 37.6414C215.12 37.3589 214.229 37.156 213.205 37.0325L213.203 37.0543ZM215.872 37.6621C216.638 37.9351 217.329 38.3049 217.945 38.7714L217.958 38.7539C217.34 38.2859 216.647 37.915 215.879 37.6414L215.872 37.6621ZM217.945 38.7715C219.143 39.6608 220.067 40.8187 220.719 42.2454L220.739 42.2363C220.086 40.8064 219.159 39.6455 217.958 38.7538L217.945 38.7715ZM220.719 42.2454C221.371 43.6633 221.697 45.2355 221.697 46.9622H221.719C221.719 45.2327 221.392 43.6573 220.739 42.2362L220.719 42.2454ZM221.697 46.9622C221.697 48.7417 221.349 50.38 220.653 51.8773L220.673 51.8865C221.37 50.3861 221.719 48.7446 221.719 46.9622H221.697ZM220.653 51.8772C219.957 53.3657 218.997 54.5545 217.773 55.4438L217.786 55.4616C219.013 54.5699 219.976 53.3781 220.673 51.8866L220.653 51.8772ZM217.773 55.4437C216.999 55.9984 216.153 56.3945 215.238 56.6323L215.243 56.6536C216.162 56.4152 217.009 56.0179 217.786 55.4616L217.773 55.4437ZM215.238 56.6323C214.322 56.87 213.203 56.989 211.881 56.989V57.011C213.205 57.011 214.325 56.8919 215.243 56.6536L215.238 56.6323ZM211.881 56.989H202.968V57.011H211.881V56.989ZM210.903 55.9662C212.156 55.9662 213.184 55.8075 213.988 55.4894L213.98 55.4689C213.18 55.7856 212.154 55.9442 210.903 55.9442V55.9662ZM213.988 55.4893C214.793 55.1624 215.504 54.6278 216.122 53.8859L216.105 53.8718C215.489 54.6112 214.781 55.1434 213.98 55.4689L213.988 55.4893ZM216.122 53.8858C216.802 53.0381 217.318 52.0007 217.671 50.774L217.65 50.768C217.298 51.9923 216.783 53.0269 216.105 53.872L216.122 53.8858ZM217.671 50.7741C218.033 49.5386 218.214 48.1754 218.214 46.6845H218.192C218.192 48.1736 218.011 49.5347 217.65 50.7679L217.671 50.7741ZM218.214 46.6845C218.214 45.1936 218.033 43.8743 217.671 42.7269L217.65 42.7335C218.011 43.8784 218.192 45.1953 218.192 46.6845H218.214ZM217.671 42.7269C217.309 41.5794 216.775 40.6169 216.069 39.8397L216.052 39.8545C216.757 40.629 217.289 41.5886 217.65 42.7335L217.671 42.7269ZM216.069 39.8395C215.424 39.1593 214.655 38.6734 213.763 38.3819L213.756 38.4028C214.645 38.6932 215.41 39.1771 216.053 39.8547L216.069 39.8395ZM213.763 38.3819C212.871 38.0816 211.715 37.9317 210.294 37.9317V37.9537C211.713 37.9537 212.867 38.1035 213.756 38.4028L213.763 38.3819ZM210.294 37.9317H208.192V37.9537H210.294V37.9317ZM208.181 37.9427V54.3814H208.203V37.9427H208.181ZM208.181 54.3814C208.181 54.9748 208.38 55.3891 208.781 55.6209L208.792 55.6018C208.4 55.3751 208.203 54.9695 208.203 54.3814H208.181ZM208.781 55.6209C209.181 55.8517 209.889 55.9662 210.903 55.9662V55.9442C209.889 55.9442 209.186 55.8295 208.792 55.6018L208.781 55.6209ZM224.123 57H224.112V57.011H224.123V57ZM224.123 56.3652L224.112 56.3184V56.3652H224.123ZM226.371 55.8362L226.382 55.883V55.8362H226.371ZM226.371 37.9956H226.421L226.373 37.9848L226.371 37.9956ZM224.123 37.493H224.072L224.12 37.5038L224.123 37.493ZM224.123 36.8582V36.8472H224.112V36.8582H224.123ZM238.882 36.8582L238.893 36.8574L238.892 36.8472H238.882V36.8582ZM239.345 42.6111V42.6222H239.357L239.356 42.6103L239.345 42.6111ZM238.644 42.6111L238.605 42.6222H238.644V42.6111ZM237.864 40.2835L237.853 40.2873L237.853 40.2874L237.864 40.2835ZM236.753 37.9427L236.771 37.9317H236.753V37.9427ZM229.347 37.9427V37.9317H229.336V37.9427H229.347ZM229.347 55.9023H229.336V55.9133H229.347V55.9023ZM236.62 55.9023V55.9234L236.63 55.9081L236.62 55.9023ZM237.89 53.3896L237.88 53.3854L237.88 53.3855L237.89 53.3896ZM238.842 50.8768V50.8438L238.832 50.8731L238.842 50.8768ZM239.768 50.8768L239.779 50.8786L239.781 50.8658H239.768V50.8768ZM238.776 57V57.011H238.785L238.787 57.0018L238.776 57ZM234.835 50.0436L234.824 50.0454L234.826 50.0546H234.835V50.0436ZM233.843 46.9225L233.865 46.9115H233.843V46.9225ZM228.976 46.9225H228.965V46.9335H228.976V46.9225ZM228.976 45.8248V45.8138H228.965V45.8248H228.976ZM233.843 45.8248V45.8498L233.853 45.8297L233.843 45.8248ZM234.451 44.2643L234.441 44.2611L234.441 44.2612L234.451 44.2643ZM234.835 42.7037V42.6446L234.824 42.7017L234.835 42.7037ZM235.523 42.7037H235.534V42.6927H235.523V42.7037ZM235.523 50.0436V50.0546H235.534V50.0436H235.523ZM224.134 57V56.3652H224.112V57H224.134ZM224.125 56.3759L226.373 55.8469L226.368 55.8255L224.12 56.3545L224.125 56.3759ZM226.382 55.8362V37.9956H226.36V55.8362H226.382ZM226.373 37.9848L224.125 37.4823L224.12 37.5038L226.369 38.0064L226.373 37.9848ZM224.134 37.493V36.8582H224.112V37.493H224.134ZM224.123 36.8693H238.882V36.8472H224.123V36.8693ZM238.871 36.8591L239.334 42.612L239.356 42.6103L238.893 36.8574L238.871 36.8591ZM239.345 42.6001H238.644V42.6222H239.345V42.6001ZM238.654 42.6081C238.443 41.8672 238.183 41.091 237.874 40.2796L237.853 40.2874C238.162 41.0983 238.422 41.8739 238.633 42.6142L238.654 42.6081ZM237.874 40.2797C237.574 39.4592 237.203 38.6783 236.762 37.9371L236.743 37.9483C237.184 38.6883 237.554 39.468 237.853 40.2873L237.874 40.2797ZM236.753 37.9317H229.347V37.9537H236.753V37.9317ZM229.336 37.9427V55.9023H229.358V37.9427H229.336ZM229.347 55.9133H236.62V55.8913H229.347V55.9133ZM236.63 55.9081C237.15 55.0612 237.574 54.223 237.9 53.3936L237.88 53.3855C237.554 54.2136 237.131 55.0506 236.611 55.8965L236.63 55.9081ZM237.9 53.3937C238.235 52.5648 238.553 51.727 238.853 50.8805L238.832 50.8731C238.532 51.7194 238.215 52.5568 237.88 53.3854L237.9 53.3937ZM238.842 50.8878H239.768V50.8658H238.842V50.8878ZM239.757 50.875L238.765 56.9982L238.787 57.0018L239.779 50.8786L239.757 50.875ZM238.776 56.989H224.123V57.011H238.776V56.989ZM234.846 50.0418C234.758 49.5123 234.634 48.9873 234.475 48.4666L234.454 48.4731C234.613 48.9928 234.736 49.5169 234.824 50.0454L234.846 50.0418ZM234.475 48.4666C234.316 47.9458 234.109 47.4295 233.853 46.9176L233.833 46.9274C234.089 47.4383 234.296 47.9535 234.454 48.4731L234.475 48.4666ZM233.843 46.9115H228.976V46.9335H233.843V46.9115ZM228.987 46.9225V45.8248H228.965V46.9225H228.987ZM228.976 45.8358H233.843V45.8138H228.976V45.8358ZM233.853 45.8297C234.109 45.309 234.312 44.7882 234.462 44.2673L234.441 44.2612C234.291 44.7807 234.089 45.3003 233.833 45.82L233.853 45.8297ZM234.462 44.2674C234.621 43.7381 234.749 43.2175 234.846 42.7058L234.824 42.7017C234.727 43.2126 234.6 43.7324 234.441 44.2611L234.462 44.2674ZM234.835 42.7147H235.523V42.6927H234.835V42.7147ZM235.512 42.7037V50.0436H235.534V42.7037H235.512ZM235.523 50.0326H234.835V50.0546H235.523V50.0326Z" fill="black"/>
</g>
<g filter="url(#filter3_d_37_34)">
<path d="M111.821 76.2412C111.387 76.2412 110.998 76.1145 110.653 75.861C110.307 75.6075 110.034 75.2622 109.832 74.825C109.633 74.3842 109.534 73.8864 109.534 73.3317C109.534 72.7219 109.655 72.1855 109.898 71.7226C110.14 71.2561 110.478 70.8924 110.912 70.6316C111.345 70.3671 111.847 70.2348 112.416 70.2348C112.82 70.2348 113.217 70.2954 113.606 70.4167V68.0747L112.791 67.7606V67.6063L114.593 67.0718H114.719V75.2493L115.474 75.4202V75.5524L113.772 76.2412H113.684V75.332L113.634 75.3155C113.406 75.6204 113.136 75.8518 112.824 76.0098C112.515 76.1641 112.181 76.2412 111.821 76.2412ZM112.306 75.5138C112.578 75.5138 112.829 75.4569 113.061 75.343C113.296 75.2291 113.478 75.0748 113.606 74.8801V71.8163C113.606 71.4232 113.504 71.122 113.298 70.9126C113.096 70.7032 112.804 70.5985 112.422 70.5985C111.929 70.5985 111.531 70.8318 111.226 71.2983C110.925 71.7649 110.774 72.3839 110.774 73.1554C110.774 73.8827 110.91 74.4577 111.182 74.8801C111.454 75.3026 111.828 75.5138 112.306 75.5138ZM118.917 76.2412C118.384 76.2412 117.916 76.12 117.512 75.8775C117.111 75.6314 116.799 75.2897 116.575 74.8526C116.355 74.4117 116.244 73.9029 116.244 73.3262C116.244 72.7127 116.368 72.1745 116.614 71.7116C116.863 71.2487 117.211 70.8869 117.655 70.6261C118.103 70.3652 118.621 70.2348 119.209 70.2348C119.936 70.2348 120.493 70.4461 120.879 70.8685C121.268 71.291 121.47 71.91 121.485 72.7255L121.408 72.7917H117.137V72.4721L120.223 72.3619C120.249 72.2663 120.262 72.1212 120.262 71.9265C120.262 71.0449 119.874 70.604 119.099 70.604C118.566 70.604 118.155 70.8134 117.865 71.2322C117.578 71.6473 117.435 72.237 117.435 73.0011C117.435 74.5991 118.056 75.3981 119.297 75.3981C120.105 75.3981 120.724 75.1042 121.154 74.5164L121.358 74.6432C121.167 75.1501 120.857 75.5432 120.427 75.8224C120.001 76.1016 119.497 76.2412 118.917 76.2412ZM124.428 76.2412L122.433 71.0559C122.367 70.8832 122.286 70.7675 122.19 70.7087C122.095 70.6463 121.909 70.6059 121.634 70.5875V70.345H124.472V70.5875C124.159 70.5985 123.954 70.6261 123.855 70.6702C123.755 70.7106 123.706 70.7749 123.706 70.863C123.706 70.9475 123.728 71.0504 123.772 71.1716L125.017 74.7038H125.061L126.224 71.4086C126.29 71.2212 126.323 71.0779 126.323 70.9787C126.323 70.8722 126.275 70.7932 126.18 70.7418C126.084 70.6867 125.875 70.6353 125.552 70.5875V70.345H127.811V70.5875C127.539 70.6316 127.334 70.6848 127.194 70.7473C127.054 70.8061 126.95 70.8887 126.88 70.9953C126.814 71.1018 126.748 71.2451 126.681 71.4251L124.951 76.2412H124.428ZM130.541 76.2412C130.008 76.2412 129.54 76.12 129.135 75.8775C128.735 75.6314 128.423 75.2897 128.199 74.8526C127.978 74.4117 127.868 73.9029 127.868 73.3262C127.868 72.7127 127.991 72.1745 128.237 71.7116C128.487 71.2487 128.834 70.8869 129.279 70.6261C129.727 70.3652 130.245 70.2348 130.833 70.2348C131.56 70.2348 132.117 70.4461 132.502 70.8685C132.892 71.291 133.094 71.91 133.108 72.7255L133.031 72.7917H128.761V72.4721L131.847 72.3619C131.872 72.2663 131.885 72.1212 131.885 71.9265C131.885 71.0449 131.498 70.604 130.722 70.604C130.19 70.604 129.778 70.8134 129.488 71.2322C129.202 71.6473 129.058 72.237 129.058 73.0011C129.058 74.5991 129.679 75.3981 130.921 75.3981C131.729 75.3981 132.348 75.1042 132.778 74.5164L132.982 74.6432C132.791 75.1501 132.48 75.5432 132.05 75.8224C131.624 76.1016 131.121 76.2412 130.541 76.2412ZM133.782 76.1255V75.883L134.619 75.7122V68.0527L133.793 67.7606V67.5898L135.628 67.0718H135.743V75.7122L136.57 75.883V76.1255H133.782ZM140.189 76.2412C139.623 76.2412 139.122 76.1108 138.684 75.85C138.247 75.5855 137.904 75.2273 137.654 74.7754C137.408 74.3199 137.285 73.8074 137.285 73.238C137.285 72.6649 137.408 72.1525 137.654 71.7006C137.904 71.2487 138.247 70.8924 138.684 70.6316C139.122 70.3671 139.623 70.2348 140.189 70.2348C140.755 70.2348 141.254 70.3671 141.688 70.6316C142.125 70.8924 142.468 71.2487 142.718 71.7006C142.968 72.1525 143.093 72.6649 143.093 73.238C143.093 73.8074 142.968 74.3199 142.718 74.7754C142.468 75.2273 142.125 75.5855 141.688 75.85C141.254 76.1108 140.755 76.2412 140.189 76.2412ZM140.178 75.7342C140.446 75.7342 140.683 75.6755 140.889 75.5579C141.094 75.4367 141.267 75.2659 141.407 75.0454C141.55 74.8214 141.658 74.5568 141.732 74.2519C141.805 73.9434 141.842 73.6017 141.842 73.227C141.842 72.856 141.805 72.518 141.732 72.2131C141.662 71.9082 141.557 71.6455 141.418 71.4251C141.278 71.2047 141.105 71.0357 140.9 70.9181C140.694 70.7969 140.457 70.7363 140.189 70.7363C139.921 70.7363 139.684 70.7969 139.478 70.9181C139.272 71.0357 139.1 71.2047 138.96 71.4251C138.82 71.6455 138.714 71.91 138.64 72.2186C138.571 72.5235 138.536 72.8633 138.536 73.238C138.536 73.6127 138.571 73.9525 138.64 74.2574C138.714 74.5624 138.82 74.825 138.96 75.0454C139.1 75.2659 139.27 75.4367 139.472 75.5579C139.678 75.6755 139.913 75.7342 140.178 75.7342ZM143.796 78.8532V78.6382L144.633 78.4564V71.2212L143.823 70.9291V70.7583L145.581 70.2348H145.713V71.1771H145.757C145.978 70.8502 146.248 70.6114 146.567 70.4608C146.891 70.3101 147.218 70.2348 147.548 70.2348C148.008 70.2348 148.41 70.3616 148.755 70.615C149.104 70.8649 149.376 71.2083 149.571 71.6455C149.769 72.0827 149.868 72.5823 149.868 73.1443C149.868 73.7505 149.74 74.2868 149.483 74.7534C149.225 75.2199 148.867 75.5855 148.408 75.85C147.952 76.1108 147.42 76.2412 146.81 76.2412C146.634 76.2412 146.459 76.2265 146.286 76.1971C146.114 76.1714 145.939 76.1292 145.763 76.0704V78.4564L146.887 78.6382V78.8532H143.796ZM146.854 75.872C147.21 75.872 147.523 75.7636 147.791 75.5469C148.059 75.3301 148.267 75.0307 148.413 74.6487C148.564 74.263 148.639 73.8203 148.639 73.3207C148.639 72.5896 148.491 72.0147 148.193 71.5959C147.899 71.1771 147.497 70.9677 146.986 70.9677C146.762 70.9677 146.533 71.0283 146.297 71.1496C146.062 71.2671 145.897 71.4159 145.802 71.5959V74.7865C145.802 75.1024 145.903 75.3632 146.105 75.5689C146.31 75.771 146.56 75.872 146.854 75.872ZM153.529 76.2412C152.997 76.2412 152.528 76.12 152.124 75.8775C151.724 75.6314 151.412 75.2897 151.188 74.8526C150.967 74.4117 150.857 73.9029 150.857 73.3262C150.857 72.7127 150.98 72.1745 151.226 71.7116C151.476 71.2487 151.823 70.8869 152.268 70.6261C152.716 70.3652 153.234 70.2348 153.822 70.2348C154.549 70.2348 155.105 70.4461 155.491 70.8685C155.881 71.291 156.083 71.91 156.097 72.7255L156.02 72.7917H151.75V72.4721L154.835 72.3619C154.861 72.2663 154.874 72.1212 154.874 71.9265C154.874 71.0449 154.486 70.604 153.711 70.604C153.179 70.604 152.767 70.8134 152.477 71.2322C152.19 71.6473 152.047 72.237 152.047 73.0011C152.047 74.5991 152.668 75.3981 153.91 75.3981C154.718 75.3981 155.337 75.1042 155.767 74.5164L155.971 74.6432C155.78 75.1501 155.469 75.5432 155.039 75.8224C154.613 76.1016 154.11 76.2412 153.529 76.2412ZM156.87 76.1255V75.883L157.696 75.7122V71.2212L156.892 70.9181V70.7583L158.655 70.2293H158.776V71.4196L158.82 71.4747V75.7122L159.955 75.883V76.1255H156.87ZM158.738 71.9265L158.716 71.4747C158.987 71.0743 159.257 70.7657 159.526 70.5489C159.797 70.3322 160.051 70.2238 160.286 70.2238C160.488 70.2238 160.659 70.2936 160.799 70.4332C160.938 70.5691 161.008 70.7344 161.008 70.9291C161.008 71.1092 160.947 71.2616 160.826 71.3865C160.705 71.5077 160.554 71.5684 160.374 71.5684C160.191 71.5684 160.047 71.5004 159.944 71.3645C159.871 71.28 159.808 71.223 159.757 71.1936C159.706 71.1606 159.647 71.1441 159.581 71.1441C159.474 71.1441 159.34 71.2157 159.178 71.359C159.021 71.4986 158.874 71.6877 158.738 71.9265ZM163.387 76.2412C163.152 76.2412 162.891 76.2173 162.605 76.1696C162.322 76.1255 162.074 76.0685 161.861 75.9987L161.789 74.2299H162.076C162.124 74.7736 162.263 75.185 162.495 75.4642C162.726 75.7398 163.048 75.8775 163.459 75.8775C163.779 75.8775 164.034 75.7894 164.225 75.613C164.42 75.433 164.517 75.1979 164.517 74.9077C164.517 74.6652 164.445 74.4577 164.302 74.285C164.159 74.1087 163.911 73.9305 163.558 73.7505L163.101 73.5246C162.631 73.2894 162.294 73.0433 162.092 72.7862C161.89 72.5253 161.789 72.2112 161.789 71.8439C161.789 71.3296 161.967 70.9328 162.324 70.6536C162.684 70.3744 163.196 70.2348 163.861 70.2348C164.118 70.2348 164.366 70.2532 164.605 70.2899C164.848 70.323 165.037 70.3689 165.173 70.4277V71.9376H164.919C164.813 71.0412 164.396 70.593 163.668 70.593C163.385 70.593 163.158 70.6702 162.985 70.8244C162.816 70.9751 162.732 71.1808 162.732 71.4416C162.732 71.6694 162.805 71.8641 162.952 72.0257C163.103 72.1874 163.356 72.3545 163.712 72.5272L164.214 72.7696C164.647 72.9827 164.96 73.2178 165.151 73.475C165.342 73.7321 165.437 74.0572 165.437 74.4503C165.437 74.9977 165.254 75.433 164.886 75.7563C164.519 76.0796 164.019 76.2412 163.387 76.2412ZM171.963 76.2412C171.464 76.2412 171.019 76.12 170.63 75.8775C170.244 75.6314 169.941 75.2916 169.72 74.8581C169.504 74.4209 169.395 73.9176 169.395 73.3482C169.395 72.7458 169.515 72.2112 169.754 71.7447C169.996 71.2745 170.328 70.9053 170.751 70.6371C171.177 70.3689 171.664 70.2348 172.211 70.2348C172.597 70.2348 172.942 70.2991 173.247 70.4277C173.552 70.5526 173.793 70.7197 173.969 70.9291C174.149 71.1349 174.239 71.3608 174.239 71.6069C174.239 71.809 174.188 71.9651 174.085 72.0753C173.982 72.1855 173.842 72.2406 173.666 72.2406C173.475 72.2406 173.332 72.1837 173.236 72.0698C173.141 71.9559 173.078 71.7778 173.049 71.5353C173.008 71.1716 172.929 70.9273 172.812 70.8024C172.694 70.6775 172.505 70.615 172.244 70.615C171.723 70.615 171.317 70.8391 171.026 71.2873C170.74 71.7318 170.597 72.3233 170.597 73.0617C170.597 73.8038 170.747 74.3732 171.048 74.7699C171.35 75.1667 171.778 75.365 172.332 75.365C172.7 75.365 173.029 75.2971 173.319 75.1612C173.609 75.0252 173.868 74.7993 174.096 74.4834L174.316 74.6101C174.114 75.1318 173.811 75.534 173.407 75.8169C173.003 76.0998 172.522 76.2412 171.963 76.2412ZM178.073 76.2412C177.507 76.2412 177.006 76.1108 176.569 75.85C176.132 75.5855 175.788 75.2273 175.538 74.7754C175.292 74.3199 175.169 73.8074 175.169 73.238C175.169 72.6649 175.292 72.1525 175.538 71.7006C175.788 71.2487 176.132 70.8924 176.569 70.6316C177.006 70.3671 177.507 70.2348 178.073 70.2348C178.639 70.2348 179.138 70.3671 179.572 70.6316C180.009 70.8924 180.353 71.2487 180.602 71.7006C180.852 72.1525 180.977 72.6649 180.977 73.238C180.977 73.8074 180.852 74.3199 180.602 74.7754C180.353 75.2273 180.009 75.5855 179.572 75.85C179.138 76.1108 178.639 76.2412 178.073 76.2412ZM178.062 75.7342C178.33 75.7342 178.567 75.6755 178.773 75.5579C178.979 75.4367 179.151 75.2659 179.291 75.0454C179.434 74.8214 179.543 74.5568 179.616 74.2519C179.689 73.9434 179.726 73.6017 179.726 73.227C179.726 72.856 179.689 72.518 179.616 72.2131C179.546 71.9082 179.442 71.6455 179.302 71.4251C179.162 71.2047 178.99 71.0357 178.784 70.9181C178.578 70.7969 178.341 70.7363 178.073 70.7363C177.805 70.7363 177.568 70.7969 177.362 70.9181C177.157 71.0357 176.984 71.2047 176.844 71.4251C176.705 71.6455 176.598 71.91 176.525 72.2186C176.455 72.5235 176.42 72.8633 176.42 73.238C176.42 73.6127 176.455 73.9525 176.525 74.2574C176.598 74.5624 176.705 74.825 176.844 75.0454C176.984 75.2659 177.155 75.4367 177.357 75.5579C177.562 75.6755 177.798 75.7342 178.062 75.7342ZM181.79 76.1255V75.883L182.611 75.7122V71.2322L181.801 70.9291V70.7693L183.543 70.2348H183.686V71.1881L183.741 71.2432V75.7122L184.551 75.883V76.1255H181.79ZM185.273 76.1255V75.883L186.088 75.7232V72.3563C186.088 71.8347 186.006 71.46 185.84 71.2322C185.679 71.0008 185.418 70.8851 185.058 70.8851C184.779 70.8851 184.512 70.9549 184.259 71.0945C184.009 71.2304 183.791 71.4269 183.603 71.6841V71.2212C183.912 70.9089 184.252 70.6665 184.623 70.4938C184.997 70.3212 185.365 70.2348 185.725 70.2348C186.228 70.2348 186.601 70.3671 186.843 70.6316C187.086 70.8924 187.207 71.3002 187.207 71.8549V75.7232L188.023 75.883V76.1255H185.273ZM188.744 76.1255V75.883L189.554 75.7232V72.3233C189.554 71.8016 189.475 71.4324 189.317 71.2157C189.163 70.9953 188.901 70.8851 188.529 70.8851C188.232 70.8851 187.96 70.9549 187.714 71.0945C187.471 71.2304 187.258 71.4269 187.075 71.6841V71.2212C187.358 70.8942 187.69 70.6481 188.072 70.4828C188.454 70.3175 188.84 70.2348 189.229 70.2348C189.722 70.2348 190.082 70.3689 190.309 70.6371C190.537 70.9053 190.658 71.3277 190.673 71.9045V75.7232L191.489 75.883V76.1255H188.744ZM192.047 76.1255V75.883L192.868 75.7122V71.2322L192.058 70.9291V70.7693L193.799 70.2348H193.943V71.1881L193.998 71.2432V75.7122L194.808 75.883V76.1255H192.047ZM195.53 76.1255V75.883L196.345 75.7232V72.3563C196.345 71.8347 196.262 71.46 196.097 71.2322C195.935 71.0008 195.675 70.8851 195.315 70.8851C195.035 70.8851 194.769 70.9549 194.516 71.0945C194.266 71.2304 194.047 71.4269 193.86 71.6841V71.2212C194.168 70.9089 194.508 70.6665 194.879 70.4938C195.254 70.3212 195.621 70.2348 195.981 70.2348C196.485 70.2348 196.858 70.3671 197.1 70.6316C197.342 70.8924 197.464 71.3002 197.464 71.8549V75.7232L198.279 75.883V76.1255H195.53ZM199.001 76.1255V75.883L199.811 75.7232V72.3233C199.811 71.8016 199.732 71.4324 199.574 71.2157C199.42 70.9953 199.157 70.8851 198.786 70.8851C198.489 70.8851 198.217 70.9549 197.971 71.0945C197.728 71.2304 197.515 71.4269 197.331 71.6841V71.2212C197.614 70.8942 197.947 70.6481 198.329 70.4828C198.711 70.3175 199.097 70.2348 199.486 70.2348C199.978 70.2348 200.338 70.3689 200.566 70.6371C200.794 70.9053 200.915 71.3277 200.93 71.9045V75.7232L201.745 75.883V76.1255H199.001ZM204.618 76.2412C204.067 76.2412 203.665 76.1145 203.411 75.861C203.158 75.6038 203.031 75.2328 203.031 74.7479V70.7583L202.216 70.5875V70.345H204.155V74.307C204.155 74.7883 204.24 75.1189 204.409 75.2989C204.581 75.4789 204.853 75.5689 205.224 75.5689C205.478 75.5689 205.726 75.5028 205.968 75.3706C206.211 75.2383 206.435 75.0307 206.64 74.7479V75.1887C206.361 75.5304 206.047 75.7912 205.698 75.9712C205.349 76.1512 204.989 76.2412 204.618 76.2412ZM206.602 76.2412V75.1557L206.541 75.1336V70.7583L205.731 70.5875V70.345H207.665V75.2879L208.415 75.5524V75.7012L206.696 76.2412H206.602ZM212.682 76.1255V75.883L213.487 75.7232V72.1855C213.487 71.7484 213.399 71.4232 213.222 71.2102C213.046 70.9934 212.761 70.8851 212.368 70.8851C211.791 70.8851 211.312 71.1477 210.93 71.6731V71.2157C211.238 70.9071 211.576 70.6665 211.944 70.4938C212.311 70.3212 212.677 70.2348 213.04 70.2348C214.087 70.2348 214.611 70.7289 214.611 71.7171V75.7232L215.426 75.883V76.1255H212.682ZM209.095 76.1255V75.883L209.921 75.7122V71.2322L209.106 70.9291V70.7693L210.869 70.2348H210.99V71.2102L211.046 71.2653V75.7122L211.856 75.883V76.1255H209.095ZM215.988 76.1255V75.883L216.826 75.7122V71.2212L216.005 70.9291V70.7583L217.834 70.2348H217.955V75.7122L218.782 75.883V76.1255H215.988ZM217.382 69.0776C217.158 69.0776 216.98 69.006 216.848 68.8627C216.716 68.7195 216.649 68.5523 216.649 68.3613C216.649 68.1519 216.716 67.9755 216.848 67.8323C216.98 67.689 217.158 67.6174 217.382 67.6174C217.61 67.6174 217.79 67.689 217.922 67.8323C218.058 67.9755 218.126 68.1519 218.126 68.3613C218.126 68.5523 218.058 68.7195 217.922 68.8627C217.79 69.006 217.61 69.0776 217.382 69.0776ZM221.313 76.2412C220.906 76.2412 220.595 76.1255 220.382 75.894C220.169 75.6626 220.062 75.3301 220.062 74.8967V70.7528H219.346L219.313 70.5544L220.966 68.9123L221.181 68.9344V70.345H222.757L222.663 70.7528H221.181V74.7865C221.181 75.3889 221.398 75.6902 221.831 75.6902C221.978 75.6902 222.123 75.6516 222.267 75.5744C222.414 75.4973 222.538 75.3908 222.641 75.2548L222.834 75.4257C222.665 75.6755 222.445 75.8738 222.173 76.0208C221.905 76.1677 221.618 76.2412 221.313 76.2412ZM224.251 78.9634C223.968 78.9634 223.738 78.8936 223.562 78.754C223.385 78.618 223.297 78.4362 223.297 78.2084C223.297 78.0284 223.354 77.8852 223.468 77.7786C223.586 77.6721 223.738 77.6188 223.925 77.6188C224.072 77.6188 224.188 77.6574 224.273 77.7345C224.357 77.8154 224.418 77.9476 224.454 78.1313C224.476 78.2709 224.502 78.3609 224.532 78.4013C224.565 78.4454 224.62 78.4674 224.697 78.4674C224.814 78.4674 224.925 78.3976 225.028 78.258C225.134 78.1221 225.239 77.898 225.342 77.5858L225.788 76.2412L223.633 71.0228C223.567 70.8869 223.475 70.7859 223.358 70.7197C223.24 70.6536 223.069 70.6095 222.845 70.5875V70.345H225.661V70.5875C225.408 70.6022 225.226 70.6242 225.116 70.6536C225.005 70.6793 224.947 70.7271 224.939 70.7969C224.932 70.8667 224.954 70.9769 225.005 71.1275L226.334 74.522H226.383L227.419 71.4416C227.526 71.1514 227.52 70.942 227.403 70.8134C227.289 70.6812 227.039 70.6059 226.653 70.5875V70.345H229.127V70.5875C228.852 70.6316 228.637 70.6848 228.483 70.7473C228.332 70.8061 228.216 70.8906 228.135 71.0008C228.055 71.1073 227.979 71.2579 227.909 71.4526L225.733 77.6629C225.656 77.8943 225.571 78.0854 225.479 78.236C225.388 78.3903 225.294 78.5115 225.198 78.5997C224.963 78.8421 224.647 78.9634 224.251 78.9634Z" fill="white"/>
</g>
<defs>
<filter id="filter0_d_37_34" x="261.407" y="6.6123" width="64.5714" height="97.5538" filterUnits="userSpaceOnUse" color-interpolation-filters="sRGB">
<feFlood flood-opacity="0" result="BackgroundImageFix"/>
<feColorMatrix in="SourceAlpha" type="matrix" values="0 0 0 0 0 0 0 0 0 0 0 0 0 0 0 0 0 0 127 0" result="hardAlpha"/>
<feOffset dy="8.8167"/>
<feGaussianBlur stdDeviation="4.40835"/>
<feComposite in2="hardAlpha" operator="out"/>
<feColorMatrix type="matrix" values="0 0 0 0 0 0 0 0 0 0 0 0 0 0 0 0 0 0 0.25 0"/>
<feBlend mode="normal" in2="BackgroundImageFix" result="effect1_dropShadow_37_34"/>
<feBlend mode="normal" in="SourceGraphic" in2="effect1_dropShadow_37_34" result="shape"/>
</filter>
<filter id="filter1_d_37_34" x="0.183297" y="6.6123" width="64.5714" height="97.5533" filterUnits="userSpaceOnUse" color-interpolation-filters="sRGB">
<feFlood flood-opacity="0" result="BackgroundImageFix"/>
<feColorMatrix in="SourceAlpha" type="matrix" values="0 0 0 0 0 0 0 0 0 0 0 0 0 0 0 0 0 0 127 0" result="hardAlpha"/>
<feOffset dy="8.8167"/>
<feGaussianBlur stdDeviation="4.40835"/>
<feComposite in2="hardAlpha" operator="out"/>
<feColorMatrix type="matrix" values="0 0 0 0 0 0 0 0 0 0 0 0 0 0 0 0 0 0 0.25 0"/>
<feBlend mode="normal" in2="BackgroundImageFix" result="effect1_dropShadow_37_34"/>
<feBlend mode="normal" in="SourceGraphic" in2="effect1_dropShadow_37_34" result="shape"/>
</filter>
<filter id="filter2_d_37_34" x="87.5756" y="36.5806" width="161.009" height="38.3307" filterUnits="userSpaceOnUse" color-interpolation-filters="sRGB">
<feFlood flood-opacity="0" result="BackgroundImageFix"/>
<feColorMatrix in="SourceAlpha" type="matrix" values="0 0 0 0 0 0 0 0 0 0 0 0 0 0 0 0 0 0 127 0" result="hardAlpha"/>
<feOffset dy="8.8167"/>
<feGaussianBlur stdDeviation="4.40835"/>
<feComposite in2="hardAlpha" operator="out"/>
<feColorMatrix type="matrix" values="0 0 0 0 0 0 0 0 0 0 0 0 0 0 0 0 0 0 0.25 0"/>
<feBlend mode="normal" in2="BackgroundImageFix" result="effect1_dropShadow_37_34"/>
<feBlend mode="normal" in="SourceGraphic" in2="effect1_dropShadow_37_34" result="shape"/>
</filter>
<filter id="filter3_d_37_34" x="100.717" y="67.0718" width="137.227" height="29.525" filterUnits="userSpaceOnUse" color-interpolation-filters="sRGB">
<feFlood flood-opacity="0" result="BackgroundImageFix"/>
<feColorMatrix in="SourceAlpha" type="matrix" values="0 0 0 0 0 0 0 0 0 0 0 0 0 0 0 0 0 0 127 0" result="hardAlpha"/>
<feOffset dy="8.8167"/>
<feGaussianBlur stdDeviation="4.40835"/>
<feComposite in2="hardAlpha" operator="out"/>
<feColorMatrix type="matrix" values="0 0 0 0 0 0 0 0 0 0 0 0 0 0 0 0 0 0 0.25 0"/>
<feBlend mode="normal" in2="BackgroundImageFix" result="effect1_dropShadow_37_34"/>
<feBlend mode="normal" in="SourceGraphic" in2="effect1_dropShadow_37_34" result="shape"/>
</filter>
</defs>
</svg>
