<svg width="114" height="81" viewBox="0 0 114 81" fill="none" xmlns="http://www.w3.org/2000/svg">
<g filter="url(#filter0_d_7_22)">
<g filter="url(#filter1_d_7_22)">
<path d="M43.2529 0.679382L80.7111 60.7252H5.7948L43.2529 0.679382Z" fill="url(#paint0_linear_7_22)"/>
<path d="M5.85362 60.6925L43.2529 0.741037L80.6523 60.6925H5.85362Z" stroke="black" stroke-opacity="0.5" stroke-width="0.0652672"/>
<g style="mix-blend-mode:darken">
<path d="M70.7471 0.679382L108.205 60.7252H33.2889L70.7471 0.679382Z" fill="url(#paint1_linear_7_22)"/>
<path d="M33.3478 60.6925L70.7471 0.741037L108.146 60.6925H33.3478Z" stroke="black" stroke-opacity="0.5" stroke-width="0.0652672"/>
</g>
<path d="M56.9999 22.6526L80.6804 60.7252H56.8745H33.0686L56.9999 22.6526Z" fill="#BCC8F1"/>
</g>
<g filter="url(#filter2_d_7_22)">
<path d="M76.918 46.3767L82.6068 40.331L76.918 34.2853L78.6524 32.4427L86.0755 40.331L78.6524 48.2193L76.918 46.3767Z" fill="url(#paint2_linear_7_22)" shape-rendering="crispEdges"/>
<path d="M76.918 46.3767L82.6068 40.331L76.918 34.2853L78.6524 32.4427L86.0755 40.331L78.6524 48.2193L76.918 46.3767Z" stroke="#3D3B3B" stroke-opacity="0.9" stroke-width="0.0435115" shape-rendering="crispEdges"/>
</g>
<g filter="url(#filter3_d_7_22)">
<path d="M35.1104 46.3766L29.4159 40.3309L35.1047 34.2853L33.3703 32.4427L25.9529 40.3309L33.3761 48.2192L35.1104 46.3766Z" fill="url(#paint3_linear_7_22)" shape-rendering="crispEdges"/>
<path d="M29.4 40.316L29.386 40.331L29.4 40.3459L35.0806 46.3766L33.3761 48.1875L25.9827 40.3309L33.3703 32.4744L35.0748 34.2853L29.4 40.316Z" stroke="#3D3B3B" stroke-opacity="0.9" stroke-width="0.0435115" shape-rendering="crispEdges"/>
</g>
<path d="M50.2135 40.6565V40.5025L50.7371 40.3855V36.2308L50.2135 36.1138V35.966H51.7503C52.0789 35.966 52.3612 35.9803 52.5973 36.0091C52.8355 36.0378 53.0428 36.0851 53.2194 36.1508C53.398 36.2144 53.5592 36.3006 53.7029 36.4095C53.9822 36.6168 54.1978 36.8868 54.3497 37.2194C54.5016 37.55 54.5776 37.9165 54.5776 38.3189C54.5776 38.7337 54.4965 39.1156 54.3343 39.4646C54.1721 39.8116 53.9483 40.0888 53.6629 40.2962C53.4822 40.4255 53.2851 40.5179 53.0716 40.5733C52.858 40.6288 52.5973 40.6565 52.2893 40.6565H50.2135ZM52.0614 40.4132C52.353 40.4132 52.5922 40.3762 52.779 40.3023C52.9658 40.2263 53.1311 40.1021 53.2748 39.9297C53.4329 39.7326 53.553 39.4913 53.6352 39.2059C53.7194 38.9185 53.7614 38.6012 53.7614 38.2543C53.7614 37.9073 53.7194 37.6003 53.6352 37.3334C53.551 37.0665 53.4268 36.8427 53.2625 36.662C53.1126 36.5039 52.934 36.391 52.7266 36.3232C52.5193 36.2534 52.2503 36.2185 51.9197 36.2185H51.43V40.0467C51.43 40.1843 51.4762 40.2797 51.5686 40.3331C51.661 40.3865 51.8253 40.4132 52.0614 40.4132ZM55.14 40.6565V40.5087L55.6636 40.3855V36.2308L55.14 36.1138V35.966H58.577L58.6848 37.3057H58.5216C58.4723 37.1332 58.4118 36.9525 58.3399 36.7636C58.2701 36.5727 58.1839 36.391 58.0812 36.2185H56.3565V40.4009H58.0504C58.1715 40.2038 58.2701 40.0087 58.3461 39.8157C58.4241 39.6227 58.498 39.4277 58.5678 39.2305H58.7834L58.5524 40.6565H55.14ZM57.6346 39.0365C57.6141 38.9133 57.5853 38.7912 57.5484 38.67C57.5114 38.5489 57.4632 38.4288 57.4036 38.3097H56.2703V38.0541H57.4036C57.4632 37.9329 57.5104 37.8118 57.5453 37.6907C57.5823 37.5675 57.612 37.4463 57.6346 37.3272H57.7948V39.0365H57.6346ZM61.2747 40.7212L59.6639 36.4865C59.6311 36.3941 59.5931 36.3232 59.55 36.2739C59.5089 36.2226 59.4494 36.1857 59.3713 36.1631C59.2933 36.1405 59.1835 36.1241 59.0418 36.1138V35.966H61.0899V36.1138C60.8722 36.1261 60.7152 36.1425 60.6187 36.1631C60.5242 36.1816 60.4719 36.2165 60.4616 36.2678C60.4534 36.3171 60.4677 36.3961 60.5047 36.5049L61.5395 39.4831L61.5765 39.48L62.522 36.779C62.5754 36.6312 62.5949 36.5142 62.5805 36.4279C62.5661 36.3417 62.5086 36.275 62.408 36.2277C62.3095 36.1805 62.1586 36.1425 61.9553 36.1138V35.966H63.6923V36.1138C63.4808 36.1446 63.3207 36.1846 63.2118 36.2339C63.1051 36.2832 63.025 36.352 62.9716 36.4403C62.9182 36.5265 62.8659 36.6435 62.8146 36.7914L61.4009 40.7212H61.2747ZM49.8127 48.7212C49.3713 48.7212 48.9822 48.6206 48.6455 48.4193C48.3108 48.2181 48.049 47.9389 47.8601 47.5816C47.6733 47.2223 47.5799 46.8086 47.5799 46.3405C47.5799 45.9832 47.6343 45.6557 47.7431 45.358C47.854 45.0603 48.01 44.8026 48.2112 44.585C48.4124 44.3674 48.6506 44.199 48.9257 44.0799C49.2009 43.9608 49.5027 43.9013 49.8312 43.9013C50.0735 43.9013 50.3086 43.9341 50.5365 43.9998C50.7664 44.0635 50.9738 44.1559 51.1586 44.277H51.1832L51.4789 43.966H51.599V45.3796H51.3988C51.3639 45.2667 51.3249 45.165 51.2818 45.0747C51.2407 44.9844 51.1966 44.9012 51.1493 44.8252C51.0056 44.5953 50.8362 44.431 50.6412 44.3325C50.4461 44.2339 50.2141 44.1846 49.9451 44.1846C49.4483 44.1846 49.0654 44.3663 48.7964 44.7298C48.5295 45.0932 48.396 45.6147 48.396 46.2943C48.396 46.9739 48.5305 47.4995 48.7995 47.8711C49.0705 48.2428 49.4524 48.4286 49.9451 48.4286C50.1895 48.4286 50.4102 48.3803 50.6073 48.2838C50.8044 48.1853 50.9687 48.0416 51.1001 47.8527C51.176 47.7459 51.2407 47.6248 51.2941 47.4893C51.3495 47.3537 51.3916 47.2059 51.4204 47.0458H51.599V48.6565H51.4419L51.1647 48.2561C50.9471 48.4183 50.7295 48.5364 50.5118 48.6103C50.2962 48.6842 50.0632 48.7212 49.8127 48.7212ZM54.5526 48.7212C54.2282 48.7212 53.9294 48.6606 53.6563 48.5395C53.3853 48.4163 53.1492 48.2459 52.948 48.0282C52.7488 47.8085 52.5938 47.5529 52.4829 47.2613C52.3741 46.9677 52.3197 46.6505 52.3197 46.3097C52.3197 45.9668 52.3741 45.6496 52.4829 45.358C52.5938 45.0665 52.7488 44.8119 52.948 44.5942C53.1492 44.3746 53.3853 44.2041 53.6563 44.083C53.9294 43.9619 54.2282 43.9013 54.5526 43.9013C54.877 43.9013 55.1757 43.9619 55.4488 44.083C55.7219 44.2041 55.958 44.3746 56.1571 44.5942C56.3584 44.8119 56.5144 45.0665 56.6253 45.358C56.7361 45.6496 56.7916 45.9668 56.7916 46.3097C56.7916 46.6505 56.7361 46.9677 56.6253 47.2613C56.5144 47.5529 56.3584 47.8085 56.1571 48.0282C55.958 48.2459 55.7219 48.4163 55.4488 48.5395C55.1757 48.6606 54.877 48.7212 54.5526 48.7212ZM54.5526 48.4317C54.7353 48.4317 54.9006 48.3988 55.0484 48.3331C55.1983 48.2674 55.3297 48.173 55.4426 48.0498C55.5576 47.9245 55.6541 47.7746 55.7321 47.6001C55.8102 47.4256 55.8687 47.2285 55.9077 47.0088C55.9467 46.7891 55.9662 46.5509 55.9662 46.2943C55.9662 46.0417 55.9467 45.8077 55.9077 45.5921C55.8687 45.3745 55.8112 45.1794 55.7352 45.0069C55.6592 44.8345 55.5638 44.6877 55.4488 44.5665C55.3359 44.4433 55.2045 44.3499 55.0546 44.2863C54.9067 44.2206 54.7415 44.1877 54.5587 44.1877C54.376 44.1877 54.2097 44.2206 54.0598 44.2863C53.9099 44.3499 53.7775 44.4433 53.6625 44.5665C53.5496 44.6897 53.4541 44.8386 53.3761 45.0131C53.3001 45.1856 53.2426 45.3806 53.2036 45.5983C53.1646 45.8159 53.1451 46.052 53.1451 46.3066C53.1451 46.5612 53.1646 46.7973 53.2036 47.015C53.2426 47.2326 53.3001 47.4287 53.3761 47.6032C53.4541 47.7777 53.5496 47.9266 53.6625 48.0498C53.7754 48.173 53.9058 48.2674 54.0536 48.3331C54.2035 48.3988 54.3698 48.4317 54.5526 48.4317ZM57.3355 48.6565V48.5025L57.8591 48.3855V44.2308L57.3355 44.1138V43.966H58.8724C59.2009 43.966 59.4832 43.9803 59.7193 44.0091C59.9575 44.0378 60.1649 44.0851 60.3414 44.1508C60.5201 44.2144 60.6812 44.3006 60.825 44.4095C61.1042 44.6168 61.3198 44.8868 61.4717 45.2194C61.6236 45.55 61.6996 45.9165 61.6996 46.3189C61.6996 46.7337 61.6185 47.1156 61.4563 47.4646C61.2941 47.8116 61.0703 48.0888 60.7849 48.2962C60.6042 48.4255 60.4071 48.5179 60.1936 48.5733C59.9801 48.6288 59.7193 48.6565 59.4113 48.6565H57.3355ZM59.1834 48.4132C59.475 48.4132 59.7142 48.3762 59.901 48.3023C60.0879 48.2263 60.2531 48.1021 60.3969 47.9297C60.555 47.7326 60.6751 47.4913 60.7572 47.2059C60.8414 46.9185 60.8835 46.6012 60.8835 46.2543C60.8835 45.9073 60.8414 45.6003 60.7572 45.3334C60.673 45.0665 60.5488 44.8427 60.3845 44.662C60.2347 44.5039 60.056 44.391 59.8487 44.3232C59.6413 44.2534 59.3723 44.2185 59.0418 44.2185H58.5521V48.0467C58.5521 48.1843 58.5983 48.2797 58.6907 48.3331C58.7831 48.3865 58.9473 48.4132 59.1834 48.4132ZM62.262 48.6565V48.5087L62.7856 48.3855V44.2308L62.262 44.1138V43.966H65.6991L65.8069 45.3057H65.6436C65.5944 45.1332 65.5338 44.9525 65.4619 44.7636C65.3921 44.5727 65.3059 44.391 65.2032 44.2185H63.4785V48.4009H65.1724C65.2936 48.2038 65.3921 48.0087 65.4681 47.8157C65.5461 47.6227 65.62 47.4277 65.6898 47.2305H65.9054L65.6744 48.6565H62.262ZM64.7567 47.0365C64.7361 46.9133 64.7074 46.7912 64.6704 46.67C64.6335 46.5489 64.5852 46.4288 64.5257 46.3097H63.3923V46.0541H64.5257C64.5852 45.9329 64.6324 45.8118 64.6673 45.6907C64.7043 45.5675 64.7341 45.4463 64.7567 45.3272H64.9168V47.0365H64.7567Z" fill="url(#paint4_diamond_7_22)"/>
<path d="M50.2135 40.5025L50.211 40.491V40.5025H50.2135ZM50.7371 40.3855L50.7397 40.397V40.3855H50.7371ZM50.7371 36.2308H50.7489L50.7376 36.2283L50.7371 36.2308ZM50.2135 36.1138H50.2018L50.213 36.1163L50.2135 36.1138ZM52.5973 36.0091L52.597 36.0116H52.597L52.5973 36.0091ZM53.2194 36.1508L53.2185 36.1532L53.2185 36.1532L53.2194 36.1508ZM53.7029 36.4095L53.7014 36.4115L53.7014 36.4115L53.7029 36.4095ZM54.3497 37.2194L54.3474 37.2205L54.3474 37.2205L54.3497 37.2194ZM54.3343 39.4646L54.3366 39.4657L54.3366 39.4657L54.3343 39.4646ZM53.6629 40.2962L53.6644 40.2982L53.6644 40.2982L53.6629 40.2962ZM53.0716 40.5733L53.0722 40.5758L53.0716 40.5733ZM52.779 40.3023L52.7799 40.3047L52.78 40.3047L52.779 40.3023ZM53.2748 39.9297L53.2768 39.9313L53.2768 39.9313L53.2748 39.9297ZM53.6352 39.2059L53.6327 39.2052L53.6327 39.2052L53.6352 39.2059ZM53.6352 37.3334L53.6327 37.3342L53.6352 37.3334ZM53.2625 36.662L53.2644 36.6603L53.2644 36.6602L53.2625 36.662ZM52.7266 36.3232L52.7258 36.3257L52.7258 36.3257L52.7266 36.3232ZM51.5686 40.3331L51.5673 40.3353L51.5686 40.3331ZM50.2161 40.6565V40.5025H50.211V40.6565H50.2161ZM50.2141 40.505L50.7376 40.388L50.7365 40.383L50.213 40.5L50.2141 40.505ZM50.7397 40.3855V36.2308H50.7345V40.3855H50.7397ZM50.7376 36.2283L50.2141 36.1113L50.213 36.1163L50.7365 36.2333L50.7376 36.2283ZM50.2161 36.1138V35.966H50.211V36.1138H50.2161ZM50.2135 35.9685H51.7503V35.9634H50.2135V35.9685ZM51.7503 35.9685C52.0788 35.9685 52.361 35.9829 52.597 36.0116L52.5976 36.0065C52.3613 35.9778 52.0789 35.9634 51.7503 35.9634V35.9685ZM52.597 36.0116C52.835 36.0404 53.0422 36.0875 53.2185 36.1532L53.2203 36.1483C53.0435 36.0826 52.8359 36.0353 52.5976 36.0065L52.597 36.0116ZM53.2185 36.1532C53.3969 36.2167 53.5579 36.3028 53.7014 36.4115L53.7045 36.4074C53.5605 36.2984 53.3991 36.2121 53.2203 36.1483L53.2185 36.1532ZM53.7014 36.4115C53.9803 36.6186 54.1956 36.8883 54.3474 37.2205L54.352 37.2184C54.1999 36.8854 53.9841 36.615 53.7045 36.4074L53.7014 36.4115ZM54.3474 37.2205C54.4991 37.5507 54.575 37.9168 54.575 38.3189H54.5802C54.5802 37.9162 54.5041 37.5493 54.352 37.2184L54.3474 37.2205ZM54.575 38.3189C54.575 38.7333 54.494 39.1149 54.332 39.4635L54.3366 39.4657C54.499 39.1163 54.5802 38.734 54.5802 38.3189H54.575ZM54.332 39.4635C54.1699 39.8102 53.9464 40.087 53.6614 40.2941L53.6644 40.2982C53.9502 40.0906 54.1742 39.813 54.3366 39.4657L54.332 39.4635ZM53.6614 40.2941C53.481 40.4232 53.2842 40.5155 53.0709 40.5709L53.0722 40.5758C53.2861 40.5203 53.4835 40.4278 53.6644 40.2982L53.6614 40.2941ZM53.0709 40.5709C52.8577 40.6262 52.5971 40.6539 52.2893 40.6539V40.6591C52.5974 40.6591 52.8584 40.6313 53.0722 40.5758L53.0709 40.5709ZM52.2893 40.6539H50.2135V40.6591H52.2893V40.6539ZM52.0614 40.4158C52.3531 40.4158 52.5927 40.3788 52.7799 40.3047L52.778 40.2999C52.5916 40.3737 52.3528 40.4106 52.0614 40.4106V40.4158ZM52.78 40.3047C52.9672 40.2286 53.1328 40.1041 53.2768 39.9313L53.2729 39.928C53.1294 40.1002 52.9644 40.2241 52.778 40.2999L52.78 40.3047ZM53.2768 39.9313C53.4352 39.7339 53.5554 39.4923 53.6376 39.2066L53.6327 39.2052C53.5507 39.4903 53.4307 39.7313 53.2728 39.9281L53.2768 39.9313ZM53.6376 39.2066C53.7219 38.9189 53.764 38.6015 53.764 38.2543H53.7589C53.7589 38.601 53.7168 38.918 53.6327 39.2052L53.6376 39.2066ZM53.764 38.2543C53.764 37.9071 53.7219 37.5998 53.6376 37.3326L53.6327 37.3342C53.7168 37.6008 53.7589 37.9075 53.7589 38.2543H53.764ZM53.6376 37.3326C53.5533 37.0654 53.429 36.8413 53.2644 36.6603L53.2606 36.6637C53.4246 36.8441 53.5486 37.0676 53.6327 37.3342L53.6376 37.3326ZM53.2644 36.6602C53.1142 36.5018 52.9352 36.3887 52.7274 36.3208L52.7258 36.3257C52.9328 36.3933 53.1111 36.506 53.2607 36.6638L53.2644 36.6602ZM52.7275 36.3208C52.5197 36.2509 52.2504 36.2159 51.9197 36.2159V36.2211C52.2501 36.2211 52.5188 36.256 52.7258 36.3257L52.7275 36.3208ZM51.9197 36.2159H51.43V36.2211H51.9197V36.2159ZM51.4275 36.2185V40.0467H51.4326V36.2185H51.4275ZM51.4275 40.0467C51.4275 40.1849 51.4739 40.2814 51.5673 40.3353L51.5699 40.3309C51.4785 40.2781 51.4326 40.1836 51.4326 40.0467H51.4275ZM51.5673 40.3353C51.6604 40.3891 51.8253 40.4158 52.0614 40.4158V40.4106C51.8253 40.4106 51.6617 40.3839 51.5699 40.3309L51.5673 40.3353ZM55.14 40.5087L55.1374 40.4978V40.5087H55.14ZM55.6636 40.3855L55.6661 40.3964V40.3855H55.6636ZM55.6636 36.2308H55.6753L55.6641 36.2283L55.6636 36.2308ZM55.14 36.1138H55.1282L55.1394 36.1163L55.14 36.1138ZM58.577 35.966L58.6089 35.9634H58.577V35.966ZM58.6848 37.3057V37.2737L58.6874 37.3055L58.6848 37.3057ZM58.5216 37.3057L58.5126 37.3082H58.5216V37.3057ZM58.3399 36.7636L58.3375 36.7645L58.3375 36.7645L58.3399 36.7636ZM58.0812 36.2185L58.0855 36.2159H58.0812V36.2185ZM58.0504 40.4009V40.4058L58.0526 40.4022L58.0504 40.4009ZM58.3461 39.8157L58.3437 39.8147L58.3437 39.8148L58.3461 39.8157ZM58.5678 39.2305V39.2229L58.5654 39.2297L58.5678 39.2305ZM58.7834 39.2305L58.7675 39.228H58.7834V39.2305ZM58.5524 40.6565V40.6725L58.5549 40.6569L58.5524 40.6565ZM57.6346 39.0365L57.6192 39.0391H57.6346V39.0365ZM57.4036 38.3097L57.4088 38.3071H57.4036V38.3097ZM57.4036 38.0541V38.0599L57.4059 38.0552L57.4036 38.0541ZM57.5453 37.6907L57.5429 37.6899L57.5428 37.6899L57.5453 37.6907ZM57.6346 37.3272V37.3135L57.6321 37.3268L57.6346 37.3272ZM55.1426 40.6565V40.5087H55.1374V40.6565H55.1426ZM55.1406 40.5112L55.6641 40.388L55.663 40.383L55.1394 40.5062L55.1406 40.5112ZM55.6661 40.3855V36.2308H55.661V40.3855H55.6661ZM55.6641 36.2283L55.1406 36.1113L55.1394 36.1163L55.663 36.2333L55.6641 36.2283ZM55.1426 36.1138V35.966H55.1374V36.1138H55.1426ZM55.14 35.9685H58.577V35.9634H55.14V35.9685ZM58.5745 35.9662L58.6823 37.3059L58.6874 37.3055L58.5796 35.9658L58.5745 35.9662ZM58.6848 37.3031H58.5216V37.3082H58.6848V37.3031ZM58.5241 37.305C58.4748 37.1324 58.4142 36.9517 58.3423 36.7627L58.3375 36.7645C58.4093 36.9534 58.4699 37.134 58.5191 37.3064L58.5241 37.305ZM58.3423 36.7628C58.2724 36.5717 58.1861 36.3898 58.0834 36.2172L58.079 36.2198C58.1816 36.3922 58.2677 36.5737 58.3375 36.7645L58.3423 36.7628ZM58.0812 36.2159H56.3565V36.2211H58.0812V36.2159ZM56.3539 36.2185V40.4009H56.3591V36.2185H56.3539ZM56.3565 40.4034H58.0504V40.3983H56.3565V40.4034ZM58.0526 40.4022C58.1738 40.205 58.2724 40.0098 58.3484 39.8167L58.3437 39.8148C58.2678 40.0076 58.1693 40.2025 58.0482 40.3995L58.0526 40.4022ZM58.3484 39.8167C58.4265 39.6236 58.5004 39.4285 58.5702 39.2314L58.5654 39.2297C58.4956 39.4268 58.4217 39.6218 58.3437 39.8147L58.3484 39.8167ZM58.5678 39.2331H58.7834V39.228H58.5678V39.2331ZM58.7809 39.2301L58.5499 40.6561L58.5549 40.6569L58.7859 39.231L58.7809 39.2301ZM58.5524 40.6539H55.14V40.6591H58.5524V40.6539ZM57.6372 39.0361C57.6166 38.9128 57.5878 38.7905 57.5508 38.6693L57.5459 38.6708C57.5829 38.7918 57.6116 38.9139 57.6321 39.0369L57.6372 39.0361ZM57.5508 38.6693C57.5138 38.548 57.4655 38.4277 57.4059 38.3085L57.4013 38.3108C57.4608 38.4298 57.509 38.5498 57.5459 38.6708L57.5508 38.6693ZM57.4036 38.3071H56.2703V38.3123H57.4036V38.3071ZM56.2728 38.3097V38.0541H56.2677V38.3097H56.2728ZM56.2703 38.0566H57.4036V38.0515H56.2703V38.0566ZM57.4059 38.0552C57.4655 37.9339 57.5128 37.8127 57.5478 37.6914L57.5428 37.6899C57.508 37.8109 57.4608 37.9319 57.4013 38.0529L57.4059 38.0552ZM57.5478 37.6914C57.5848 37.5681 57.6145 37.4469 57.6371 37.3277L57.6321 37.3268C57.6095 37.4458 57.5798 37.5668 57.5429 37.6899L57.5478 37.6914ZM57.6346 37.3298H57.7948V37.3247H57.6346V37.3298ZM57.7922 37.3272V39.0365H57.7973V37.3272H57.7922ZM57.7948 39.034H57.6346V39.0391H57.7948V39.034ZM61.2747 40.7212L61.2679 40.7237H61.2747V40.7212ZM59.6639 36.4865L59.6615 36.4873L59.6615 36.4874L59.6639 36.4865ZM59.55 36.2739L59.548 36.2756L59.548 36.2756L59.55 36.2739ZM59.3713 36.1631L59.3721 36.1606L59.3713 36.1631ZM59.0418 36.1138H59.0063L59.0416 36.1164L59.0418 36.1138ZM61.0899 36.1138L61.0924 36.1591V36.1138H61.0899ZM60.6187 36.1631L60.6192 36.1656L60.6192 36.1656L60.6187 36.1631ZM60.4616 36.2678L60.4591 36.2673L60.4591 36.2674L60.4616 36.2678ZM60.5047 36.5049L60.5023 36.5058L60.5023 36.5058L60.5047 36.5049ZM61.5395 39.4831L61.5298 39.4865L61.5397 39.4857L61.5395 39.4831ZM61.5765 39.48L61.577 39.4863L61.5789 39.4809L61.5765 39.48ZM62.522 36.779L62.5196 36.7782L62.5196 36.7782L62.522 36.779ZM62.5805 36.4279L62.578 36.4284L62.5805 36.4279ZM62.408 36.2277L62.4069 36.2301L62.4069 36.2301L62.408 36.2277ZM61.9553 36.1138H61.937L61.9549 36.1163L61.9553 36.1138ZM63.6923 36.1138L63.6949 36.1314V36.1138H63.6923ZM63.2118 36.2339L63.2108 36.2316L63.2108 36.2316L63.2118 36.2339ZM62.9716 36.4403L62.9738 36.4416L62.9738 36.4416L62.9716 36.4403ZM62.8146 36.7914L62.817 36.7922L62.817 36.7922L62.8146 36.7914ZM61.4009 40.7212V40.7288L61.4033 40.722L61.4009 40.7212ZM61.2771 40.7203L59.6663 36.4855L59.6615 36.4874L61.2723 40.7221L61.2771 40.7203ZM59.6663 36.4856C59.6334 36.393 59.5953 36.3219 59.5519 36.2723L59.548 36.2756C59.5909 36.3246 59.6287 36.3951 59.6615 36.4873L59.6663 36.4856ZM59.552 36.2723C59.5105 36.2205 59.4505 36.1833 59.3721 36.1606L59.3706 36.1655C59.4483 36.188 59.5073 36.2247 59.548 36.2755L59.552 36.2723ZM59.3721 36.1606C59.2938 36.1379 59.1837 36.1215 59.042 36.1112L59.0416 36.1164C59.1832 36.1266 59.2929 36.143 59.3706 36.1655L59.3721 36.1606ZM59.0444 36.1138V35.966H59.0392V36.1138H59.0444ZM59.0418 35.9685H61.0899V35.9634H59.0418V35.9685ZM61.0873 35.966V36.1138H61.0924V35.966H61.0873ZM61.0897 36.1112C60.8721 36.1236 60.7148 36.14 60.6181 36.1606L60.6192 36.1656C60.7155 36.1451 60.8724 36.1287 61.09 36.1164L61.0897 36.1112ZM60.6182 36.1606C60.5236 36.1791 60.4697 36.2143 60.4591 36.2673L60.4641 36.2683C60.474 36.2186 60.5248 36.184 60.6192 36.1656L60.6182 36.1606ZM60.4591 36.2674C60.4507 36.3173 60.4653 36.3969 60.5023 36.5058L60.5071 36.5041C60.4702 36.3953 60.456 36.3168 60.4641 36.2682L60.4591 36.2674ZM60.5023 36.5058L61.5371 39.4839L61.5419 39.4823L60.5071 36.5041L60.5023 36.5058ZM61.5397 39.4857L61.5767 39.4826L61.5763 39.4775L61.5393 39.4805L61.5397 39.4857ZM61.5789 39.4809L62.5244 36.7799L62.5196 36.7782L61.5741 39.4792L61.5789 39.4809ZM62.5244 36.7799C62.5778 36.6319 62.5975 36.5144 62.583 36.4275L62.578 36.4284C62.5922 36.5139 62.5729 36.6305 62.5196 36.7782L62.5244 36.7799ZM62.583 36.4275C62.5685 36.3402 62.5103 36.2729 62.4091 36.2254L62.4069 36.2301C62.507 36.277 62.5638 36.3432 62.578 36.4284L62.583 36.4275ZM62.4091 36.2254C62.3102 36.178 62.159 36.14 61.9557 36.1113L61.9549 36.1163C62.1581 36.1451 62.3087 36.183 62.4069 36.2301L62.4091 36.2254ZM61.9579 36.1138V35.966H61.9527V36.1138H61.9579ZM61.9553 35.9685H63.6923V35.9634H61.9553V35.9685ZM63.6897 35.966V36.1138H63.6949V35.966H63.6897ZM63.6919 36.1113C63.4804 36.1421 63.3199 36.1821 63.2108 36.2316L63.2129 36.2362C63.3214 36.1871 63.4813 36.1471 63.6927 36.1163L63.6919 36.1113ZM63.2108 36.2316C63.1036 36.281 63.0231 36.3501 62.9694 36.4389L62.9738 36.4416C63.0269 36.3538 63.1066 36.2853 63.2129 36.2362L63.2108 36.2316ZM62.9694 36.4389C62.9159 36.5254 62.8635 36.6426 62.8121 36.7905L62.817 36.7922C62.8683 36.6445 62.9206 36.5276 62.9738 36.4416L62.9694 36.4389ZM62.8121 36.7905L61.3985 40.7203L61.4033 40.722L62.817 36.7922L62.8121 36.7905ZM61.4009 40.7186H61.2747V40.7237H61.4009V40.7186ZM48.6455 48.4193L48.6442 48.4215L48.6442 48.4216L48.6455 48.4193ZM47.8601 47.5816L47.8578 47.5828L47.8579 47.5828L47.8601 47.5816ZM47.7431 45.358L47.7407 45.3571L47.7407 45.3572L47.7431 45.358ZM48.2112 44.585L48.2131 44.5867L48.2112 44.585ZM50.5365 43.9998L50.5358 44.0023L50.5358 44.0023L50.5365 43.9998ZM51.1586 44.277L51.1569 44.2796H51.1586V44.277ZM51.1832 44.277V44.2808L51.1851 44.2788L51.1832 44.277ZM51.4789 43.966V43.9622L51.477 43.9642L51.4789 43.966ZM51.3988 45.3796L51.3905 45.3822H51.3988V45.3796ZM51.2818 45.0747L51.2794 45.0758L51.2795 45.0758L51.2818 45.0747ZM51.1493 44.8252L51.1515 44.8239L51.1515 44.8239L51.1493 44.8252ZM50.6412 44.3325L50.64 44.3348L50.6412 44.3325ZM48.7964 44.7298L48.7943 44.7282L48.7943 44.7282L48.7964 44.7298ZM48.7995 47.8711L48.7974 47.8727L48.7974 47.8727L48.7995 47.8711ZM50.6073 48.2838L50.6084 48.2861L50.6085 48.2861L50.6073 48.2838ZM51.1001 47.8527L51.098 47.8512L51.098 47.8512L51.1001 47.8527ZM51.2941 47.4893L51.2917 47.4883L51.2917 47.4883L51.2941 47.4893ZM51.4204 47.0458V47.0312L51.4178 47.0453L51.4204 47.0458ZM51.4419 48.6565L51.4382 48.6591H51.4419V48.6565ZM51.1647 48.2561L51.1043 48.298L51.1632 48.2541L51.1647 48.2561ZM50.5118 48.6103L50.511 48.6079L50.511 48.6079L50.5118 48.6103ZM49.8127 48.7186C49.3717 48.7186 48.9831 48.6181 48.6468 48.4171L48.6442 48.4216C48.9813 48.623 49.3709 48.7237 49.8127 48.7237V48.7186ZM48.6468 48.4172C48.3125 48.2162 48.0511 47.9373 47.8624 47.5804L47.8579 47.5828C48.047 47.9405 48.3091 48.2201 48.6442 48.4215L48.6468 48.4172ZM47.8624 47.5805C47.6758 47.2216 47.5824 46.8083 47.5824 46.3405H47.5773C47.5773 46.809 47.6708 47.2231 47.8578 47.5828L47.8624 47.5805ZM47.5824 46.3405C47.5824 45.9835 47.6368 45.6563 47.7455 45.3589L47.7407 45.3572C47.6318 45.6552 47.5773 45.983 47.5773 46.3405H47.5824ZM47.7455 45.3589C47.8563 45.0615 48.0121 44.8041 48.2131 44.5867L48.2093 44.5833C48.0079 44.8012 47.8517 45.0591 47.7407 45.3571L47.7455 45.3589ZM48.2131 44.5867C48.4141 44.3694 48.652 44.2012 48.9268 44.0823L48.9247 44.0776C48.6493 44.1968 48.4108 44.3654 48.2093 44.5833L48.2131 44.5867ZM48.9268 44.0823C49.2015 43.9633 49.503 43.9039 49.8312 43.9039V43.8987C49.5024 43.8987 49.2002 43.9583 48.9247 44.0776L48.9268 44.0823ZM49.8312 43.9039C50.0732 43.9039 50.3081 43.9367 50.5358 44.0023L50.5372 43.9974C50.309 43.9316 50.0737 43.8987 49.8312 43.8987V43.9039ZM50.5358 44.0023C50.7655 44.0659 50.9726 44.1582 51.1572 44.2792L51.16 44.2749C50.975 44.1536 50.7673 44.0611 50.5372 43.9974L50.5358 44.0023ZM51.1586 44.2796H51.1832V44.2745H51.1586V44.2796ZM51.1851 44.2788L51.4807 43.9677L51.477 43.9642L51.1814 44.2753L51.1851 44.2788ZM51.4789 43.9685H51.599V43.9634H51.4789V43.9685ZM51.5964 43.966V45.3796H51.6016V43.966H51.5964ZM51.599 45.377H51.3988V45.3822H51.599V45.377ZM51.4013 45.3788C51.3663 45.2658 51.3273 45.1641 51.2841 45.0736L51.2795 45.0758C51.3225 45.166 51.3615 45.2675 51.3964 45.3804L51.4013 45.3788ZM51.2841 45.0736C51.243 44.9832 51.1988 44.8999 51.1515 44.8239L51.1472 44.8266C51.1943 44.9024 51.2384 44.9855 51.2794 45.0758L51.2841 45.0736ZM51.1515 44.8239C51.0076 44.5936 50.8379 44.429 50.6423 44.3302L50.64 44.3348C50.8346 44.4331 51.0036 44.5969 51.1472 44.8266L51.1515 44.8239ZM50.6423 44.3302C50.4469 44.2314 50.2144 44.1821 49.9451 44.1821V44.1872C50.2138 44.1872 50.4454 44.2364 50.64 44.3348L50.6423 44.3302ZM49.9451 44.1821C49.4476 44.1821 49.0638 44.3641 48.7943 44.7282L48.7984 44.7313C49.0669 44.3686 49.449 44.1872 49.9451 44.1872V44.1821ZM48.7943 44.7282C48.527 45.0923 48.3934 45.6144 48.3934 46.2943H48.3986C48.3986 45.615 48.532 45.0941 48.7985 44.7313L48.7943 44.7282ZM48.3934 46.2943C48.3934 46.9742 48.528 47.5004 48.7974 47.8727L48.8015 47.8696C48.533 47.4986 48.3986 46.9736 48.3986 46.2943H48.3934ZM48.7974 47.8727C49.0689 48.245 49.4516 48.4312 49.9451 48.4312V48.426C49.4531 48.426 49.072 48.2405 48.8015 47.8696L48.7974 47.8727ZM49.9451 48.4312C50.1898 48.4312 50.4109 48.3828 50.6084 48.2861L50.6062 48.2815C50.4095 48.3778 50.1891 48.426 49.9451 48.426V48.4312ZM50.6085 48.2861C50.806 48.1874 50.9705 48.0434 51.1022 47.8541L51.098 47.8512C50.9668 48.0398 50.8029 48.1832 50.6062 48.2815L50.6085 48.2861ZM51.1022 47.8542C51.1783 47.7472 51.243 47.6259 51.2965 47.4902L51.2917 47.4883C51.2384 47.6236 51.1738 47.7446 51.098 47.8512L51.1022 47.8542ZM51.2965 47.4902C51.352 47.3545 51.3941 47.2065 51.4229 47.0462L51.4178 47.0453C51.3891 47.2053 51.3471 47.353 51.2917 47.4883L51.2965 47.4902ZM51.4204 47.0483H51.599V47.0432H51.4204V47.0483ZM51.5964 47.0458V48.6565H51.6016V47.0458H51.5964ZM51.599 48.6539H51.4419V48.6591H51.599V48.6539ZM51.444 48.655L51.1669 48.2547L51.1626 48.2576L51.4398 48.658L51.444 48.655ZM51.1632 48.2541C50.9458 48.4161 50.7283 48.5341 50.511 48.6079L50.5127 48.6127C50.7306 48.5387 50.9485 48.4205 51.1663 48.2582L51.1632 48.2541ZM50.511 48.6079C50.2957 48.6817 50.063 48.7186 49.8127 48.7186V48.7237C50.0635 48.7237 50.2968 48.6867 50.5127 48.6127L50.511 48.6079ZM53.6563 48.5395L53.6553 48.5418L53.6553 48.5418L53.6563 48.5395ZM52.948 48.0282L52.9461 48.0299L52.9461 48.03L52.948 48.0282ZM52.4829 47.2613L52.4805 47.2622L52.4805 47.2623L52.4829 47.2613ZM52.4829 45.358L52.4805 45.3571L52.4805 45.3571L52.4829 45.358ZM52.948 44.5942L52.9461 44.5925H52.9461L52.948 44.5942ZM53.6563 44.083L53.6553 44.0807L53.6553 44.0807L53.6563 44.083ZM55.4488 44.083L55.4478 44.0853L55.4488 44.083ZM56.1571 44.5942L56.1552 44.596L56.1553 44.596L56.1571 44.5942ZM56.6253 45.358L56.6277 45.3571L56.6253 45.358ZM56.6253 47.2613L56.6277 47.2623V47.2623L56.6253 47.2613ZM56.1571 48.0282L56.1553 48.0265V48.0265L56.1571 48.0282ZM55.4488 48.5395L55.4498 48.5418L55.4498 48.5418L55.4488 48.5395ZM55.0484 48.3331L55.0474 48.3308L55.0474 48.3308L55.0484 48.3331ZM55.4426 48.0498L55.4407 48.048V48.048L55.4426 48.0498ZM55.7321 47.6001L55.7345 47.6012L55.7321 47.6001ZM55.9077 47.0088L55.9052 47.0084L55.9077 47.0088ZM55.9077 45.5921L55.9052 45.5926L55.9052 45.5926L55.9077 45.5921ZM55.7352 45.0069L55.7329 45.008L55.7352 45.0069ZM55.4488 44.5665L55.4469 44.5683L55.4469 44.5683L55.4488 44.5665ZM55.0546 44.2863L55.0535 44.2886L55.0536 44.2886L55.0546 44.2863ZM54.0598 44.2863L54.0608 44.2886L54.0608 44.2886L54.0598 44.2863ZM53.6625 44.5665L53.6606 44.5648L53.6606 44.5648L53.6625 44.5665ZM53.3761 45.0131L53.3737 45.012L53.3737 45.0121L53.3761 45.0131ZM53.2036 45.5983L53.2011 45.5978L53.2036 45.5983ZM53.2036 47.015L53.2011 47.0154L53.2036 47.015ZM53.3761 47.6032L53.3737 47.6042L53.3737 47.6043L53.3761 47.6032ZM53.6625 48.0498L53.6644 48.048L53.6625 48.0498ZM54.0536 48.3331L54.0526 48.3355L54.0526 48.3355L54.0536 48.3331ZM54.5526 48.7186C54.2285 48.7186 53.9301 48.6581 53.6574 48.5371L53.6553 48.5418C53.9287 48.6631 54.2278 48.7237 54.5526 48.7237V48.7186ZM53.6574 48.5371C53.3867 48.4141 53.1509 48.2439 52.9499 48.0265L52.9461 48.03C53.1476 48.2478 53.384 48.4185 53.6553 48.5418L53.6574 48.5371ZM52.9499 48.0265C52.751 47.807 52.5961 47.5517 52.4853 47.2604L52.4805 47.2623C52.5915 47.5541 52.7467 47.81 52.9461 48.0299L52.9499 48.0265ZM52.4854 47.2605C52.3766 46.9672 52.3223 46.6502 52.3223 46.3097H52.3172C52.3172 46.6508 52.3716 46.9683 52.4805 47.2622L52.4854 47.2605ZM52.3223 46.3097C52.3223 45.9671 52.3766 45.6502 52.4854 45.3589L52.4805 45.3571C52.3716 45.649 52.3172 45.9665 52.3172 46.3097H52.3223ZM52.4853 45.3589C52.5961 45.0677 52.751 44.8134 52.9499 44.596L52.9461 44.5925C52.7467 44.8104 52.5915 45.0653 52.4805 45.3571L52.4853 45.3589ZM52.9499 44.596C53.1509 44.3765 53.3867 44.2063 53.6574 44.0853L53.6553 44.0807C53.384 44.2019 53.1476 44.3726 52.9461 44.5925L52.9499 44.596ZM53.6574 44.0853C53.9301 43.9644 54.2285 43.9039 54.5526 43.9039V43.8987C54.2278 43.8987 53.9287 43.9594 53.6553 44.0807L53.6574 44.0853ZM54.5526 43.9039C54.8766 43.9039 55.175 43.9644 55.4478 44.0853L55.4498 44.0807C55.1764 43.9594 54.8773 43.8987 54.5526 43.8987V43.9039ZM55.4478 44.0853C55.7205 44.2063 55.9563 44.3765 56.1552 44.596L56.159 44.5925C55.9596 44.3726 55.7232 44.2019 55.4498 44.0807L55.4478 44.0853ZM56.1553 44.596C56.3562 44.8134 56.5121 45.0677 56.6229 45.3589L56.6277 45.3571C56.5167 45.0653 56.3605 44.8104 56.159 44.5925L56.1553 44.596ZM56.6229 45.3589C56.7336 45.6502 56.789 45.9671 56.789 46.3097H56.7941C56.7941 45.9665 56.7387 45.649 56.6277 45.3571L56.6229 45.3589ZM56.789 46.3097C56.789 46.6502 56.7336 46.9671 56.6229 47.2604L56.6277 47.2623C56.7387 46.9683 56.7941 46.6508 56.7941 46.3097H56.789ZM56.6229 47.2604C56.5121 47.5517 56.3562 47.807 56.1553 48.0265L56.159 48.0299C56.3605 47.81 56.5167 47.5541 56.6277 47.2623L56.6229 47.2604ZM56.1553 48.0265C55.9563 48.2439 55.7205 48.4141 55.4477 48.5371L55.4498 48.5418C55.7232 48.4185 55.9596 48.2478 56.159 48.0299L56.1553 48.0265ZM55.4478 48.5371C55.175 48.6581 54.8766 48.7186 54.5526 48.7186V48.7237C54.8773 48.7237 55.1764 48.6631 55.4498 48.5418L55.4478 48.5371ZM54.5526 48.4342C54.7356 48.4342 54.9013 48.4013 55.0495 48.3355L55.0474 48.3308C54.8999 48.3963 54.735 48.4291 54.5526 48.4291V48.4342ZM55.0494 48.3355C55.1997 48.2696 55.3314 48.175 55.4445 48.0515L55.4407 48.048C55.328 48.171 55.1969 48.2652 55.0474 48.3308L55.0494 48.3355ZM55.4445 48.0515C55.5597 47.926 55.6564 47.7759 55.7345 47.6012L55.7298 47.5991C55.6519 47.7734 55.5555 47.923 55.4407 48.048L55.4445 48.0515ZM55.7345 47.6012C55.8126 47.4264 55.8712 47.2291 55.9102 47.0093L55.9052 47.0084C55.8662 47.2279 55.8077 47.4248 55.7298 47.5991L55.7345 47.6012ZM55.9102 47.0093C55.9492 46.7894 55.9688 46.5511 55.9688 46.2943H55.9636C55.9636 46.5508 55.9441 46.7888 55.9052 47.0084L55.9102 47.0093ZM55.9688 46.2943C55.9688 46.0416 55.9492 45.8074 55.9102 45.5916L55.9052 45.5926C55.9441 45.808 55.9636 46.0419 55.9636 46.2943H55.9688ZM55.9102 45.5916C55.8712 45.3738 55.8136 45.1786 55.7376 45.0059L55.7329 45.008C55.8087 45.1802 55.8662 45.3751 55.9052 45.5926L55.9102 45.5916ZM55.7376 45.0059C55.6615 44.8332 55.5659 44.6861 55.4506 44.5648L55.4469 44.5683C55.5617 44.6892 55.657 44.8357 55.7329 45.008L55.7376 45.0059ZM55.4507 44.5648C55.3375 44.4413 55.2058 44.3477 55.0556 44.2839L55.0536 44.2886C55.2031 44.3521 55.3342 44.4453 55.4469 44.5683L55.4507 44.5648ZM55.0556 44.2839C54.9074 44.2181 54.7418 44.1851 54.5587 44.1851V44.1903C54.7411 44.1903 54.9061 44.2231 55.0535 44.2886L55.0556 44.2839ZM54.5587 44.1851C54.3757 44.1851 54.209 44.2181 54.0588 44.2839L54.0608 44.2886C54.2104 44.2231 54.3763 44.1903 54.5587 44.1903V44.1851ZM54.0588 44.2839C53.9086 44.3477 53.7758 44.4413 53.6606 44.5648L53.6644 44.5683C53.7791 44.4453 53.9113 44.3521 54.0608 44.2886L54.0588 44.2839ZM53.6606 44.5648C53.5475 44.6882 53.4519 44.8373 53.3737 45.012L53.3784 45.0141C53.4564 44.8398 53.5517 44.6912 53.6644 44.5683L53.6606 44.5648ZM53.3737 45.0121C53.2977 45.1847 53.2401 45.38 53.2011 45.5978L53.2061 45.5987C53.2451 45.3812 53.3026 45.1864 53.3784 45.0141L53.3737 45.0121ZM53.2011 45.5978C53.1621 45.8156 53.1425 46.0519 53.1425 46.3066H53.1477C53.1477 46.0521 53.1672 45.8162 53.2061 45.5987L53.2011 45.5978ZM53.1425 46.3066C53.1425 46.5613 53.1621 46.7976 53.2011 47.0154L53.2061 47.0145C53.1672 46.797 53.1477 46.5611 53.1477 46.3066H53.1425ZM53.2011 47.0154C53.2401 47.2332 53.2977 47.4295 53.3737 47.6042L53.3784 47.6022C53.3026 47.4279 53.2451 47.232 53.2061 47.0145L53.2011 47.0154ZM53.3737 47.6043C53.4519 47.779 53.5475 47.9281 53.6606 48.0515L53.6644 48.048C53.5517 47.9251 53.4564 47.7765 53.3784 47.6022L53.3737 47.6043ZM53.6606 48.0515C53.7738 48.175 53.9044 48.2696 54.0526 48.3355L54.0547 48.3308C53.9072 48.2652 53.7771 48.171 53.6644 48.048L53.6606 48.0515ZM54.0526 48.3355C54.2029 48.4013 54.3695 48.4342 54.5526 48.4342V48.4291C54.3701 48.4291 54.2042 48.3963 54.0547 48.3308L54.0526 48.3355ZM57.3355 48.5025L57.333 48.491V48.5025H57.3355ZM57.8591 48.3855L57.8617 48.397V48.3855H57.8591ZM57.8591 44.2308H57.8709L57.8597 44.2283L57.8591 44.2308ZM57.3355 44.1138H57.3238L57.335 44.1163L57.3355 44.1138ZM59.7193 44.0091L59.719 44.0116H59.719L59.7193 44.0091ZM60.3414 44.1508L60.3405 44.1532L60.3406 44.1532L60.3414 44.1508ZM60.825 44.4095L60.8234 44.4115L60.8234 44.4115L60.825 44.4095ZM61.4717 45.2194L61.4694 45.2205V45.2205L61.4717 45.2194ZM61.4563 47.4646L61.4586 47.4657L61.4586 47.4657L61.4563 47.4646ZM60.7849 48.2962L60.7864 48.2982L60.7864 48.2982L60.7849 48.2962ZM60.1936 48.5733L60.1942 48.5758L60.1936 48.5733ZM59.901 48.3023L59.902 48.3047L59.902 48.3047L59.901 48.3023ZM60.3969 47.9297L60.3988 47.9313L60.3989 47.9313L60.3969 47.9297ZM60.7572 47.2059L60.7547 47.2052L60.7547 47.2052L60.7572 47.2059ZM60.7572 45.3334L60.7548 45.3342L60.7572 45.3334ZM60.3845 44.662L60.3864 44.6603L60.3864 44.6602L60.3845 44.662ZM59.8487 44.3232L59.8478 44.3257L59.8479 44.3257L59.8487 44.3232ZM58.6907 48.3331L58.6894 48.3353L58.6907 48.3331ZM57.3381 48.6565V48.5025H57.333V48.6565H57.3381ZM57.3361 48.505L57.8597 48.388L57.8586 48.383L57.335 48.5L57.3361 48.505ZM57.8617 48.3855V44.2308H57.8565V48.3855H57.8617ZM57.8597 44.2283L57.3361 44.1113L57.335 44.1163L57.8586 44.2333L57.8597 44.2283ZM57.3381 44.1138V43.966H57.333V44.1138H57.3381ZM57.3355 43.9685H58.8724V43.9634H57.3355V43.9685ZM58.8724 43.9685C59.2008 43.9685 59.483 43.9829 59.719 44.0116L59.7196 44.0065C59.4834 43.9778 59.2009 43.9634 58.8724 43.9634V43.9685ZM59.719 44.0116C59.957 44.0404 60.1642 44.0875 60.3405 44.1532L60.3423 44.1483C60.1655 44.0826 59.9579 44.0353 59.7196 44.0065L59.719 44.0116ZM60.3406 44.1532C60.519 44.2167 60.6799 44.3029 60.8234 44.4115L60.8265 44.4074C60.6826 44.2984 60.5212 44.2121 60.3423 44.1483L60.3406 44.1532ZM60.8234 44.4115C61.1023 44.6186 61.3176 44.8883 61.4694 45.2205L61.474 45.2184C61.3219 44.8854 61.1061 44.615 60.8265 44.4074L60.8234 44.4115ZM61.4694 45.2205C61.6211 45.5507 61.6971 45.9168 61.6971 46.3189H61.7022C61.7022 45.9162 61.6262 45.5493 61.474 45.2184L61.4694 45.2205ZM61.6971 46.3189C61.6971 46.7333 61.616 47.1149 61.454 47.4635L61.4586 47.4657C61.621 47.1163 61.7022 46.734 61.7022 46.3189H61.6971ZM61.454 47.4635C61.292 47.8102 61.0684 48.087 60.7834 48.2941L60.7864 48.2982C61.0722 48.0906 61.2963 47.813 61.4586 47.4657L61.454 47.4635ZM60.7834 48.2941C60.603 48.4232 60.4062 48.5155 60.193 48.5709L60.1942 48.5758C60.4081 48.5203 60.6055 48.4278 60.7864 48.2982L60.7834 48.2941ZM60.193 48.5709C59.9797 48.6262 59.7192 48.6539 59.4113 48.6539V48.6591C59.7194 48.6591 59.9804 48.6313 60.1942 48.5758L60.193 48.5709ZM59.4113 48.6539H57.3355V48.6591H59.4113V48.6539ZM59.1834 48.4158C59.4752 48.4158 59.7147 48.3788 59.902 48.3047L59.9001 48.2999C59.7136 48.3737 59.4748 48.4106 59.1834 48.4106V48.4158ZM59.902 48.3047C60.0893 48.2286 60.2549 48.1041 60.3988 47.9313L60.3949 47.928C60.2514 48.1002 60.0865 48.2241 59.9001 48.2999L59.902 48.3047ZM60.3989 47.9313C60.5572 47.7339 60.6775 47.4923 60.7597 47.2066L60.7547 47.2052C60.6727 47.4903 60.5527 47.7313 60.3949 47.9281L60.3989 47.9313ZM60.7597 47.2066C60.8439 46.9189 60.886 46.6014 60.886 46.2543H60.8809C60.8809 46.601 60.8388 46.918 60.7547 47.2052L60.7597 47.2066ZM60.886 46.2543C60.886 45.9071 60.8439 45.5998 60.7596 45.3326L60.7548 45.3342C60.8388 45.6008 60.8809 45.9075 60.8809 46.2543H60.886ZM60.7596 45.3326C60.6754 45.0654 60.551 44.8413 60.3864 44.6603L60.3826 44.6637C60.5466 44.8441 60.6707 45.0676 60.7548 45.3342L60.7596 45.3326ZM60.3864 44.6602C60.2362 44.5018 60.0572 44.3887 59.8495 44.3208L59.8479 44.3257C60.0548 44.3933 60.2331 44.506 60.3827 44.6638L60.3864 44.6602ZM59.8495 44.3208C59.6417 44.2509 59.3725 44.2159 59.0418 44.2159V44.2211C59.3722 44.2211 59.6408 44.256 59.8478 44.3257L59.8495 44.3208ZM59.0418 44.2159H58.5521V44.2211H59.0418V44.2159ZM58.5495 44.2185V48.0467H58.5546V44.2185H58.5495ZM58.5495 48.0467C58.5495 48.1849 58.596 48.2814 58.6894 48.3353L58.6919 48.3309C58.6006 48.2781 58.5546 48.1836 58.5546 48.0467H58.5495ZM58.6894 48.3353C58.7824 48.3891 58.9473 48.4158 59.1834 48.4158V48.4106C58.9473 48.4106 58.7837 48.3839 58.6919 48.3309L58.6894 48.3353ZM62.262 48.5087L62.2595 48.4978V48.5087H62.262ZM62.7856 48.3855L62.7882 48.3964V48.3855H62.7856ZM62.7856 44.2308H62.7973L62.7861 44.2283L62.7856 44.2308ZM62.262 44.1138H62.2503L62.2615 44.1163L62.262 44.1138ZM65.6991 43.966L65.731 43.9634H65.6991V43.966ZM65.8069 45.3057V45.2737L65.8094 45.3055L65.8069 45.3057ZM65.6436 45.3057L65.6347 45.3082H65.6436V45.3057ZM65.4619 44.7636L65.4595 44.7645L65.4595 44.7645L65.4619 44.7636ZM65.2032 44.2185L65.2075 44.2159H65.2032V44.2185ZM65.1724 48.4009V48.4058L65.1746 48.4022L65.1724 48.4009ZM65.4681 47.8157L65.4657 47.8147L65.4657 47.8148L65.4681 47.8157ZM65.6898 47.2305V47.2229L65.6874 47.2297L65.6898 47.2305ZM65.9054 47.2305L65.8896 47.228H65.9054V47.2305ZM65.6744 48.6565V48.6725L65.677 48.6569L65.6744 48.6565ZM64.7567 47.0365L64.7413 47.0391H64.7567V47.0365ZM64.5257 46.3097L64.5308 46.3071H64.5257V46.3097ZM64.5257 46.0541V46.0599L64.528 46.0552L64.5257 46.0541ZM64.6673 45.6907L64.6649 45.6899L64.6649 45.6899L64.6673 45.6907ZM64.7567 45.3272V45.3135L64.7541 45.3268L64.7567 45.3272ZM62.2646 48.6565V48.5087H62.2595V48.6565H62.2646ZM62.2626 48.5112L62.7862 48.388L62.785 48.383L62.2614 48.5062L62.2626 48.5112ZM62.7882 48.3855V44.2308H62.783V48.3855H62.7882ZM62.7861 44.2283L62.2626 44.1113L62.2615 44.1163L62.785 44.2333L62.7861 44.2283ZM62.2646 44.1138V43.966H62.2595V44.1138H62.2646ZM62.262 43.9685H65.6991V43.9634H62.262V43.9685ZM65.6965 43.9662L65.8043 45.3059L65.8094 45.3055L65.7016 43.9658L65.6965 43.9662ZM65.8069 45.3031H65.6436V45.3082H65.8069V45.3031ZM65.6461 45.305C65.5968 45.1324 65.5362 44.9517 65.4643 44.7627L65.4595 44.7645C65.5314 44.9534 65.5919 45.134 65.6412 45.3064L65.6461 45.305ZM65.4643 44.7628C65.3945 44.5717 65.3082 44.3898 65.2054 44.2172L65.201 44.2198C65.3036 44.3922 65.3898 44.5737 65.4595 44.7645L65.4643 44.7628ZM65.2032 44.2159H63.4785V44.2211H65.2032V44.2159ZM63.476 44.2185V48.4009H63.4811V44.2185H63.476ZM63.4785 48.4034H65.1724V48.3983H63.4785V48.4034ZM65.1746 48.4022C65.2958 48.205 65.3944 48.0098 65.4705 47.8167L65.4657 47.8148C65.3898 48.0076 65.2913 48.2025 65.1702 48.3995L65.1746 48.4022ZM65.4705 47.8167C65.5485 47.6236 65.6224 47.4285 65.6922 47.2314L65.6874 47.2297C65.6176 47.4268 65.5437 47.6218 65.4657 47.8147L65.4705 47.8167ZM65.6898 47.2331H65.9054V47.228H65.6898V47.2331ZM65.9029 47.2301L65.6719 48.6561L65.677 48.6569L65.908 47.231L65.9029 47.2301ZM65.6744 48.6539H62.262V48.6591H65.6744V48.6539ZM64.7592 47.0361C64.7386 46.9128 64.7099 46.7905 64.6729 46.6693L64.668 46.6708C64.7049 46.7918 64.7336 46.9139 64.7541 47.0369L64.7592 47.0361ZM64.6729 46.6693C64.6359 46.548 64.5876 46.4277 64.528 46.3085L64.5234 46.3108C64.5829 46.4298 64.6311 46.5498 64.668 46.6708L64.6729 46.6693ZM64.5257 46.3071H63.3923V46.3123H64.5257V46.3071ZM63.3949 46.3097V46.0541H63.3897V46.3097H63.3949ZM63.3923 46.0566H64.5257V46.0515H63.3923V46.0566ZM64.528 46.0552C64.5876 45.9339 64.6349 45.8127 64.6698 45.6914L64.6649 45.6899C64.63 45.8109 64.5828 45.9319 64.5234 46.0529L64.528 46.0552ZM64.6698 45.6914C64.7068 45.5681 64.7366 45.4469 64.7592 45.3277L64.7541 45.3268C64.7316 45.4458 64.7018 45.5668 64.6649 45.6899L64.6698 45.6914ZM64.7567 45.3298H64.9168V45.3247H64.7567V45.3298ZM64.9142 45.3272V47.0365H64.9194V45.3272H64.9142ZM64.9168 47.034H64.7567V47.0391H64.9168V47.034Z" fill="black"/>
</g>
<defs>
<filter id="filter0_d_7_22" x="4.05422" y="0.679382" width="105.892" height="63.5267" filterUnits="userSpaceOnUse" color-interpolation-filters="sRGB">
<feFlood flood-opacity="0" result="BackgroundImageFix"/>
<feColorMatrix in="SourceAlpha" type="matrix" values="0 0 0 0 0 0 0 0 0 0 0 0 0 0 0 0 0 0 127 0" result="hardAlpha"/>
<feOffset dy="1.74046"/>
<feGaussianBlur stdDeviation="0.870229"/>
<feComposite in2="hardAlpha" operator="out"/>
<feColorMatrix type="matrix" values="0 0 0 0 0 0 0 0 0 0 0 0 0 0 0 0 0 0 0.25 0"/>
<feBlend mode="normal" in2="BackgroundImageFix" result="effect1_dropShadow_7_22"/>
<feBlend mode="normal" in="SourceGraphic" in2="effect1_dropShadow_7_22" result="shape"/>
</filter>
<filter id="filter1_d_7_22" x="3.61911" y="0.244268" width="106.762" height="64.3969" filterUnits="userSpaceOnUse" color-interpolation-filters="sRGB">
<feFlood flood-opacity="0" result="BackgroundImageFix"/>
<feColorMatrix in="SourceAlpha" type="matrix" values="0 0 0 0 0 0 0 0 0 0 0 0 0 0 0 0 0 0 127 0" result="hardAlpha"/>
<feOffset dy="1.74046"/>
<feGaussianBlur stdDeviation="1.08779"/>
<feComposite in2="hardAlpha" operator="out"/>
<feColorMatrix type="matrix" values="0 0 0 0 0 0 0 0 0 0 0 0 0 0 0 0 0 0 0.33 0"/>
<feBlend mode="normal" in2="BackgroundImageFix" result="effect1_dropShadow_7_22"/>
<feBlend mode="normal" in="SourceGraphic" in2="effect1_dropShadow_7_22" result="shape"/>
</filter>
<filter id="filter2_d_7_22" x="75.1477" y="32.4109" width="12.6982" height="19.321" filterUnits="userSpaceOnUse" color-interpolation-filters="sRGB">
<feFlood flood-opacity="0" result="BackgroundImageFix"/>
<feColorMatrix in="SourceAlpha" type="matrix" values="0 0 0 0 0 0 0 0 0 0 0 0 0 0 0 0 0 0 127 0" result="hardAlpha"/>
<feOffset dy="1.74046"/>
<feGaussianBlur stdDeviation="0.870229"/>
<feComposite in2="hardAlpha" operator="out"/>
<feColorMatrix type="matrix" values="0 0 0 0 0 0 0 0 0 0 0 0 0 0 0 0 0 0 0.25 0"/>
<feBlend mode="normal" in2="BackgroundImageFix" result="effect1_dropShadow_7_22"/>
<feBlend mode="normal" in="SourceGraphic" in2="effect1_dropShadow_7_22" result="shape"/>
</filter>
<filter id="filter3_d_7_22" x="24.2124" y="32.4427" width="12.6384" height="19.2574" filterUnits="userSpaceOnUse" color-interpolation-filters="sRGB">
<feFlood flood-opacity="0" result="BackgroundImageFix"/>
<feColorMatrix in="SourceAlpha" type="matrix" values="0 0 0 0 0 0 0 0 0 0 0 0 0 0 0 0 0 0 127 0" result="hardAlpha"/>
<feOffset dy="1.74046"/>
<feGaussianBlur stdDeviation="0.870229"/>
<feComposite in2="hardAlpha" operator="out"/>
<feColorMatrix type="matrix" values="0 0 0 0 0 0 0 0 0 0 0 0 0 0 0 0 0 0 0.25 0"/>
<feBlend mode="normal" in2="BackgroundImageFix" result="effect1_dropShadow_7_22"/>
<feBlend mode="normal" in="SourceGraphic" in2="effect1_dropShadow_7_22" result="shape"/>
</filter>
<linearGradient id="paint0_linear_7_22" x1="43.2529" y1="0.679382" x2="1.18175" y2="60.3951" gradientUnits="userSpaceOnUse">
<stop stop-color="#00C2FF"/>
<stop offset="0.824756" stop-color="#BA62FF" stop-opacity="0.689583"/>
<stop offset="0.946391" stop-color="#BF71FD"/>
</linearGradient>
<linearGradient id="paint1_linear_7_22" x1="70.7471" y1="0.679382" x2="111.855" y2="62.6564" gradientUnits="userSpaceOnUse">
<stop stop-color="#00BCFF"/>
<stop offset="0.820833" stop-color="#BA62FF" stop-opacity="0.689583"/>
<stop offset="0.909375" stop-color="#BF71FD"/>
</linearGradient>
<linearGradient id="paint2_linear_7_22" x1="81.4968" y1="32.4427" x2="86.9114" y2="51.2111" gradientUnits="userSpaceOnUse">
<stop stop-color="#26CE9C"/>
<stop offset="0.669792" stop-color="#31F6F1" stop-opacity="0.278125"/>
<stop offset="1" stop-color="#31F3FF" stop-opacity="0"/>
</linearGradient>
<linearGradient id="paint3_linear_7_22" x1="30.5317" y1="32.4427" x2="35.9462" y2="51.211" gradientUnits="userSpaceOnUse">
<stop stop-color="#26CE9C"/>
<stop offset="0.669792" stop-color="#31F6F1" stop-opacity="0.278125"/>
<stop offset="1" stop-color="#31F3FF" stop-opacity="0"/>
</linearGradient>
<radialGradient id="paint4_diamond_7_22" cx="0" cy="0" r="1" gradientUnits="userSpaceOnUse" gradientTransform="translate(55.9122 42.2855) rotate(90) scale(14.629 32.8511)">
<stop stop-color="#205CD0"/>
<stop offset="0.982292" stop-color="#D7001A"/>
</radialGradient>
</defs>
</svg>
