<svg width="40" height="38" viewBox="0 0 40 38" fill="none" xmlns="http://www.w3.org/2000/svg">
<path d="M38.3713 19C38.3713 29.1282 29.939 37.3667 19.5023 37.3667C9.06558 37.3667 0.633333 29.1282 0.633333 19C0.633333 8.87185 9.06558 0.633333 19.5023 0.633333C29.939 0.633333 38.3713 8.87185 38.3713 19Z" stroke="white" stroke-width="1.26667"/>
<path d="M27.0213 13.0858C25.2204 11.6552 22.3727 11.4128 22.2523 11.4026C22.0621 11.3864 21.8816 11.4929 21.8036 11.6647C21.8006 11.6706 21.6416 12.1267 21.4878 12.5666C23.5807 12.9287 25.0027 13.7321 25.0785 13.7762C25.4336 13.9803 25.5525 14.4305 25.3452 14.7808C25.2078 15.0144 24.9589 15.1451 24.7033 15.1451C24.5762 15.1451 24.4485 15.1135 24.3311 15.046C24.3103 15.0335 22.2241 13.8599 19.5042 13.8599C16.7835 13.8599 14.6966 15.0342 14.6758 15.046C14.3214 15.2494 13.8667 15.1297 13.6609 14.7786C13.4551 14.4291 13.5747 13.9803 13.9284 13.7762C14.0041 13.7321 15.4313 12.9257 17.5302 12.5644C17.3682 12.1193 17.2047 11.6706 17.2018 11.6647C17.1238 11.4922 16.9432 11.3835 16.753 11.4026C16.6327 11.4121 13.785 11.6545 11.9603 13.1049C11.0064 13.9759 9.10144 19.0683 9.10144 23.4711C9.10144 23.5489 9.1215 23.6246 9.16088 23.6921C10.4766 25.9761 14.0636 26.574 14.8808 26.5997C14.886 26.6004 14.8905 26.6004 14.8949 26.6004C15.0391 26.6004 15.175 26.5321 15.2605 26.4168L16.1446 25.2329C14.2055 24.771 13.1802 24.0447 13.1185 23.9999C12.7887 23.7597 12.7174 23.3 12.9603 22.9732C13.2025 22.6478 13.6661 22.5758 13.996 22.8145C14.0235 22.8321 15.9157 24.1416 19.5027 24.1416C23.1037 24.1416 24.9908 22.827 25.0094 22.8138C25.3393 22.5773 25.8043 22.6485 26.0458 22.9761C26.2865 23.3022 26.2167 23.759 25.8883 23.9984C25.8266 24.0432 24.8066 24.768 22.8719 25.23L23.7449 26.4161C23.8303 26.5321 23.9663 26.5997 24.1104 26.5997C24.1156 26.5997 24.1201 26.5997 24.1245 26.5989C24.9425 26.5732 28.5295 25.9754 29.8445 23.6914C29.8839 23.6238 29.9039 23.5482 29.9039 23.4703C29.9039 19.0683 27.999 13.9759 27.0213 13.0858ZM16.5309 21.9384C15.7099 21.9384 15.045 21.1166 15.045 20.1024C15.045 19.0881 15.7099 18.2663 16.5309 18.2663C17.3518 18.2663 18.0168 19.0881 18.0168 20.1024C18.0168 21.1166 17.3518 21.9384 16.5309 21.9384ZM22.4745 21.9384C21.6535 21.9384 20.9886 21.1166 20.9886 20.1024C20.9886 19.0881 21.6535 18.2663 22.4745 18.2663C23.2954 18.2663 23.9603 19.0881 23.9603 20.1024C23.9603 21.1166 23.2954 21.9384 22.4745 21.9384Z" fill="white"/>
</svg>
