<svg width="40" height="38" viewBox="0 0 40 38" fill="none" xmlns="http://www.w3.org/2000/svg">
<path d="M38.3806 19C38.3806 29.1282 29.9483 37.3667 19.5116 37.3667C9.07486 37.3667 0.642611 29.1282 0.642611 19C0.642611 8.87185 9.07486 0.633333 19.5116 0.633333C29.9483 0.633333 38.3806 8.87185 38.3806 19Z" stroke="white" stroke-width="1.26667"/>
<path fill-rule="evenodd" clip-rule="evenodd" d="M19.512 8.8667C13.7662 8.8667 9.11072 13.5169 9.11072 19.256C9.11072 23.8453 12.0902 27.7413 16.2243 29.1144C16.7457 29.2091 16.9353 28.8911 16.9353 28.6138C16.9353 28.3669 16.9252 27.7142 16.9218 26.8485C14.0269 27.4741 13.4175 25.4551 13.4175 25.4551C12.9435 24.2545 12.2629 23.9332 12.2629 23.9332C11.3183 23.2907 12.334 23.3042 12.334 23.3042C13.3768 23.3786 13.9254 24.3729 13.9254 24.3729C14.8531 25.9624 16.3598 25.5024 16.9523 25.2387C17.0471 24.5657 17.3179 24.1091 17.6125 23.8487C15.3034 23.5883 12.8757 22.6954 12.8757 18.7149C12.8757 17.5786 13.282 16.6519 13.9457 15.9248C13.8407 15.6644 13.4818 14.6058 14.0472 13.1753C14.0472 13.1753 14.9208 12.898 16.9083 14.2406C17.7378 14.0106 18.6283 13.8956 19.512 13.8923C20.3957 13.8956 21.2861 14.0106 22.1156 14.2406C24.1031 12.898 24.9733 13.1753 24.9733 13.1753C25.5421 14.6058 25.1866 15.6644 25.0782 15.9248C25.7452 16.6519 26.1448 17.5786 26.1448 18.7149C26.1448 22.7056 23.7138 23.5815 21.3979 23.8419C21.7703 24.1598 22.1021 24.7956 22.1021 25.7629C22.1021 27.1528 22.0919 28.2723 22.0919 28.6138C22.0919 28.8911 22.2782 29.2158 22.8064 29.1144C26.9371 27.7379 29.9132 23.8453 29.9132 19.256C29.9132 13.5169 25.2577 8.8667 19.512 8.8667Z" fill="white"/>
</svg>
