<svg width="40" height="38" viewBox="0 0 40 38" fill="none" xmlns="http://www.w3.org/2000/svg">
<path d="M39.3341 19C39.3341 29.1282 30.9018 37.3667 20.4651 37.3667C10.0284 37.3667 1.5961 29.1282 1.5961 19C1.5961 8.87185 10.0284 0.633333 20.4651 0.633333C30.9018 0.633333 39.3341 8.87185 39.3341 19Z" stroke="white" stroke-width="1.26667"/>
<path fill-rule="evenodd" clip-rule="evenodd" d="M20.4654 8.8667C14.7197 8.8667 10.0642 13.5169 10.0642 19.256C10.0642 23.8453 13.0437 27.7413 17.1778 29.1144C17.6992 29.2091 17.8888 28.8911 17.8888 28.6138C17.8888 28.3669 17.8787 27.7142 17.8753 26.8485C14.9804 27.4741 14.371 25.4551 14.371 25.4551C13.897 24.2545 13.2164 23.9332 13.2164 23.9332C12.2718 23.2907 13.2875 23.3042 13.2875 23.3042C14.3303 23.3786 14.8788 24.3729 14.8788 24.3729C15.8066 25.9624 17.3132 25.5024 17.9058 25.2387C18.0006 24.5657 18.2714 24.1091 18.566 23.8487C16.2569 23.5883 13.8292 22.6954 13.8292 18.7149C13.8292 17.5786 14.2355 16.6519 14.8992 15.9248C14.7942 15.6644 14.4353 14.6058 15.0007 13.1753C15.0007 13.1753 15.8743 12.898 17.8617 14.2406C18.6913 14.0106 19.5817 13.8956 20.4654 13.8923C21.3491 13.8956 22.2396 14.0106 23.0691 14.2406C25.0566 12.898 25.9268 13.1753 25.9268 13.1753C26.4956 14.6058 26.1401 15.6644 26.0317 15.9248C26.6987 16.6519 27.0983 17.5786 27.0983 18.7149C27.0983 22.7056 24.6672 23.5815 22.3513 23.8419C22.7238 24.1598 23.0556 24.7956 23.0556 25.7629C23.0556 27.1528 23.0454 28.2723 23.0454 28.6138C23.0454 28.8911 23.2317 29.2158 23.7598 29.1144C27.8905 27.7379 30.8667 23.8453 30.8667 19.256C30.8667 13.5169 26.2112 8.8667 20.4654 8.8667Z" fill="white"/>
</svg>
