<svg width="40" height="38" viewBox="0 0 40 38" fill="none" xmlns="http://www.w3.org/2000/svg">
<path d="M39.2967 19C39.2967 29.1282 30.8645 37.3667 20.4277 37.3667C9.991 37.3667 1.55875 29.1282 1.55875 19C1.55875 8.87185 9.991 0.633333 20.4277 0.633333C30.8645 0.633333 39.2967 8.87185 39.2967 19Z" stroke="white" stroke-width="1.26667"/>
<path d="M15.8054 8.44482C12.6192 8.44482 10.027 11.2509 10.027 14.7V24.7082C10.027 28.1573 12.6192 30.9633 15.8054 30.9633H25.051C28.2372 30.9633 30.8294 28.1573 30.8294 24.7082V14.7C30.8294 11.2509 28.2372 8.44482 25.051 8.44482H15.8054ZM15.8054 10.9469H25.051C26.9625 10.9469 28.5181 12.6308 28.5181 14.7V24.7082C28.5181 26.7774 26.9625 28.4613 25.051 28.4613H15.8054C13.8939 28.4613 12.3384 26.7774 12.3384 24.7082V14.7C12.3384 12.6308 13.8939 10.9469 15.8054 10.9469ZM26.2067 12.1979C25.9002 12.1979 25.6062 12.3297 25.3895 12.5643C25.1727 12.7989 25.051 13.1171 25.051 13.4489C25.051 13.7807 25.1727 14.0989 25.3895 14.3336C25.6062 14.5682 25.9002 14.7 26.2067 14.7C26.5132 14.7 26.8071 14.5682 27.0239 14.3336C27.2406 14.0989 27.3624 13.7807 27.3624 13.4489C27.3624 13.1171 27.2406 12.7989 27.0239 12.5643C26.8071 12.3297 26.5132 12.1979 26.2067 12.1979ZM20.4282 13.4489C17.242 13.4489 14.6497 16.255 14.6497 19.7041C14.6497 23.1532 17.242 25.9592 20.4282 25.9592C23.6145 25.9592 26.2067 23.1532 26.2067 19.7041C26.2067 16.255 23.6145 13.4489 20.4282 13.4489ZM20.4282 15.951C22.3397 15.951 23.8953 17.6349 23.8953 19.7041C23.8953 21.7733 22.3397 23.4572 20.4282 23.4572C18.5167 23.4572 16.9611 21.7733 16.9611 19.7041C16.9611 17.6349 18.5167 15.951 20.4282 15.951Z" fill="white"/>
</svg>
