<svg width="40" height="38" viewBox="0 0 40 38" fill="none" xmlns="http://www.w3.org/2000/svg">
<path d="M38.3898 19C38.3898 29.1282 29.9576 37.3667 19.5209 37.3667C9.08414 37.3667 0.651888 29.1282 0.651888 19C0.651888 8.87185 9.08414 0.633333 19.5209 0.633333C29.9576 0.633333 38.3898 8.87185 38.3898 19Z" stroke="white" stroke-width="1.26667"/>
<path d="M14.8986 8.44482C11.7123 8.44482 9.12012 11.2509 9.12012 14.7V24.7082C9.12012 28.1573 11.7123 30.9633 14.8986 30.9633H24.1441C27.3304 30.9633 29.9226 28.1573 29.9226 24.7082V14.7C29.9226 11.2509 27.3304 8.44482 24.1441 8.44482H14.8986ZM14.8986 10.9469H24.1441C26.0556 10.9469 27.6112 12.6308 27.6112 14.7V24.7082C27.6112 26.7774 26.0556 28.4613 24.1441 28.4613H14.8986C12.9871 28.4613 11.4315 26.7774 11.4315 24.7082V14.7C11.4315 12.6308 12.9871 10.9469 14.8986 10.9469ZM25.2998 12.1979C24.9933 12.1979 24.6994 12.3297 24.4826 12.5643C24.2659 12.7989 24.1441 13.1171 24.1441 13.4489C24.1441 13.7807 24.2659 14.0989 24.4826 14.3336C24.6994 14.5682 24.9933 14.7 25.2998 14.7C25.6063 14.7 25.9003 14.5682 26.117 14.3336C26.3337 14.0989 26.4555 13.7807 26.4555 13.4489C26.4555 13.1171 26.3337 12.7989 26.117 12.5643C25.9003 12.3297 25.6063 12.1979 25.2998 12.1979ZM19.5214 13.4489C16.3351 13.4489 13.7429 16.255 13.7429 19.7041C13.7429 23.1532 16.3351 25.9592 19.5214 25.9592C22.7076 25.9592 25.2998 23.1532 25.2998 19.7041C25.2998 16.255 22.7076 13.4489 19.5214 13.4489ZM19.5214 15.951C21.4329 15.951 22.9884 17.6349 22.9884 19.7041C22.9884 21.7733 21.4329 23.4572 19.5214 23.4572C17.6098 23.4572 16.0543 21.7733 16.0543 19.7041C16.0543 17.6349 17.6098 15.951 19.5214 15.951Z" fill="white"/>
</svg>
