<svg width="40" height="38" viewBox="0 0 40 38" fill="none" xmlns="http://www.w3.org/2000/svg">
<path d="M38.3759 19C38.3759 29.1282 29.9437 37.3667 19.507 37.3667C9.07022 37.3667 0.637972 29.1282 0.637972 19C0.637972 8.87185 9.07022 0.633333 19.507 0.633333C29.9437 0.633333 38.3759 8.87185 38.3759 19Z" stroke="white" stroke-width="1.26667"/>
<path d="M11.4175 8.8667C10.1404 8.8667 9.10608 9.8744 9.10608 11.1186V26.8815C9.10608 28.1257 10.1404 29.1334 11.4175 29.1334H27.5972C28.8742 29.1334 29.9085 28.1257 29.9085 26.8815V11.1186C29.9085 9.8744 28.8742 8.8667 27.5972 8.8667H11.4175ZM11.4175 11.1186H27.5972V26.8815H11.4175V11.1186ZM14.6295 12.6007C13.639 12.6007 13.0449 13.1808 13.0449 13.9532C13.0449 14.7255 13.6391 15.3034 14.5302 15.3034C15.5206 15.3034 16.1147 14.7255 16.1147 13.9532C16.1147 13.1808 15.5205 12.6007 14.6295 12.6007ZM13.1239 16.7482V24.6297H16.0402V16.7482H13.1239ZM18.4464 16.7482V24.6297H21.3627V20.3217C21.3627 19.0392 22.3019 18.8549 22.5839 18.8549C22.8659 18.8549 23.62 19.1304 23.62 20.3217V24.6297H26.4415V20.3217C26.4415 17.848 25.3132 16.7482 23.9021 16.7482C22.491 16.7482 21.7383 17.2059 21.3627 17.8477V16.7482H18.4464Z" fill="white"/>
</svg>
