<svg width="40" height="38" viewBox="0 0 40 38" fill="none" xmlns="http://www.w3.org/2000/svg">
<path d="M38.8526 19C38.8526 29.1282 30.4204 37.3667 19.9836 37.3667C9.54691 37.3667 1.11466 29.1282 1.11466 19C1.11466 8.87185 9.54691 0.633333 19.9836 0.633333C30.4204 0.633333 38.8526 8.87185 38.8526 19Z" stroke="white" stroke-width="1.26667"/>
<path d="M11.8941 8.8667C10.6171 8.8667 9.58276 9.8744 9.58276 11.1186V26.8815C9.58276 28.1257 10.6171 29.1334 11.8941 29.1334H28.0738C29.3509 29.1334 30.3852 28.1257 30.3852 26.8815V11.1186C30.3852 9.8744 29.3509 8.8667 28.0738 8.8667H11.8941ZM11.8941 11.1186H28.0738V26.8815H11.8941V11.1186ZM15.1062 12.6007C14.1157 12.6007 13.5216 13.1808 13.5216 13.9532C13.5216 14.7255 14.1158 15.3034 15.0068 15.3034C15.9973 15.3034 16.5914 14.7255 16.5914 13.9532C16.5914 13.1808 15.9972 12.6007 15.1062 12.6007ZM13.6006 16.7482V24.6297H16.5169V16.7482H13.6006ZM18.9231 16.7482V24.6297H21.8394V20.3217C21.8394 19.0392 22.7786 18.8549 23.0606 18.8549C23.3426 18.8549 24.0966 19.1304 24.0966 20.3217V24.6297H26.9182V20.3217C26.9182 17.848 25.7899 16.7482 24.3788 16.7482C22.9677 16.7482 22.215 17.2059 21.8394 17.8477V16.7482H18.9231Z" fill="white"/>
</svg>
