<svg width="40" height="38" viewBox="0 0 40 38" fill="none" xmlns="http://www.w3.org/2000/svg">
<path d="M38.3852 19C38.3852 29.1282 29.953 37.3667 19.5162 37.3667C9.0795 37.3667 0.647249 29.1282 0.647249 19C0.647249 8.87185 9.0795 0.633333 19.5162 0.633333C29.953 0.633333 38.3852 8.87185 38.3852 19Z" stroke="white" stroke-width="1.26667"/>
<path d="M29.9676 12.0225C29.1989 12.3919 28.3749 12.64 27.5087 12.7526C28.3928 12.1791 29.0721 11.2713 29.3907 10.1911C28.5651 10.7206 27.6468 11.1059 26.6733 11.3135C25.8932 10.4128 24.7816 9.85156 23.5513 9.85156C21.1883 9.85156 19.2722 11.924 19.2722 14.4819C19.2722 14.8443 19.3112 15.198 19.3843 15.5375C15.8284 15.344 12.6772 13.5003 10.566 10.6978C10.1971 11.3839 9.98747 12.1791 9.98747 13.027C9.98747 14.6332 10.7416 16.0512 11.8906 16.8833C11.1885 16.8587 10.5287 16.6493 9.95172 16.3028C9.95172 16.3221 9.95172 16.3415 9.95172 16.3608C9.95172 18.6056 11.4274 20.4757 13.3825 20.9032C13.025 21.0088 12.6463 21.0651 12.2562 21.0651C11.98 21.0651 11.7118 21.0369 11.4501 20.9806C11.9962 22.8191 13.5759 24.1614 15.4465 24.1983C13.9838 25.4404 12.1392 26.1792 10.1337 26.1792C9.78758 26.1792 9.44791 26.1581 9.11475 26.1142C11.0065 27.4301 13.2557 28.1954 15.6724 28.1954C23.5416 28.1954 27.8451 21.139 27.8451 15.0203C27.8451 14.8197 27.8402 14.6174 27.8337 14.4204C28.6691 13.7677 29.3939 12.9514 29.9676 12.0225Z" fill="white"/>
</svg>
