<svg width="40" height="38" viewBox="0 0 40 38" fill="none" xmlns="http://www.w3.org/2000/svg">
<path d="M38.8154 19C38.8154 29.1282 30.3831 37.3667 19.9464 37.3667C9.50968 37.3667 1.07743 29.1282 1.07743 19C1.07743 8.87185 9.50968 0.633333 19.9464 0.633333C30.3831 0.633333 38.8154 8.87185 38.8154 19Z" stroke="white" stroke-width="1.26667"/>
<path d="M30.3978 12.0225C29.6291 12.3919 28.8051 12.64 27.9389 12.7526C28.823 12.1791 29.5023 11.2713 29.8208 10.1911C28.9952 10.7206 28.077 11.1059 27.1035 11.3135C26.3234 10.4128 25.2118 9.85156 23.9815 9.85156C21.6185 9.85156 19.7024 11.924 19.7024 14.4819C19.7024 14.8443 19.7414 15.198 19.8145 15.5375C16.2586 15.344 13.1073 13.5003 10.9962 10.6978C10.6273 11.3839 10.4177 12.1791 10.4177 13.027C10.4177 14.6332 11.1717 16.0512 12.3208 16.8833C11.6187 16.8587 10.9588 16.6493 10.3819 16.3028C10.3819 16.3221 10.3819 16.3415 10.3819 16.3608C10.3819 18.6056 11.8576 20.4757 13.8127 20.9032C13.4551 21.0088 13.0765 21.0651 12.6864 21.0651C12.4101 21.0651 12.142 21.0369 11.8803 20.9806C12.4264 22.8191 14.0061 24.1614 15.8767 24.1983C14.414 25.4404 12.5694 26.1792 10.5639 26.1792C10.2178 26.1792 9.87809 26.1581 9.54492 26.1142C11.4366 27.4301 13.6859 28.1954 16.1026 28.1954C23.9718 28.1954 28.2753 21.139 28.2753 15.0203C28.2753 14.8197 28.2704 14.6174 28.2639 14.4204C29.0992 13.7677 29.8241 12.9514 30.3978 12.0225Z" fill="white"/>
</svg>
